<?xml version="1.0" encoding="utf-8"?>
<!-- Generator: Adobe Illustrator 24.1.1, SVG Export Plug-In . SVG Version: 6.00 Build 0)  -->
<svg version="1.1" id="Ebene_1" xmlns="http://www.w3.org/2000/svg" xmlns:xlink="http://www.w3.org/1999/xlink" x="0px" y="0px"
	 viewBox="0 0 841.9 595.3" style="enable-background:new 0 0 841.9 595.3;" xml:space="preserve">
<style type="text/css">
	.st0{fill:#F39424;}
	.st1{fill:#FFFFFF;}
</style>
<g>
	<path class="st0" d="M353.8,162.6c-11.6,0-21-9.4-21-21v-21h106c11.6,0,21,9.4,21,21v21H353.8z"/>
	<path class="st1" d="M438.8,121.6c11,0,20,9,20,20v20h-105c-11,0-20-9-20-20v-20H438.8 M438.8,119.6h-105h-2v2v20
		c0,12.1,9.9,22,22,22h105h2v-2v-20C460.8,129.4,451,119.6,438.8,119.6L438.8,119.6z"/>
</g>
</svg>
