<svg xmlns="http://www.w3.org/2000/svg" width="24" height="16" viewBox="0 0 24 16"><defs><style>.a{fill:#f0f0f0;}.b{fill:#d80027;}.c{fill:#0052b4;}</style></defs><g transform="translate(0 -85.33)"><rect class="a" width="24" height="16" transform="translate(0 85.33)"/><path class="b" d="M13.5,85.33h-3v6.5H0v3H10.5v6.5h3v-6.5H24v-3H13.5Z"/><g transform="translate(14.609 96.113)"><path class="c" d="M393.785,315.358l5.541,3.079v-3.079Z" transform="translate(-389.935 -315.358)"/><path class="c" d="M311.652,315.358l9.391,5.217V319.1l-6.736-3.742Z" transform="translate(-311.652 -315.358)"/><path class="c" d="M318.542,348.826,311.652,345v3.828Z" transform="translate(-311.652 -343.609)"/></g><path class="a" d="M311.652,315.358l9.391,5.217V319.1l-6.736-3.742Z" transform="translate(-297.043 -219.245)"/><path class="b" d="M311.652,315.358l9.391,5.217V319.1l-6.736-3.742Z" transform="translate(-297.043 -219.245)"/><g transform="translate(0 96.112)"><path class="c" d="M4.235,315.356,0,317.709v-2.353Z" transform="translate(0 -315.356)"/><path class="c" d="M33.687,329.51v4.554h-8.2Z" transform="translate(-24.296 -328.847)"/></g><path class="b" d="M6.736,315.358,0,319.1v1.475H0l9.391-5.217Z" transform="translate(0 -219.245)"/><g transform="translate(0 85.33)"><path class="c" d="M5.541,134.037,0,130.958v3.079Z" transform="translate(0 -128.819)"/><path class="c" d="M9.391,90.547,0,85.33v1.475l6.736,3.742Z" transform="translate(0 -85.33)"/><path class="c" d="M53.366,85.33l6.89,3.828V85.33Z" transform="translate(-50.864 -85.33)"/></g><path class="a" d="M9.391,90.547,0,85.33v1.475l6.736,3.742Z"/><path class="b" d="M9.391,90.547,0,85.33v1.475l6.736,3.742Z"/><g transform="translate(14.609 85.33)"><path class="c" d="M421.659,148.8l4.235-2.353V148.8Z" transform="translate(-416.502 -143.581)"/><path class="c" d="M311.652,89.885V85.331h8.2Z" transform="translate(-311.652 -85.331)"/></g><path class="b" d="M314.308,90.547l6.736-3.742V85.33h0l-9.391,5.217Z" transform="translate(-297.043)"/></g></svg>