<?xml version="1.0" encoding="utf-8"?>
<!-- Generator: Adobe Illustrator 24.1.1, SVG Export Plug-In . SVG Version: 6.00 Build 0)  -->
<svg version="1.1" id="Ebene_1" xmlns="http://www.w3.org/2000/svg" xmlns:xlink="http://www.w3.org/1999/xlink" x="0px" y="0px"
	 viewBox="0 0 595.3 841.9" style="enable-background:new 0 0 595.3 841.9;" xml:space="preserve">
<style type="text/css">
	.st0{fill:#221C47;}
	.st1{fill:#FFFFFF;}
	.st2{fill:#F39423;}
</style>
<rect x="274.1" y="397.1" class="st0" width="32" height="32"/>
<g>
	<path class="st1" d="M310.9,432.9l-1.1,1.1c-0.1,0.1-0.3,0.2-0.5,0.2c-0.2,0-0.4-0.1-0.5-0.2l-1.6-1.6l-7,7
		c-0.1,0.1-0.3,0.2-0.5,0.2c-0.2,0-0.4-0.1-0.5-0.2l-20.4-20.4c-0.1-0.1-0.2-0.3-0.2-0.5c0-0.2,0.1-0.4,0.2-0.5l7-7l-1.6-1.6
		c-0.1-0.1-0.2-0.3-0.2-0.5c0-0.2,0.1-0.4,0.2-0.5l1.1-1.1c0.1-0.1,0.3-0.2,0.5-0.2c0.2,0,0.4,0.1,0.5,0.2l1.6,1.6l7-7
		c0.1-0.1,0.3-0.2,0.5-0.2c0.2,0,0.4,0.1,0.5,0.2l20.4,20.4c0.1,0.1,0.2,0.3,0.2,0.5c0,0.2-0.1,0.4-0.2,0.5l-7,7l1.6,1.6
		c0.1,0.1,0.2,0.3,0.2,0.5C311.2,432.5,311.1,432.7,310.9,432.9z"/>
	<path class="st0" d="M307.2,423.7l-5.4-5.4L290,430.2l2.2,2.2l3.2-3.2l2.2-2.1l3.2,3.2c0.6,0.6,1.6,0.6,2.1,0l4.3-4.3
		C307.8,425.3,307.8,424.3,307.2,423.7z M303.5,425.3C303.5,425.3,303.4,425.3,303.5,425.3l-1.1,1.1c0,0,0,0-0.1,0.1
		c-0.1,0.1-0.3,0.2-0.5,0.2c-0.2,0-0.4-0.1-0.5-0.2l-1.6-1.6l2.1-2.1l1.6,1.6c0.1,0.1,0.2,0.3,0.2,0.5
		C303.6,425,303.6,425.1,303.5,425.3z"/>
	<path class="st2" d="M303.6,424.8c0,0.2-0.1,0.3-0.2,0.5c0,0,0,0,0,0.1l-1.1,1.1c0,0,0,0-0.1,0.1c-0.1,0.1-0.3,0.2-0.5,0.2
		c-0.2,0-0.4-0.1-0.5-0.2l-1.6-1.6l2.1-2.1l1.6,1.6C303.6,424.4,303.6,424.6,303.6,424.8z"/>
	<path class="st0" d="M295.3,411.9l2.2-2.2l3.2-3.2l-2.2-2.2l-11.8,11.8l5.4,5.4c0.6,0.6,1.6,0.6,2.2,0l4.3-4.3
		c0.6-0.6,0.6-1.6,0-2.2L295.3,411.9z M294.8,416.7l-1.1,1.1c-0.1,0.1-0.3,0.2-0.5,0.2c-0.2,0-0.4-0.1-0.5-0.2l-1.6-1.6l2.2-2.2
		l1.6,1.6c0.1,0.1,0.2,0.3,0.2,0.5C295,416.4,295,416.6,294.8,416.7z"/>
	<path class="st2" d="M295,416.2c0,0.2-0.1,0.4-0.2,0.5l-1.1,1.1c-0.1,0.1-0.3,0.2-0.5,0.2c-0.2,0-0.4-0.1-0.5-0.2l-1.6-1.6l2.2-2.2
		l1.6,1.6C295,415.8,295,416,295,416.2z"/>
</g>
</svg>
