<svg xmlns="http://www.w3.org/2000/svg" width="74.772" height="75" viewBox="0 0 74.772 75"><defs><style>.a{fill:#fff;}</style></defs><g transform="translate(-248.531 -63.819)"><path d="M267.193,138.819H248.531V98.291h18.582v6.429c3.169.7,6.233,1.391,9.3,2.062,5.869,1.281,11.745,2.526,17.607,3.838a7.439,7.439,0,0,1,5.8,8.036c-.039.457-.091.913-.159,1.585,1.5-.429,2.92-.826,4.336-1.242,3.142-.922,6.276-1.868,9.421-2.778a7.538,7.538,0,1,1,4.653,14.34c-6.874,2.2-13.8,4.218-20.714,6.307-1.767.534-3.573.958-5.3,1.6a4.623,4.623,0,0,1-3.16-.04c-6.868-2.091-13.748-4.143-20.625-6.205-.318-.1-.644-.16-1.083-.267Zm16.017-18.975c2.519.75,4.918,1.509,7.345,2.164a6.568,6.568,0,0,0,2.706.275,4.214,4.214,0,0,0,3.48-4.33,4.4,4.4,0,0,0-3.681-4.334q-10.279-2.264-20.563-4.51c-1.739-.38-3.486-.729-5.248-1.1a4.474,4.474,0,0,0-.085.526c0,6.4.006,12.805-.02,19.207,0,.683.253.93.879,1.116,7.285,2.167,14.559,4.373,21.845,6.537a2.714,2.714,0,0,0,1.446-.038c3.428-.99,6.845-2.018,10.262-3.045,5.024-1.509,10.042-3.038,15.069-4.538A4.43,4.43,0,0,0,320,124.524c.881-3.55-2.2-6.283-5.882-5.216-5.4,1.566-10.909,2.861-16.157,4.837a14.928,14.928,0,0,1-11.462-.022c-1.338-.541-2.762-.872-4.2-1.314Zm-19.237,15.788V101.371c-.49-.024-.9-.06-1.313-.061-3.241,0-6.482.049-9.721-.03-1.141-.028-1.4.335-1.395,1.427.04,10.521.023,21.042.027,31.562,0,.441.045.882.071,1.363Z"/><path d="M279.611,85.748a21.831,21.831,0,1,1,21.89,21.81A21.948,21.948,0,0,1,279.611,85.748Zm21.9-18.809A18.762,18.762,0,1,0,320.17,85.744,18.734,18.734,0,0,0,301.513,66.939Z"/><path class="a" d="M283.21,119.844l-.911,2.965c1.435.442,2.859.773,4.2,1.314a14.928,14.928,0,0,0,11.462.022c5.248-1.976,10.755-3.271,16.157-4.837,3.681-1.067,6.763,1.666,5.882,5.216a4.43,4.43,0,0,1-3.352,3.253c-5.027,1.5-10.045,3.029-15.069,4.538-3.417,1.027-6.834,2.055-10.262,3.045a2.714,2.714,0,0,1-1.446.038c-7.286-2.164-14.56-4.37-21.845-6.537-.626-.186-.882-.433-.879-1.116.026-6.4.016-12.805.02-19.207a4.474,4.474,0,0,1,.085-.526c1.762.368,3.509.717,5.248,1.1q10.284,2.246,20.563,4.51a4.4,4.4,0,0,1,3.681,4.334,4.214,4.214,0,0,1-3.48,4.33,6.568,6.568,0,0,1-2.706-.275C288.128,121.353,285.729,120.594,283.21,119.844Z"/><path class="a" d="M263.973,135.632H251.642c-.026-.481-.071-.922-.071-1.363,0-10.52.013-21.041-.027-31.562,0-1.092.254-1.455,1.395-1.427,3.239.079,6.48.025,9.721.03.411,0,.823.037,1.313.061Z"/><path class="a" d="M301.513,66.939A18.762,18.762,0,1,1,282.8,85.524,18.849,18.849,0,0,1,301.513,66.939Zm1.529,31.218a14.786,14.786,0,0,0-.011-1.708,1.844,1.844,0,0,1,1.288-2.161,6.06,6.06,0,0,0,2.6-8.4c-1.207-2.285-3.223-3.169-5.682-3.369a3.012,3.012,0,0,1-2.806-3.6,3.052,3.052,0,0,1,3.864-2.459c1.509.385,2.062,1.583,2.365,2.943h2.909c.088-1.945-.676-4.121-2.418-4.864-2.092-.891-2.316-2.3-2.141-4.135.006-.065-.08-.138-.15-.252h-2.985a13.6,13.6,0,0,0,.01,1.544,1.943,1.943,0,0,1-1.314,2.3,6.139,6.139,0,0,0-1.252,10.089,7.986,7.986,0,0,0,4.638,1.715,2.985,2.985,0,0,1,2.6,2.948,3.163,3.163,0,0,1-2.449,3.116,3.1,3.1,0,0,1-3.553-1.964c-.126-.341-.212-.7-.3-.994h-3.033c.08,2,.73,3.841,2.4,4.684a3.75,3.75,0,0,1,2.306,4.339c-.008.058.09.13.165.231Z"/><path d="M303.042,98.157h-2.948c-.075-.1-.173-.173-.165-.231a3.75,3.75,0,0,0-2.306-4.339c-1.67-.843-2.32-2.684-2.4-4.684h3.033c.089.3.175.653.3.994a3.1,3.1,0,0,0,3.553,1.964,3.163,3.163,0,0,0,2.449-3.116,2.985,2.985,0,0,0-2.6-2.948,7.986,7.986,0,0,1-4.638-1.715,6.139,6.139,0,0,1,1.252-10.089,1.943,1.943,0,0,0,1.314-2.3,13.6,13.6,0,0,1-.01-1.544h2.985c.07.114.156.187.15.252-.175,1.836.049,3.244,2.141,4.135,1.742.743,2.506,2.919,2.418,4.864h-2.909c-.3-1.36-.856-2.558-2.365-2.943a3.052,3.052,0,0,0-3.864,2.459,3.012,3.012,0,0,0,2.806,3.6c2.459.2,4.475,1.084,5.682,3.369a6.06,6.06,0,0,1-2.6,8.4,1.844,1.844,0,0,0-1.288,2.161A14.786,14.786,0,0,1,303.042,98.157Z"/></g></svg>