<svg xmlns="http://www.w3.org/2000/svg" xmlns:xlink="http://www.w3.org/1999/xlink" width="732" height="681" viewBox="0 0 732 681"><defs><style>.a{fill:#fff;stroke:#707070;}.b{opacity:0.03;clip-path:url(#a);}.c{fill:#f17d14;}.d{fill:#151837;}</style><clipPath id="a"><rect class="a" width="732" height="681" transform="translate(0 87)"/></clipPath></defs><g class="b" transform="translate(0 -87)"><g transform="translate(-266.369 -31.378)"><path class="c" d="M-49.008,456.366a3.508,3.508,0,0,1-.735,2.135.818.818,0,0,1-.245.245l-4.76,4.76-.245.245a3.508,3.508,0,0,1-2.135.735,3.394,3.394,0,0,1-2.38-.98l-7.14-7.14,9.52-9.52,7.14,7.14A3.12,3.12,0,0,1-49.008,456.366Z"/><path class="c" d="M-87.122,418.216a3.307,3.307,0,0,1-.98,2.38l-4.76,4.76a3.366,3.366,0,0,1-2.38.98,3.394,3.394,0,0,1-2.38-.98l-7.14-7.14,9.52-9.519,7.14,7.139A3.457,3.457,0,0,1-87.122,418.216Z"/><path class="d" d="M-4.7,461.511l-19.075,19.075,5.32,5.32,4.2,4.2-2.31,2.345-7.175,7.175-9.52-9.52L-66.613,523.46-100,490.071l14.28-14.28h0l9.519-9.52,14.315,14.315a6.739,6.739,0,0,0,9.52,0l19.075-19.075a6.781,6.781,0,0,0,0-9.555l-23.835-23.835-52.429,52.43-38.15-38.15a20.218,20.218,0,0,1-.245-28.349l19.32-19.32-5.32-5.32h0l-4.2-4.2,9.52-9.52,2.345,2.345,1.89,1.89,5.285,5.32,33.39-33.39,14.314,14.315-52.464,52.394,23.835,23.835a6.781,6.781,0,0,0,9.555,0l19.074-19.075a6.706,6.706,0,0,0,0-9.519l-14.314-14.315,9.554-9.555,14.28-14.28L-4.7,432.846a19.965,19.965,0,0,1,5.88,13.16A20.276,20.276,0,0,1-4.7,461.511Z"/><path class="c" d="M47.9,305.056a3.508,3.508,0,0,1,2.135.735.818.818,0,0,1,.245.245l4.76,4.76.245.245a3.508,3.508,0,0,1,.735,2.135,3.394,3.394,0,0,1-.98,2.38L47.9,322.7l-9.52-9.52,7.14-7.14A3.12,3.12,0,0,1,47.9,305.056Z"/><path class="c" d="M9.751,343.171a3.307,3.307,0,0,1,2.38.98l4.76,4.76a3.38,3.38,0,0,1,0,4.76l-7.14,7.14-9.52-9.52,7.14-7.14A3.457,3.457,0,0,1,9.751,343.171Z"/><path class="d" d="M53.046,260.747,72.12,279.822l5.32-5.32,4.2-4.2,2.345,2.31,7.175,7.175-9.52,9.519L115,322.661l-33.39,33.39-14.279-14.28h0l-9.52-9.52L72.12,317.936a6.739,6.739,0,0,0,0-9.52L53.046,289.341a6.781,6.781,0,0,0-9.555,0L19.656,313.176l52.429,52.43L33.936,403.755A20.219,20.219,0,0,1,5.586,404l-19.32-19.32-5.32,5.32h0l-4.2,4.2-9.519-9.52,2.345-2.345,1.89-1.89,5.319-5.284-33.389-33.39,14.315-14.315L10.1,379.92l23.835-23.834a6.781,6.781,0,0,0,0-9.555L14.861,327.456a6.707,6.707,0,0,0-9.52,0L-8.974,341.771l-9.555-9.555-14.279-14.28,57.189-57.189a19.964,19.964,0,0,1,13.16-5.88A20.276,20.276,0,0,1,53.046,260.747Z"/><path class="c" d="M161.732,245.627a3.508,3.508,0,0,1-.735,2.135.818.818,0,0,1-.245.245l-4.76,4.76-.245.245a3.508,3.508,0,0,1-2.135.735,3.394,3.394,0,0,1-2.38-.98l-7.14-7.14,9.52-9.52,7.14,7.14A3.12,3.12,0,0,1,161.732,245.627Z"/><path class="c" d="M123.617,207.477a3.307,3.307,0,0,1-.98,2.38l-4.76,4.76a3.38,3.38,0,0,1-4.76,0l-7.14-7.14,9.52-9.52,7.14,7.14A3.457,3.457,0,0,1,123.617,207.477Z"/><path class="d" d="M206.041,250.772l-19.075,19.074,5.32,5.32,4.2,4.2-2.31,2.345L187,288.886l-9.52-9.52-33.354,33.355-33.39-33.39,14.28-14.28h0l9.52-9.52,14.315,14.315a6.739,6.739,0,0,0,9.52,0l19.074-19.074a6.781,6.781,0,0,0,0-9.555l-23.834-23.835-52.43,52.429L63.033,231.662a20.219,20.219,0,0,1-.245-28.35l19.319-19.32-5.319-5.32h0l-4.2-4.2,9.519-9.52,2.345,2.345,1.89,1.89,5.285,5.32,33.39-33.389,14.315,14.315L86.867,207.827,110.7,231.662a6.781,6.781,0,0,0,9.555,0l19.075-19.075a6.707,6.707,0,0,0,0-9.52l-14.315-14.315,9.555-9.555,14.28-14.28,57.189,57.19a19.965,19.965,0,0,1,5.88,13.16A20.276,20.276,0,0,1,206.041,250.772Z"/><path class="c" d="M258.64,94.317a3.508,3.508,0,0,1,2.135.735.817.817,0,0,1,.245.245l4.76,4.76.245.245a3.508,3.508,0,0,1,.735,2.135,3.394,3.394,0,0,1-.98,2.38l-7.14,7.14-9.52-9.52,7.14-7.14A3.12,3.12,0,0,1,258.64,94.317Z"/><path class="c" d="M220.491,132.431a3.307,3.307,0,0,1,2.38.98l4.76,4.76a3.38,3.38,0,0,1,0,4.76l-7.14,7.14-9.52-9.52,7.14-7.14A3.457,3.457,0,0,1,220.491,132.431Z"/><path class="d" d="M263.785,50.007,282.86,69.082l5.32-5.32,4.2-4.2,2.345,2.31,7.175,7.175-9.52,9.52,33.354,33.355-33.389,33.389-14.28-14.28h0l-9.52-9.519L282.86,107.2a6.739,6.739,0,0,0,0-9.52L263.785,78.6a6.781,6.781,0,0,0-9.555,0L230.4,102.437l52.43,52.429-38.15,38.15a20.218,20.218,0,0,1-28.349.245l-19.32-19.32-5.32,5.32h0l-4.2,4.2-9.52-9.52,2.345-2.345,1.89-1.89,5.32-5.285-33.39-33.39,14.315-14.314,52.4,52.464,23.834-23.835a6.781,6.781,0,0,0,0-9.555L225.6,116.717a6.707,6.707,0,0,0-9.52,0l-14.315,14.314-9.555-9.554-14.28-14.28,57.189-57.19a19.965,19.965,0,0,1,13.16-5.88A20.276,20.276,0,0,1,263.785,50.007Z"/><path class="c" d="M372.471,34.887a3.508,3.508,0,0,1-.735,2.135.818.818,0,0,1-.245.245l-4.76,4.76-.245.245a3.508,3.508,0,0,1-2.135.735,3.394,3.394,0,0,1-2.38-.98l-7.14-7.14,9.52-9.52,7.14,7.14A3.12,3.12,0,0,1,372.471,34.887Z"/><path class="c" d="M334.356-3.262a3.307,3.307,0,0,1-.98,2.38l-4.759,4.759a3.366,3.366,0,0,1-2.38.98,3.394,3.394,0,0,1-2.38-.98l-7.14-7.139,9.52-9.52,7.14,7.14A3.46,3.46,0,0,1,334.356-3.262Z"/><path class="d" d="M416.781,40.032,397.706,59.107l5.32,5.32,4.2,4.2-2.31,2.345-7.175,7.175-9.52-9.52-33.355,33.354L321.477,68.592l14.279-14.28h0l9.52-9.52,14.315,14.315a6.739,6.739,0,0,0,9.52,0l19.075-19.075a6.781,6.781,0,0,0,0-9.555L364.351,6.642l-52.429,52.43-38.15-38.15a20.218,20.218,0,0,1-.245-28.349l19.32-19.32-5.32-5.32h0l-4.2-4.2,9.52-9.52,2.345,2.345,1.89,1.89,5.285,5.32,33.389-33.39,14.315,14.315L297.607-2.912l23.835,23.834a6.781,6.781,0,0,0,9.555,0L350.071,1.847a6.706,6.706,0,0,0,0-9.519L335.756-21.987l9.555-9.555,14.28-14.28,57.19,57.189a19.965,19.965,0,0,1,5.88,13.16A20.276,20.276,0,0,1,416.781,40.032Z"/><path class="c" d="M47.877,515.883a3.508,3.508,0,0,1,2.135.735.818.818,0,0,1,.245.245l4.76,4.76.245.245A3.508,3.508,0,0,1,56,524a3.394,3.394,0,0,1-.98,2.38l-7.14,7.14L38.357,524l7.14-7.14A3.121,3.121,0,0,1,47.877,515.883Z"/><path class="c" d="M9.728,554a3.307,3.307,0,0,1,2.38.98l4.76,4.76a3.38,3.38,0,0,1,0,4.76l-7.14,7.14-9.52-9.52,7.14-7.14A3.457,3.457,0,0,1,9.728,554Z"/><path class="d" d="M53.022,471.574,72.1,490.649l5.32-5.32,4.2-4.2,2.345,2.31,7.175,7.175-9.52,9.52,33.355,33.354-33.39,33.39L67.3,552.6h0l-9.52-9.52L72.1,528.763a6.739,6.739,0,0,0,0-9.52L53.022,500.169a6.781,6.781,0,0,0-9.555,0L19.633,524l52.429,52.43-38.15,38.149a20.218,20.218,0,0,1-28.349.245l-19.32-19.319-5.32,5.32h0l-4.2,4.2-9.52-9.519,2.345-2.345,1.89-1.89,5.32-5.285-33.39-33.39,14.315-14.315,52.4,52.465,23.834-23.835a6.781,6.781,0,0,0,0-9.555L14.838,538.283a6.707,6.707,0,0,0-9.52,0L-9,552.6l-9.555-9.555-14.28-14.28,57.19-57.189a19.962,19.962,0,0,1,13.159-5.88A20.276,20.276,0,0,1,53.022,471.574Z"/><path class="c" d="M161.708,456.407a3.508,3.508,0,0,1-.735,2.135.817.817,0,0,1-.245.245l-4.76,4.76-.245.245a3.508,3.508,0,0,1-2.135.735,3.394,3.394,0,0,1-2.38-.98l-7.14-7.14,9.52-9.52,7.14,7.14A3.12,3.12,0,0,1,161.708,456.407Z"/><path class="c" d="M123.594,418.257a3.307,3.307,0,0,1-.98,2.38l-4.76,4.76a3.38,3.38,0,0,1-4.76,0l-7.14-7.14,9.52-9.52,7.14,7.14A3.457,3.457,0,0,1,123.594,418.257Z"/><path class="d" d="M206.018,461.552l-19.075,19.075,5.32,5.32,4.2,4.2-2.31,2.345-7.175,7.175-9.52-9.52L144.1,523.5l-33.389-33.389,14.28-14.28h0l9.52-9.52,14.314,14.315a6.739,6.739,0,0,0,9.52,0l19.075-19.075a6.781,6.781,0,0,0,0-9.555l-23.835-23.835-52.429,52.43-38.15-38.15a20.219,20.219,0,0,1-.245-28.35l19.32-19.319-5.32-5.32h0l-4.2-4.2,9.52-9.52,2.345,2.345,1.89,1.89,5.285,5.32,33.39-33.39,14.314,14.315L86.844,418.607l23.835,23.835a6.781,6.781,0,0,0,9.555,0l19.074-19.075a6.707,6.707,0,0,0,0-9.52l-14.314-14.314,9.554-9.555,14.28-14.28,57.19,57.189a19.965,19.965,0,0,1,5.88,13.16A20.276,20.276,0,0,1,206.018,461.552Z"/><path class="c" d="M258.617,305.144a3.508,3.508,0,0,1,2.135.735.818.818,0,0,1,.245.245l4.76,4.76.245.245a3.508,3.508,0,0,1,.735,2.135,3.394,3.394,0,0,1-.98,2.38l-7.14,7.14-9.52-9.52,7.14-7.14A3.12,3.12,0,0,1,258.617,305.144Z"/><path class="c" d="M220.467,343.259a3.307,3.307,0,0,1,2.38.98l4.76,4.76a3.379,3.379,0,0,1,0,4.759l-7.14,7.14-9.52-9.52,7.14-7.139A3.457,3.457,0,0,1,220.467,343.259Z"/><path class="d" d="M263.762,260.834l19.075,19.075,5.319-5.32,4.2-4.2,2.345,2.31,7.175,7.175-9.52,9.52,33.355,33.355-33.39,33.389-14.279-14.279h0l-9.52-9.52,14.315-14.315a6.741,6.741,0,0,0,0-9.52l-19.075-19.075a6.781,6.781,0,0,0-9.555,0l-23.835,23.835,52.43,52.429-38.15,38.15a20.219,20.219,0,0,1-28.35.245l-19.32-19.32-5.32,5.32h0l-4.2,4.2-9.52-9.52,2.345-2.345,1.89-1.89,5.32-5.285-33.39-33.389,14.315-14.315,52.394,52.464,23.835-23.835a6.78,6.78,0,0,0,0-9.554l-19.075-19.075a6.707,6.707,0,0,0-9.52,0l-14.315,14.315-9.555-9.555-14.279-14.28,57.189-57.19a19.968,19.968,0,0,1,13.16-5.879A20.275,20.275,0,0,1,263.762,260.834Z"/><path class="c" d="M372.448,245.667a3.508,3.508,0,0,1-.735,2.135.818.818,0,0,1-.245.245l-4.76,4.76-.245.245a3.508,3.508,0,0,1-2.135.735,3.394,3.394,0,0,1-2.38-.98l-7.14-7.139,9.52-9.52,7.14,7.14A3.118,3.118,0,0,1,372.448,245.667Z"/><path class="c" d="M334.333,207.518a3.307,3.307,0,0,1-.98,2.38l-4.76,4.76a3.38,3.38,0,0,1-4.76,0l-7.14-7.14,9.52-9.52,7.14,7.14A3.457,3.457,0,0,1,334.333,207.518Z"/><path class="d" d="M416.757,250.812l-19.075,19.075,5.32,5.32,4.2,4.2-2.31,2.345-7.175,7.175-9.519-9.52-33.355,33.355-33.39-33.39,14.28-14.28h0l9.52-9.52,14.315,14.315a6.739,6.739,0,0,0,9.52,0l19.075-19.075a6.782,6.782,0,0,0,0-9.554l-23.835-23.835L311.9,269.852,273.749,231.7a20.219,20.219,0,0,1-.245-28.35l19.32-19.32-5.32-5.32h0l-4.2-4.2,9.52-9.52,2.345,2.345,1.889,1.89,5.285,5.32,33.39-33.389,14.315,14.314-52.465,52.395L321.418,231.7a6.781,6.781,0,0,0,9.555,0l19.075-19.075a6.707,6.707,0,0,0,0-9.52l-14.315-14.315,9.555-9.555,14.28-14.28,57.189,57.19a19.964,19.964,0,0,1,5.88,13.16A20.274,20.274,0,0,1,416.757,250.812Z"/><path class="c" d="M469.356,94.4a3.513,3.513,0,0,1,2.135.734.818.818,0,0,1,.245.245l4.76,4.76.245.245a3.508,3.508,0,0,1,.735,2.135,3.394,3.394,0,0,1-.98,2.38l-7.14,7.14-9.52-9.52,7.14-7.14A3.123,3.123,0,0,1,469.356,94.4Z"/><path class="c" d="M431.207,132.519a3.307,3.307,0,0,1,2.38.98l4.76,4.76a3.38,3.38,0,0,1,0,4.76l-7.14,7.14-9.52-9.52,7.14-7.14A3.457,3.457,0,0,1,431.207,132.519Z"/><path class="d" d="M474.5,50.1,493.576,69.17l5.32-5.32,4.2-4.2,2.345,2.31,7.175,7.175-9.52,9.52,33.355,33.354-33.39,33.39-14.28-14.28h0l-9.52-9.52,14.315-14.315a6.739,6.739,0,0,0,0-9.52L474.5,78.69a6.781,6.781,0,0,0-9.555,0l-23.834,23.834,52.429,52.43L455.391,193.1a20.218,20.218,0,0,1-28.349.245l-19.32-19.319-5.32,5.32h0l-4.2,4.2-9.52-9.52,2.345-2.345,1.89-1.89,5.32-5.285-33.39-33.39L379.162,116.8l52.4,52.465,23.834-23.835a6.781,6.781,0,0,0,0-9.555L436.317,116.8a6.707,6.707,0,0,0-9.52,0l-14.315,14.315-9.555-9.555-14.28-14.28L445.836,50.1A19.964,19.964,0,0,1,459,44.215,20.276,20.276,0,0,1,474.5,50.1Z"/><path class="c" d="M161.732,667.106A3.505,3.505,0,0,1,161,669.24a.818.818,0,0,1-.245.245l-4.76,4.76-.245.245a3.508,3.508,0,0,1-2.135.735,3.394,3.394,0,0,1-2.38-.98l-7.14-7.139,9.52-9.52,7.14,7.14A3.12,3.12,0,0,1,161.732,667.106Z"/><path class="c" d="M123.617,628.956a3.307,3.307,0,0,1-.98,2.38l-4.76,4.76a3.38,3.38,0,0,1-4.76,0l-7.14-7.14,9.52-9.52,7.14,7.14A3.457,3.457,0,0,1,123.617,628.956Z"/><path class="d" d="M206.041,672.25l-19.075,19.075,5.32,5.32,4.2,4.2-2.31,2.345L187,710.365l-9.52-9.52L144.127,734.2l-33.39-33.39,14.28-14.28h0l9.52-9.52,14.315,14.315a6.739,6.739,0,0,0,9.52,0l19.074-19.075a6.78,6.78,0,0,0,0-9.554l-23.834-23.835-52.43,52.429L63.033,653.141a20.219,20.219,0,0,1-.245-28.35l19.319-19.32-5.319-5.32h0l-4.2-4.2,9.519-9.52,2.345,2.345,1.89,1.89,5.285,5.32,33.39-33.389,14.315,14.314-52.465,52.4L110.7,653.141a6.781,6.781,0,0,0,9.555,0l19.075-19.075a6.707,6.707,0,0,0,0-9.52l-14.315-14.315,9.555-9.555,14.28-14.28,57.189,57.19a19.965,19.965,0,0,1,5.88,13.16A20.273,20.273,0,0,1,206.041,672.25Z"/><path class="c" d="M258.658,515.86a3.508,3.508,0,0,1,2.135.735.817.817,0,0,1,.245.245l4.76,4.76.245.245a3.508,3.508,0,0,1,.735,2.135,3.394,3.394,0,0,1-.98,2.38l-7.14,7.14-9.52-9.52,7.14-7.14A3.12,3.12,0,0,1,258.658,515.86Z"/><path class="c" d="M220.508,553.975a3.307,3.307,0,0,1,2.38.98l4.76,4.76a3.38,3.38,0,0,1,0,4.76l-7.14,7.139-9.52-9.519,7.14-7.14A3.457,3.457,0,0,1,220.508,553.975Z"/><path class="d" d="M263.8,471.55l19.074,19.075,5.32-5.32,4.2-4.2,2.345,2.31,7.175,7.175-9.52,9.52,33.355,33.355-33.39,33.389-14.28-14.279h0l-9.519-9.52,14.314-14.315a6.739,6.739,0,0,0,0-9.52L263.8,500.145a6.781,6.781,0,0,0-9.555,0L230.413,523.98l52.429,52.429-38.149,38.15a20.219,20.219,0,0,1-28.35.245l-19.32-19.32-5.32,5.32h0l-4.2,4.2-9.519-9.52,2.345-2.345,1.889-1.89,5.32-5.285-33.389-33.389,14.315-14.315,52.394,52.464,23.835-23.835a6.78,6.78,0,0,0,0-9.554L225.618,538.26a6.707,6.707,0,0,0-9.52,0l-14.315,14.315-9.555-9.555-14.279-14.28,57.189-57.189a19.965,19.965,0,0,1,13.16-5.88A20.279,20.279,0,0,1,263.8,471.55Z"/><path class="c" d="M372.471,456.366a3.508,3.508,0,0,1-.735,2.135.818.818,0,0,1-.245.245l-4.76,4.76-.245.245a3.508,3.508,0,0,1-2.135.735,3.394,3.394,0,0,1-2.38-.98l-7.14-7.14,9.52-9.52,7.14,7.14A3.12,3.12,0,0,1,372.471,456.366Z"/><path class="c" d="M334.356,418.216a3.307,3.307,0,0,1-.98,2.38l-4.759,4.76a3.38,3.38,0,0,1-4.76,0l-7.14-7.14,9.52-9.519,7.14,7.139A3.46,3.46,0,0,1,334.356,418.216Z"/><path class="d" d="M416.781,461.511l-19.075,19.075,5.32,5.32,4.2,4.2-2.31,2.345-7.175,7.175-9.52-9.52L354.866,523.46l-33.389-33.389,14.279-14.28h0l9.52-9.52,14.315,14.315a6.739,6.739,0,0,0,9.52,0l19.075-19.075a6.781,6.781,0,0,0,0-9.555l-23.835-23.835-52.429,52.43-38.15-38.15a20.218,20.218,0,0,1-.245-28.349l19.32-19.32-5.32-5.32h0l-4.2-4.2,9.52-9.52,2.345,2.345,1.89,1.89,5.285,5.32,33.389-33.39,14.315,14.315-52.464,52.394L321.442,442.4a6.781,6.781,0,0,0,9.555,0l19.074-19.075a6.706,6.706,0,0,0,0-9.519l-14.315-14.315,9.555-9.555,14.28-14.28,57.19,57.189a19.965,19.965,0,0,1,5.88,13.16A20.276,20.276,0,0,1,416.781,461.511Z"/><path class="c" d="M469.4,305.121a3.508,3.508,0,0,1,2.135.735.818.818,0,0,1,.245.245l4.76,4.759.245.245a3.508,3.508,0,0,1,.735,2.135,3.394,3.394,0,0,1-.98,2.38l-7.14,7.14-9.52-9.52,7.14-7.139A3.12,3.12,0,0,1,469.4,305.121Z"/><path class="c" d="M431.248,343.235a3.307,3.307,0,0,1,2.38.98l4.759,4.76a3.38,3.38,0,0,1,0,4.76l-7.139,7.14-9.52-9.52,7.14-7.14A3.457,3.457,0,0,1,431.248,343.235Z"/><path class="d" d="M474.542,260.811l19.075,19.075,5.32-5.32,4.2-4.2,2.345,2.31,7.175,7.175-9.52,9.52,33.354,33.354L503.1,356.115l-14.28-14.28h0l-9.52-9.52L493.617,318a6.737,6.737,0,0,0,0-9.519l-19.075-19.075a6.781,6.781,0,0,0-9.555,0L441.152,313.24l52.43,52.43-38.15,38.15a20.22,20.22,0,0,1-28.349.245l-19.32-19.32-5.32,5.32h0l-4.2,4.2-9.52-9.52,2.345-2.345,1.89-1.89,5.32-5.285-33.39-33.39L379.2,327.52,431.6,379.985l23.834-23.835a6.781,6.781,0,0,0,0-9.555L436.357,327.52a6.706,6.706,0,0,0-9.519,0l-14.315,14.315-9.555-9.555L388.688,318l57.189-57.189a19.964,19.964,0,0,1,13.16-5.88A20.276,20.276,0,0,1,474.542,260.811Z"/><path class="c" d="M583.211,245.627a3.508,3.508,0,0,1-.735,2.135.818.818,0,0,1-.245.245l-4.76,4.76-.245.245a3.508,3.508,0,0,1-2.135.735,3.394,3.394,0,0,1-2.38-.98l-7.14-7.14,9.52-9.52,7.14,7.14A3.121,3.121,0,0,1,583.211,245.627Z"/><path class="c" d="M545.1,207.477a3.307,3.307,0,0,1-.98,2.38l-4.76,4.76a3.38,3.38,0,0,1-4.76,0l-7.14-7.14,9.52-9.52,7.14,7.14A3.457,3.457,0,0,1,545.1,207.477Z"/><path class="d" d="M627.52,250.772l-19.075,19.074,5.32,5.32,4.2,4.2-2.31,2.345-7.175,7.175-9.52-9.52-33.354,33.355-33.39-33.39,14.28-14.28h0l9.52-9.52,14.315,14.315a6.739,6.739,0,0,0,9.52,0l19.074-19.074a6.781,6.781,0,0,0,0-9.555l-23.834-23.835-52.43,52.429-38.149-38.149a20.219,20.219,0,0,1-.245-28.35l19.319-19.32-5.32-5.32h0l-4.2-4.2,9.52-9.52,2.345,2.345,1.89,1.89,5.285,5.32,33.39-33.389,14.315,14.315-52.465,52.394,23.835,23.835a6.781,6.781,0,0,0,9.555,0l19.075-19.075a6.707,6.707,0,0,0,0-9.52L546.5,188.752l9.555-9.555,14.28-14.28,57.189,57.19a19.965,19.965,0,0,1,5.88,13.16A20.276,20.276,0,0,1,627.52,250.772Z"/><path class="c" d="M258.617,726.623a3.508,3.508,0,0,1,2.135.735.818.818,0,0,1,.245.245l4.76,4.76.245.245a3.508,3.508,0,0,1,.735,2.135,3.394,3.394,0,0,1-.98,2.38l-7.14,7.14-9.52-9.52,7.14-7.14A3.12,3.12,0,0,1,258.617,726.623Z"/><path class="c" d="M220.467,764.737a3.307,3.307,0,0,1,2.38.98l4.76,4.76a3.38,3.38,0,0,1,0,4.76l-7.14,7.14-9.52-9.52,7.14-7.14A3.457,3.457,0,0,1,220.467,764.737Z"/><path class="d" d="M263.762,682.313l19.075,19.075,5.319-5.32,4.2-4.2,2.345,2.31,7.175,7.175-9.52,9.52,33.355,33.355-33.39,33.389-14.279-14.28h0l-9.52-9.519L282.837,739.5a6.741,6.741,0,0,0,0-9.52l-19.075-19.075a6.781,6.781,0,0,0-9.555,0l-23.835,23.835,52.43,52.429-38.15,38.15a20.219,20.219,0,0,1-28.35.245l-19.32-19.32-5.32,5.32h0l-4.2,4.2-9.52-9.52,2.345-2.345,1.89-1.89,5.32-5.285-33.39-33.39,14.315-14.314,52.394,52.464,23.835-23.835a6.781,6.781,0,0,0,0-9.555l-19.075-19.074a6.707,6.707,0,0,0-9.52,0l-14.315,14.315-9.555-9.555L177.908,739.5l57.189-57.19a19.965,19.965,0,0,1,13.16-5.88A20.276,20.276,0,0,1,263.762,682.313Z"/><path class="c" d="M372.448,667.146a3.508,3.508,0,0,1-.735,2.135.818.818,0,0,1-.245.245l-4.76,4.76-.245.245a3.508,3.508,0,0,1-2.135.735,3.394,3.394,0,0,1-2.38-.98l-7.14-7.14,9.52-9.519,7.14,7.139A3.12,3.12,0,0,1,372.448,667.146Z"/><path class="c" d="M334.333,629a3.307,3.307,0,0,1-.98,2.38l-4.76,4.76a3.38,3.38,0,0,1-4.76,0l-7.14-7.14,9.52-9.52,7.14,7.14A3.457,3.457,0,0,1,334.333,629Z"/><path class="d" d="M416.757,672.291l-19.075,19.075,5.32,5.32,4.2,4.2-2.31,2.345-7.175,7.175-9.519-9.52-33.355,33.355-33.39-33.39,14.28-14.28h0l9.52-9.52,14.315,14.315a6.739,6.739,0,0,0,9.52,0l19.075-19.075a6.783,6.783,0,0,0,0-9.555L364.328,638.9,311.9,691.331l-38.149-38.149a20.22,20.22,0,0,1-.245-28.35l19.32-19.32-5.32-5.32h0l-4.2-4.2,9.52-9.52,2.345,2.345,1.889,1.89,5.285,5.32,33.39-33.389,14.315,14.314-52.465,52.395,23.835,23.835a6.781,6.781,0,0,0,9.555,0l19.075-19.075a6.707,6.707,0,0,0,0-9.52l-14.315-14.315,9.555-9.555,14.28-14.28,57.189,57.19a19.964,19.964,0,0,1,5.88,13.16A20.275,20.275,0,0,1,416.757,672.291Z"/><path class="c" d="M469.356,515.883a3.508,3.508,0,0,1,2.135.735.818.818,0,0,1,.245.245l4.76,4.76.245.245a3.508,3.508,0,0,1,.735,2.135,3.394,3.394,0,0,1-.98,2.38l-7.14,7.14-9.52-9.52,7.14-7.14A3.12,3.12,0,0,1,469.356,515.883Z"/><path class="c" d="M431.207,554a3.307,3.307,0,0,1,2.38.98l4.76,4.76a3.38,3.38,0,0,1,0,4.76l-7.14,7.14-9.52-9.52,7.14-7.14A3.457,3.457,0,0,1,431.207,554Z"/><path class="d" d="M474.5,471.574l19.075,19.075,5.32-5.32,4.2-4.2,2.345,2.31,7.175,7.175-9.52,9.52,33.355,33.354-33.39,33.39-14.28-14.28h0l-9.52-9.52,14.315-14.315a6.739,6.739,0,0,0,0-9.52L474.5,500.169a6.781,6.781,0,0,0-9.555,0L441.112,524l52.429,52.43-38.15,38.149a20.218,20.218,0,0,1-28.349.245l-19.32-19.319-5.32,5.32h0l-4.2,4.2-9.52-9.519,2.345-2.345,1.89-1.89,5.32-5.285-33.39-33.39,14.315-14.315,52.4,52.465,23.834-23.835a6.781,6.781,0,0,0,0-9.555l-19.074-19.075a6.707,6.707,0,0,0-9.52,0L412.482,552.6l-9.555-9.555-14.28-14.28,57.189-57.189a19.964,19.964,0,0,1,13.16-5.88A20.276,20.276,0,0,1,474.5,471.574Z"/><path class="c" d="M583.187,456.407a3.508,3.508,0,0,1-.735,2.135.817.817,0,0,1-.245.245l-4.76,4.76-.245.245a3.508,3.508,0,0,1-2.135.735,3.394,3.394,0,0,1-2.38-.98l-7.14-7.14,9.52-9.52,7.14,7.14A3.12,3.12,0,0,1,583.187,456.407Z"/><path class="c" d="M545.073,418.257a3.307,3.307,0,0,1-.98,2.38l-4.76,4.76a3.38,3.38,0,0,1-4.76,0l-7.14-7.14,9.52-9.52,7.14,7.14A3.457,3.457,0,0,1,545.073,418.257Z"/><path class="d" d="M627.5,461.552l-19.075,19.075,5.32,5.32,4.2,4.2-2.31,2.345-7.175,7.175-9.52-9.52L565.582,523.5l-33.389-33.389,14.28-14.28h0l9.519-9.52,14.315,14.315a6.739,6.739,0,0,0,9.52,0L598.9,461.552a6.781,6.781,0,0,0,0-9.555l-23.835-23.835-52.429,52.43-38.15-38.15a20.219,20.219,0,0,1-.245-28.35l19.32-19.319-5.32-5.32h0l-4.2-4.2,9.52-9.52,2.345,2.345,1.89,1.89,5.285,5.32,33.39-33.39,14.314,14.315-52.464,52.394,23.835,23.835a6.781,6.781,0,0,0,9.555,0l19.074-19.075a6.707,6.707,0,0,0,0-9.52l-14.314-14.314,9.554-9.555,14.28-14.28,57.19,57.189a19.965,19.965,0,0,1,5.88,13.16A20.276,20.276,0,0,1,627.5,461.552Z"/><path class="c" d="M680.1,305.144a3.508,3.508,0,0,1,2.135.735.818.818,0,0,1,.245.245l4.76,4.76.245.245a3.508,3.508,0,0,1,.735,2.135,3.394,3.394,0,0,1-.98,2.38l-7.14,7.14-9.52-9.52,7.14-7.14A3.12,3.12,0,0,1,680.1,305.144Z"/><path class="c" d="M641.946,343.259a3.307,3.307,0,0,1,2.38.98l4.76,4.76a3.379,3.379,0,0,1,0,4.759l-7.14,7.14-9.52-9.52,7.14-7.139A3.457,3.457,0,0,1,641.946,343.259Z"/><path class="d" d="M685.241,260.834l19.074,19.075,5.32-5.32,4.2-4.2,2.345,2.31,7.175,7.175-9.52,9.52,33.355,33.355L713.8,356.138l-14.279-14.279h0l-9.52-9.52,14.314-14.315a6.739,6.739,0,0,0,0-9.52l-19.074-19.075a6.781,6.781,0,0,0-9.555,0l-23.835,23.835,52.429,52.429-38.149,38.15a20.219,20.219,0,0,1-28.35.245l-19.32-19.32-5.32,5.32h0l-4.2,4.2-9.519-9.52,2.345-2.345,1.89-1.89,5.319-5.285-33.389-33.389L589.9,327.544,642.3,380.008l23.835-23.835a6.78,6.78,0,0,0,0-9.554l-19.075-19.075a6.707,6.707,0,0,0-9.52,0l-14.315,14.315-9.555-9.555-14.279-14.28,57.189-57.19a19.968,19.968,0,0,1,13.16-5.879A20.275,20.275,0,0,1,685.241,260.834Z"/><path class="c" d="M372.471,877.845a3.508,3.508,0,0,1-.735,2.135.817.817,0,0,1-.245.245l-4.76,4.76-.245.245a3.508,3.508,0,0,1-2.135.735,3.394,3.394,0,0,1-2.38-.98l-7.14-7.14,9.52-9.52,7.14,7.14A3.12,3.12,0,0,1,372.471,877.845Z"/><path class="c" d="M334.356,839.7a3.308,3.308,0,0,1-.98,2.38l-4.759,4.76a3.38,3.38,0,0,1-4.76,0l-7.14-7.14,9.52-9.52,7.14,7.14A3.46,3.46,0,0,1,334.356,839.7Z"/><path class="d" d="M416.781,882.99l-19.075,19.075,5.32,5.32,4.2,4.2-2.31,2.345-7.175,7.175-9.52-9.52-33.355,33.354L321.477,911.55l14.279-14.28h0l9.52-9.52,14.315,14.315a6.739,6.739,0,0,0,9.52,0l19.075-19.075a6.781,6.781,0,0,0,0-9.555L364.351,849.6l-52.429,52.43-38.15-38.15a20.219,20.219,0,0,1-.245-28.35l19.32-19.319-5.32-5.32h0l-4.2-4.2,9.52-9.52,2.345,2.345,1.89,1.89,5.285,5.32,33.389-33.39,14.315,14.315-52.464,52.394,23.835,23.835a6.781,6.781,0,0,0,9.555,0L350.071,844.8a6.707,6.707,0,0,0,0-9.52l-14.315-14.314,9.555-9.555,14.28-14.28,57.19,57.189a19.965,19.965,0,0,1,5.88,13.16A20.276,20.276,0,0,1,416.781,882.99Z"/><path class="c" d="M469.4,726.6a3.508,3.508,0,0,1,2.135.735.818.818,0,0,1,.245.245l4.76,4.76.245.245a3.508,3.508,0,0,1,.735,2.135,3.394,3.394,0,0,1-.98,2.38l-7.14,7.14-9.52-9.52,7.14-7.14A3.121,3.121,0,0,1,469.4,726.6Z"/><path class="c" d="M431.248,764.714a3.307,3.307,0,0,1,2.38.98l4.759,4.76a3.38,3.38,0,0,1,0,4.76l-7.139,7.14-9.52-9.52,7.14-7.14A3.457,3.457,0,0,1,431.248,764.714Z"/><path class="d" d="M474.542,682.29l19.075,19.075,5.32-5.32,4.2-4.2,2.345,2.31,7.175,7.175-9.52,9.52L536.491,744.2,503.1,777.594l-14.28-14.28h0l-9.52-9.52,14.315-14.315a6.739,6.739,0,0,0,0-9.52l-19.075-19.074a6.781,6.781,0,0,0-9.555,0l-23.835,23.834,52.43,52.43L455.432,825.3a20.218,20.218,0,0,1-28.349.245l-19.32-19.319-5.32,5.32h0l-4.2,4.2-9.52-9.52,2.345-2.345,1.89-1.89,5.32-5.285-33.39-33.39L379.2,749,431.6,801.464l23.834-23.835a6.781,6.781,0,0,0,0-9.555L436.357,749a6.706,6.706,0,0,0-9.519,0l-14.315,14.315-9.555-9.555-14.28-14.28,57.189-57.189a19.965,19.965,0,0,1,13.16-5.88A20.276,20.276,0,0,1,474.542,682.29Z"/><path class="c" d="M583.211,667.106a3.505,3.505,0,0,1-.735,2.134.818.818,0,0,1-.245.245l-4.76,4.76-.245.245a3.508,3.508,0,0,1-2.135.735,3.394,3.394,0,0,1-2.38-.98l-7.14-7.139,9.52-9.52,7.14,7.14A3.121,3.121,0,0,1,583.211,667.106Z"/><path class="c" d="M545.1,628.956a3.307,3.307,0,0,1-.98,2.38l-4.76,4.76a3.38,3.38,0,0,1-4.76,0l-7.14-7.14,9.52-9.52,7.14,7.14A3.457,3.457,0,0,1,545.1,628.956Z"/><path class="d" d="M627.52,672.25l-19.075,19.075,5.32,5.32,4.2,4.2-2.31,2.345-7.175,7.175-9.52-9.52L565.606,734.2l-33.39-33.39,14.28-14.28h0l9.52-9.52,14.315,14.315a6.739,6.739,0,0,0,9.52,0l19.074-19.075a6.78,6.78,0,0,0,0-9.554l-23.834-23.835-52.43,52.429-38.149-38.149a20.219,20.219,0,0,1-.245-28.35l19.319-19.32-5.32-5.32h0l-4.2-4.2,9.52-9.52,2.345,2.345,1.89,1.89,5.285,5.32L546.5,562.6l14.315,14.314-52.465,52.4,23.835,23.835a6.781,6.781,0,0,0,9.555,0l19.075-19.075a6.707,6.707,0,0,0,0-9.52L546.5,610.231l9.555-9.555,14.28-14.28,57.189,57.19a19.965,19.965,0,0,1,5.88,13.16A20.273,20.273,0,0,1,627.52,672.25Z"/><path class="c" d="M680.137,515.86a3.508,3.508,0,0,1,2.135.735.817.817,0,0,1,.245.245l4.76,4.76.245.245a3.508,3.508,0,0,1,.735,2.135,3.394,3.394,0,0,1-.98,2.38l-7.14,7.14-9.52-9.52,7.14-7.14A3.12,3.12,0,0,1,680.137,515.86Z"/><path class="c" d="M641.987,553.975a3.307,3.307,0,0,1,2.38.98l4.76,4.76a3.38,3.38,0,0,1,0,4.76l-7.14,7.139-9.52-9.519,7.14-7.14A3.457,3.457,0,0,1,641.987,553.975Z"/><path class="d" d="M685.282,471.55l19.074,19.075,5.32-5.32,4.2-4.2,2.345,2.31,7.175,7.175-9.52,9.52,33.355,33.355-33.39,33.389-14.28-14.279h0l-9.52-9.52,14.315-14.315a6.739,6.739,0,0,0,0-9.52l-19.074-19.075a6.781,6.781,0,0,0-9.555,0L651.892,523.98l52.429,52.429-38.149,38.15a20.219,20.219,0,0,1-28.35.245l-19.32-19.32-5.32,5.32h0l-4.2,4.2-9.52-9.52,2.345-2.345,1.89-1.89,5.32-5.285-33.389-33.389,14.315-14.315,52.394,52.464,23.835-23.835a6.78,6.78,0,0,0,0-9.554L647.1,538.26a6.707,6.707,0,0,0-9.52,0l-14.315,14.315-9.555-9.555-14.28-14.28,57.19-57.189a19.965,19.965,0,0,1,13.16-5.88A20.279,20.279,0,0,1,685.282,471.55Z"/><path class="c" d="M793.95,456.366a3.508,3.508,0,0,1-.735,2.135.818.818,0,0,1-.245.245l-4.76,4.76-.245.245a3.508,3.508,0,0,1-2.135.735,3.394,3.394,0,0,1-2.38-.98l-7.14-7.14,9.52-9.52,7.14,7.14A3.12,3.12,0,0,1,793.95,456.366Z"/><path class="c" d="M755.835,418.216a3.307,3.307,0,0,1-.98,2.38l-4.76,4.76a3.379,3.379,0,0,1-4.759,0l-7.14-7.14,9.52-9.519,7.139,7.139A3.457,3.457,0,0,1,755.835,418.216Z"/><path class="d" d="M838.26,461.511l-19.075,19.075,5.32,5.32,4.2,4.2-2.31,2.345-7.175,7.175-9.52-9.52L776.345,523.46l-33.389-33.389,14.279-14.28h0l9.52-9.52,14.315,14.315a6.739,6.739,0,0,0,9.52,0l19.075-19.075a6.781,6.781,0,0,0,0-9.555L785.83,428.121,733.4,480.551l-38.15-38.15a20.218,20.218,0,0,1-.245-28.349l19.32-19.32-5.32-5.32h0l-4.2-4.2,9.52-9.52,2.345,2.345,1.89,1.89,5.285,5.32,33.389-33.39,14.315,14.315-52.464,52.394L742.921,442.4a6.78,6.78,0,0,0,9.554,0l19.075-19.075a6.706,6.706,0,0,0,0-9.519l-14.315-14.315,9.555-9.555,14.28-14.28,57.19,57.189a19.968,19.968,0,0,1,5.879,13.16A20.275,20.275,0,0,1,838.26,461.511Z"/><path class="c" d="M469.356,937.362a3.508,3.508,0,0,1,2.135.735.818.818,0,0,1,.245.245l4.76,4.76.245.245a3.508,3.508,0,0,1,.735,2.135,3.394,3.394,0,0,1-.98,2.38l-7.14,7.14-9.52-9.52,7.14-7.14A3.12,3.12,0,0,1,469.356,937.362Z"/><path class="c" d="M431.207,975.477a3.307,3.307,0,0,1,2.38.98l4.76,4.76a3.38,3.38,0,0,1,0,4.76l-7.14,7.14-9.52-9.52,7.14-7.14A3.457,3.457,0,0,1,431.207,975.477Z"/><path class="d" d="M474.5,893.053l19.075,19.075,5.32-5.32,4.2-4.2,2.345,2.31,7.175,7.175-9.52,9.52,33.355,33.354-33.39,33.39-14.28-14.28h0l-9.52-9.52,14.315-14.315a6.739,6.739,0,0,0,0-9.52L474.5,921.648a6.781,6.781,0,0,0-9.555,0l-23.834,23.834,52.429,52.43-38.15,38.149a20.218,20.218,0,0,1-28.349.245l-19.32-19.319-5.32,5.319h0l-4.2,4.2-9.52-9.519,2.345-2.345,1.89-1.89,5.32-5.285-33.39-33.39,14.315-14.315,52.4,52.465,23.834-23.835a6.781,6.781,0,0,0,0-9.555l-19.074-19.075a6.707,6.707,0,0,0-9.52,0l-14.315,14.315-9.555-9.555-14.28-14.28,57.189-57.189a19.965,19.965,0,0,1,13.16-5.88A20.276,20.276,0,0,1,474.5,893.053Z"/><path class="c" d="M583.187,877.886a3.508,3.508,0,0,1-.735,2.135.818.818,0,0,1-.245.245l-4.76,4.76-.245.245a3.508,3.508,0,0,1-2.135.735,3.394,3.394,0,0,1-2.38-.98l-7.14-7.14,9.52-9.52,7.14,7.14A3.12,3.12,0,0,1,583.187,877.886Z"/><path class="c" d="M545.073,839.736a3.308,3.308,0,0,1-.98,2.38l-4.76,4.76a3.38,3.38,0,0,1-4.76,0l-7.14-7.14,9.52-9.52,7.14,7.14A3.457,3.457,0,0,1,545.073,839.736Z"/><path class="d" d="M627.5,883.031l-19.075,19.075,5.32,5.32,4.2,4.2-2.31,2.344-7.175,7.175-9.52-9.519L565.582,944.98l-33.389-33.389,14.28-14.28h0l9.519-9.52,14.315,14.315a6.739,6.739,0,0,0,9.52,0L598.9,883.031a6.781,6.781,0,0,0,0-9.555l-23.835-23.835-52.429,52.43-38.15-38.15a20.22,20.22,0,0,1-.245-28.35l19.32-19.319-5.32-5.32h0l-4.2-4.2,9.52-9.52,2.345,2.345,1.89,1.89,5.285,5.32,33.39-33.39,14.314,14.315-52.464,52.394,23.835,23.835a6.781,6.781,0,0,0,9.555,0l19.074-19.075a6.707,6.707,0,0,0,0-9.52l-14.314-14.315,9.554-9.554,14.28-14.28,57.19,57.189a19.965,19.965,0,0,1,5.88,13.16A20.276,20.276,0,0,1,627.5,883.031Z"/><path class="c" d="M680.1,726.623a3.508,3.508,0,0,1,2.135.735.818.818,0,0,1,.245.245l4.76,4.76.245.245a3.508,3.508,0,0,1,.735,2.135,3.394,3.394,0,0,1-.98,2.38l-7.14,7.14-9.52-9.52,7.14-7.14A3.12,3.12,0,0,1,680.1,726.623Z"/><path class="c" d="M641.946,764.737a3.307,3.307,0,0,1,2.38.98l4.76,4.76a3.38,3.38,0,0,1,0,4.76l-7.14,7.14-9.52-9.52,7.14-7.14A3.457,3.457,0,0,1,641.946,764.737Z"/><path class="d" d="M685.241,682.313l19.074,19.075,5.32-5.32,4.2-4.2,2.345,2.31,7.175,7.175-9.52,9.52,33.355,33.355L713.8,777.617l-14.279-14.28h0L690,753.818,704.315,739.5a6.739,6.739,0,0,0,0-9.52l-19.074-19.075a6.781,6.781,0,0,0-9.555,0l-23.835,23.835,52.429,52.429-38.149,38.15a20.219,20.219,0,0,1-28.35.245l-19.32-19.32-5.32,5.32h0l-4.2,4.2-9.519-9.52,2.345-2.345,1.89-1.89,5.319-5.285-33.389-33.39L589.9,749.023,642.3,801.487l23.835-23.835a6.781,6.781,0,0,0,0-9.555l-19.075-19.074a6.707,6.707,0,0,0-9.52,0l-14.315,14.315-9.555-9.555L599.387,739.5l57.189-57.19a19.965,19.965,0,0,1,13.16-5.88A20.276,20.276,0,0,1,685.241,682.313Z"/><path class="c" d="M793.927,667.146a3.508,3.508,0,0,1-.735,2.135.818.818,0,0,1-.245.245l-4.76,4.76-.245.245a3.508,3.508,0,0,1-2.135.735,3.394,3.394,0,0,1-2.38-.98l-7.14-7.14,9.52-9.519,7.14,7.139A3.121,3.121,0,0,1,793.927,667.146Z"/><path class="c" d="M755.812,629a3.307,3.307,0,0,1-.98,2.38l-4.76,4.76a3.38,3.38,0,0,1-4.76,0l-7.14-7.14,9.52-9.52,7.14,7.14A3.457,3.457,0,0,1,755.812,629Z"/><path class="d" d="M838.236,672.291l-19.075,19.075,5.32,5.32,4.2,4.2-2.31,2.345-7.175,7.175-9.52-9.52-33.354,33.355-33.39-33.39,14.28-14.28h0l9.52-9.52,14.315,14.315a6.739,6.739,0,0,0,9.52,0l19.074-19.075a6.781,6.781,0,0,0,0-9.555L785.807,638.9l-52.43,52.429-38.149-38.149a20.219,20.219,0,0,1-.245-28.35l19.319-19.32-5.32-5.32h0l-4.2-4.2,9.519-9.52,2.345,2.345,1.89,1.89,5.285,5.32,33.39-33.389,14.315,14.314-52.465,52.395L742.9,653.182a6.781,6.781,0,0,0,9.555,0l19.075-19.075a6.707,6.707,0,0,0,0-9.52l-14.315-14.315,9.555-9.555,14.28-14.28,57.189,57.19a19.965,19.965,0,0,1,5.88,13.16A20.275,20.275,0,0,1,838.236,672.291Z"/><path class="c" d="M890.835,515.883a3.508,3.508,0,0,1,2.135.735.818.818,0,0,1,.245.245l4.76,4.76.245.245a3.508,3.508,0,0,1,.735,2.135,3.394,3.394,0,0,1-.98,2.38l-7.14,7.14-9.52-9.52,7.14-7.14A3.121,3.121,0,0,1,890.835,515.883Z"/><path class="c" d="M852.686,554a3.307,3.307,0,0,1,2.38.98l4.759,4.76a3.38,3.38,0,0,1,0,4.76l-7.139,7.14-9.52-9.52,7.14-7.14A3.457,3.457,0,0,1,852.686,554Z"/><path class="d" d="M895.98,471.574l19.075,19.075,5.32-5.32,4.2-4.2,2.345,2.31,7.175,7.175-9.52,9.52,33.354,33.354-33.389,33.39L910.26,552.6h0l-9.52-9.52,14.315-14.315a6.739,6.739,0,0,0,0-9.52L895.98,500.169a6.781,6.781,0,0,0-9.555,0L862.59,524l52.43,52.43-38.15,38.149a20.218,20.218,0,0,1-28.349.245L829.2,595.508l-5.32,5.32h0l-4.2,4.2-9.52-9.519,2.345-2.345,1.89-1.89,5.32-5.285-33.39-33.39,14.315-14.315,52.4,52.465,23.834-23.835a6.781,6.781,0,0,0,0-9.555L857.8,538.283a6.707,6.707,0,0,0-9.52,0L833.961,552.6l-9.555-9.555-14.28-14.28,57.189-57.189a19.964,19.964,0,0,1,13.16-5.88A20.276,20.276,0,0,1,895.98,471.574Z"/></g></g></svg>