<svg xmlns="http://www.w3.org/2000/svg" width="75.237" height="70.405" viewBox="0 0 75.237 70.405"><defs><style>.a{fill:#fff;}.b{stroke:#161615;stroke-miterlimit:10;}</style></defs><g transform="translate(-248.531 -144.391)"><path d="M267.193,214.8H248.531V174.268h18.582V180.7c3.169.7,6.233,1.391,9.3,2.061,5.869,1.282,11.745,2.526,17.607,3.839a7.439,7.439,0,0,1,5.8,8.036c-.039.457-.091.912-.159,1.585,1.5-.429,2.92-.826,4.336-1.242,3.142-.922,6.276-1.868,9.421-2.778a7.538,7.538,0,1,1,4.653,14.34c-6.874,2.2-13.8,4.218-20.714,6.307-1.767.534-3.573.958-5.3,1.6a4.623,4.623,0,0,1-3.16-.04c-6.868-2.091-13.748-4.143-20.625-6.205-.318-.1-.644-.16-1.083-.267Zm16.017-18.975c2.519.75,4.918,1.509,7.345,2.164a6.568,6.568,0,0,0,2.706.275,4.213,4.213,0,0,0,3.48-4.33,4.405,4.405,0,0,0-3.681-4.335q-10.279-2.262-20.563-4.509c-1.739-.38-3.486-.729-5.248-1.1a4.474,4.474,0,0,0-.085.526c0,6.4.006,12.8-.02,19.206,0,.684.253.931.879,1.117,7.285,2.167,14.559,4.373,21.845,6.537a2.714,2.714,0,0,0,1.446-.038c3.428-.99,6.845-2.018,10.262-3.045,5.024-1.51,10.042-3.038,15.069-4.538A4.431,4.431,0,0,0,320,200.5c.881-3.551-2.2-6.283-5.882-5.216-5.4,1.566-10.909,2.861-16.157,4.837A14.932,14.932,0,0,1,286.5,200.1c-1.338-.542-2.762-.872-4.2-1.314Zm-19.237,15.788V177.348c-.49-.024-.9-.06-1.313-.061-3.241-.005-6.482.049-9.721-.03-1.141-.028-1.4.335-1.395,1.427.04,10.52.023,21.041.027,31.562,0,.441.045.882.071,1.363Z"/><path class="a" d="M283.21,195.821l-.911,2.965c1.435.442,2.859.772,4.2,1.314a14.932,14.932,0,0,0,11.462.022c5.248-1.976,10.755-3.271,16.157-4.837,3.681-1.067,6.763,1.665,5.882,5.216a4.431,4.431,0,0,1-3.352,3.253c-5.027,1.5-10.045,3.028-15.069,4.538-3.417,1.027-6.834,2.055-10.262,3.045a2.714,2.714,0,0,1-1.446.038c-7.286-2.164-14.56-4.37-21.845-6.537-.626-.186-.882-.433-.879-1.117.026-6.4.016-12.8.02-19.206a4.474,4.474,0,0,1,.085-.526c1.762.368,3.509.717,5.248,1.1q10.284,2.245,20.563,4.509a4.405,4.405,0,0,1,3.681,4.335,4.213,4.213,0,0,1-3.48,4.33,6.568,6.568,0,0,1-2.706-.275C288.128,197.33,285.729,196.571,283.21,195.821Z"/><path class="a" d="M263.973,211.609H251.642c-.026-.481-.071-.922-.071-1.363,0-10.521.013-21.042-.027-31.562,0-1.092.254-1.455,1.395-1.427,3.239.079,6.48.025,9.721.03.411,0,.823.037,1.313.061Z"/><path class="b" d="M308.142,182.988c-.954.879-1.848,1.652-2.68,2.487-.657.659-1.209.731-1.9.038-.856-.859-1.786-1.645-2.738-2.511-.956.89-1.88,1.741-2.792,2.6a1.062,1.062,0,0,1-1.726-.057c-.92-.975-1.912-1.885-2.792-2.894a2.246,2.246,0,0,1-.506-1.361q-.042-17.516,0-35.031c0-.438.26-1.131.567-1.243.33-.12.944.208,1.285.51.794.7,1.5,1.508,2.325,2.361.92-.842,1.812-1.6,2.633-2.429a1.212,1.212,0,0,1,2.007-.025c.832.834,1.72,1.612,2.651,2.477.952-.881,1.878-1.723,2.786-2.585a1.084,1.084,0,0,1,1.735.016c.87.849,1.791,1.647,2.807,2.574.879-.831,1.744-1.614,2.569-2.437a1.257,1.257,0,0,1,2.1,0c.781.822,1.66,1.551,2.453,2.28.856-.805,1.625-1.585,2.462-2.285.326-.274.95-.619,1.178-.486.344.2.5.779.66,1.225a2.592,2.592,0,0,1,.017.823q0,16.8.018,33.61a2.949,2.949,0,0,1-.927,2.42c-.727.662-1.359,1.427-2.046,2.134-1.085,1.117-1.284,1.122-2.4.083-.8-.748-1.6-1.508-2.436-2.3-.9.824-1.784,1.545-2.554,2.375-.818.881-1.481.806-2.268-.022C309.875,184.542,309.035,183.824,308.142,182.988Zm-13.283-35.149a6.794,6.794,0,0,0-.145.744q-.006,16.041.007,32.084a1.58,1.58,0,0,0,.3.962c.662.775,1.393,1.49,2.172,2.3.937-.868,1.849-1.674,2.713-2.528a1.121,1.121,0,0,1,1.823-.01c.891.866,1.827,1.684,2.767,2.544.917-.855,1.78-1.607,2.58-2.42a1.244,1.244,0,0,1,2.093,0c.814.851,1.728,1.608,2.621,2.426.845-.785,1.647-1.541,2.461-2.284,1.149-1.048,1.251-1.042,2.421.054l2.271,2.125a5.362,5.362,0,0,0,2.546-4.914c-.142-9.785-.062-19.573-.062-29.361v-1.24l-.412-.268a9.445,9.445,0,0,1-.786,1.144c-.984,1.077-1.242,1.079-2.3.1-.831-.766-1.651-1.544-2.5-2.338-.987.911-1.9,1.723-2.775,2.574a1.075,1.075,0,0,1-1.731.01c-.9-.867-1.846-1.693-2.806-2.568-.9.834-1.778,1.568-2.561,2.393s-1.417.758-2.177-.035c-.783-.817-1.664-1.54-2.557-2.354-.944.873-1.849,1.688-2.728,2.529-.631.6-1.222.668-1.819-.024Z"/><path class="a" d="M294.859,147.839l1.421,1.649c.6.692,1.188.628,1.819.024.879-.841,1.784-1.656,2.728-2.529.893.814,1.774,1.537,2.557,2.354.76.793,1.391.863,2.177.035s1.66-1.559,2.561-2.393c.96.875,1.9,1.7,2.806,2.568a1.075,1.075,0,0,0,1.731-.01c.875-.851,1.788-1.663,2.775-2.574.848.794,1.668,1.572,2.5,2.338,1.058.976,1.316.974,2.3-.1a9.445,9.445,0,0,0,.786-1.144l.412.268v1.24c0,9.788-.08,19.576.062,29.361a5.362,5.362,0,0,1-2.546,4.914l-2.271-2.125c-1.17-1.1-1.272-1.1-2.421-.054-.814.743-1.616,1.5-2.461,2.284-.893-.818-1.807-1.575-2.621-2.426a1.244,1.244,0,0,0-2.093,0c-.8.813-1.663,1.565-2.58,2.42-.94-.86-1.876-1.678-2.767-2.544a1.121,1.121,0,0,0-1.823.01c-.864.854-1.776,1.66-2.713,2.528-.779-.814-1.51-1.529-2.172-2.3a1.58,1.58,0,0,1-.3-.962q-.021-16.043-.007-32.084A6.794,6.794,0,0,1,294.859,147.839ZM307.9,171.407c2.994,0,5.987.006,8.981-.005.669,0,1.466.045,1.454-.932-.011-.881-.739-.891-1.384-.891q-8.863-.006-17.726,0c-.651,0-1.393.052-1.406.886-.014.917.748.947,1.455.946C302.153,171.4,305.029,171.407,307.9,171.407Zm-1.691-15.133q3.136,0,6.273,0c.661,0,1.351-.016,1.345-.915-.006-.833-.682-.868-1.282-.869q-6.393-.015-12.784-.005c-.653,0-1.332.2-1.211.922.058.35.813.809,1.268.828C301.949,156.322,304.082,156.274,306.213,156.274Zm.042,5q3.133,0,6.266,0c.61,0,1.278.02,1.315-.808.042-.923-.676-.916-1.325-.916q-6.325,0-12.65-.006c-.634,0-1.3.053-1.326.818-.035.857.658.919,1.336.915C302,161.269,304.127,161.276,306.255,161.276Zm0,3.291c-2.127,0-4.254.006-6.381,0-.682,0-1.36.085-1.333.936.025.787.709.825,1.324.825q6.321,0,12.642,0c.586,0,1.291.046,1.319-.8.029-.876-.627-.958-1.309-.956C310.429,164.571,308.341,164.567,306.254,164.567Zm9.44,11.836a6.075,6.075,0,0,0,1.638-.036c.391-.113.688-.55,1.027-.843-.3-.288-.587-.8-.912-.824a22.146,22.146,0,0,0-3.642,0c-.327.027-.614.543-.919.835.308.289.577.747.934.83A8.6,8.6,0,0,0,315.694,176.4Zm1.395-19.648,1.269-1.436a4.311,4.311,0,0,0-1.324-.794c-.585-.1-1.44-.036-1.3.862C315.8,155.807,316.448,156.136,317.089,156.755Zm-.017,4.983c.57-.613,1.176-.964,1.225-1.382.1-.813-.658-.8-1.254-.8-.643-.006-1.432,0-1.334.858C315.754,160.813,316.433,161.144,317.072,161.738Zm-.015,5.046c.575-.614,1.206-.977,1.236-1.384.062-.858-.753-.942-1.353-.8a4.472,4.472,0,0,0-1.27.843Z"/><path d="M307.9,171.407c-2.875,0-5.751,0-8.626,0-.707,0-1.469-.029-1.455-.946.013-.834.755-.885,1.406-.886q8.863,0,17.726,0c.645,0,1.373.01,1.384.891.012.977-.785.93-1.454.932C313.891,171.413,310.9,171.407,307.9,171.407Z"/><path d="M306.213,156.274c-2.131,0-4.264.048-6.391-.039-.455-.019-1.21-.478-1.268-.828-.121-.718.558-.922,1.211-.922q6.391,0,12.784.005c.6,0,1.276.036,1.282.869.006.9-.684.916-1.345.915Q309.349,156.272,306.213,156.274Z"/><path d="M306.255,161.276c-2.128,0-4.256-.007-6.384,0-.678,0-1.371-.058-1.336-.915.03-.765.692-.82,1.326-.818q6.326.012,12.65.006c.649,0,1.367-.007,1.325.916-.037.828-.7.809-1.315.808Q309.388,161.274,306.255,161.276Z"/><path d="M306.254,164.567c2.087,0,4.175,0,6.262,0,.682,0,1.338.08,1.309.956-.028.846-.733.8-1.319.8q-6.321.014-12.642,0c-.615,0-1.3-.038-1.324-.825-.027-.851.651-.939,1.333-.936C302,164.573,304.127,164.567,306.254,164.567Z"/><path d="M315.694,176.4a8.533,8.533,0,0,1-1.874-.039c-.357-.083-.626-.541-.934-.83.305-.292.592-.808.919-.835a22.146,22.146,0,0,1,3.642,0c.325.027.609.536.912.824-.339.293-.636.73-1.027.843A6.035,6.035,0,0,1,315.694,176.4Z"/><path d="M317.089,156.755c-.641-.619-1.288-.948-1.354-1.368-.141-.9.714-.965,1.3-.862a4.311,4.311,0,0,1,1.324.794Z"/><path d="M317.072,161.738c-.639-.594-1.318-.925-1.363-1.327-.1-.86.691-.864,1.334-.858.6.006,1.351-.01,1.254.8C318.248,160.774,317.642,161.125,317.072,161.738Z"/><path d="M317.057,166.784l-1.387-1.338a4.472,4.472,0,0,1,1.27-.843c.6-.145,1.415-.061,1.353.8C318.263,165.807,317.632,166.17,317.057,166.784Z"/></g></svg>