<svg xmlns="http://www.w3.org/2000/svg" width="74.773" height="75" viewBox="0 0 74.773 75"><defs><style>.a{fill:#fff;}.b{fill:#161615;}</style></defs><g transform="translate(-257.837 59.887)"><path d="M276.5,15.113H257.837V-25.414H276.42v6.429c3.168.7,6.233,1.391,9.3,2.061,5.868,1.282,11.745,2.526,17.606,3.838a7.44,7.44,0,0,1,5.8,8.037c-.039.457-.092.912-.16,1.584,1.5-.428,2.921-.825,4.337-1.241,3.141-.922,6.276-1.868,9.42-2.778a7.559,7.559,0,0,1,9.524,4.851,7.5,7.5,0,0,1-4.87,9.489c-6.874,2.2-13.805,4.217-20.714,6.306-1.767.535-3.574.959-5.3,1.6a4.617,4.617,0,0,1-3.16-.041c-6.868-2.091-13.748-4.143-20.626-6.2-.317-.1-.644-.16-1.082-.267ZM292.517-3.862c2.518.751,4.918,1.51,7.345,2.165a6.565,6.565,0,0,0,2.706.274,4.213,4.213,0,0,0,3.48-4.329,4.406,4.406,0,0,0-3.682-4.335Q292.087-12.349,281.8-14.6c-1.74-.38-3.486-.729-5.248-1.1a4.233,4.233,0,0,0-.085.526c0,6.4.005,12.8-.02,19.206,0,.684.253.93.878,1.116,7.286,2.168,14.56,4.374,21.846,6.538a2.725,2.725,0,0,0,1.446-.038c3.428-.991,6.845-2.018,10.262-3.045,5.024-1.51,10.042-3.038,15.068-4.538A4.43,4.43,0,0,0,329.3.819c.882-3.551-2.2-6.283-5.881-5.216-5.4,1.566-10.909,2.86-16.158,4.837A14.925,14.925,0,0,1,295.8.417c-1.339-.541-2.762-.871-4.2-1.313ZM273.28,11.926v-34.26c-.49-.024-.9-.061-1.313-.061-3.241,0-6.483.048-9.721-.03-1.141-.028-1.4.334-1.395,1.426.04,10.521.023,21.042.027,31.563,0,.441.045.881.071,1.362Z"/><path d="M288.918-37.957a21.949,21.949,0,0,1,21.8-21.93,21.887,21.887,0,0,1,21.862,21.83,21.848,21.848,0,0,1-21.771,21.909A21.913,21.913,0,0,1,288.918-37.957Zm21.9-18.81a18.734,18.734,0,0,0-18.708,18.586,18.737,18.737,0,0,0,18.6,18.939,18.858,18.858,0,0,0,18.765-18.719A18.851,18.851,0,0,0,310.819-56.767Z"/><path class="a" d="M292.517-3.862,291.605-.9c1.436.442,2.859.772,4.2,1.313A14.925,14.925,0,0,0,307.264.44c5.249-1.977,10.756-3.271,16.158-4.837C327.1-5.464,330.185-2.732,329.3.819a4.43,4.43,0,0,1-3.352,3.253c-5.026,1.5-10.044,3.028-15.068,4.538-3.417,1.027-6.834,2.054-10.262,3.045a2.725,2.725,0,0,1-1.446.038c-7.286-2.164-14.56-4.37-21.846-6.538-.625-.186-.881-.432-.878-1.116.025-6.4.016-12.8.02-19.206a4.233,4.233,0,0,1,.085-.526c1.762.367,3.508.716,5.248,1.1q10.283,2.247,20.562,4.51a4.406,4.406,0,0,1,3.682,4.335,4.213,4.213,0,0,1-3.48,4.329,6.565,6.565,0,0,1-2.706-.274C297.435-2.352,295.035-3.111,292.517-3.862Z"/><path class="a" d="M273.28,11.926H260.949c-.026-.481-.071-.921-.071-1.362,0-10.521.013-21.042-.027-31.563,0-1.092.254-1.454,1.395-1.426,3.238.078,6.48.025,9.721.03.411,0,.823.037,1.313.061Z"/><path class="a" d="M329.48-37.96a18.871,18.871,0,0,1-18.77,18.72,18.741,18.741,0,0,1-18.6-18.94,18.74,18.74,0,0,1,18.71-18.59A18.86,18.86,0,0,1,329.48-37.96Z"/><path class="b" d="M321.149-35.5H309.3V-51.553a1.5,1.5,0,0,1,1.5-1.5,1.5,1.5,0,0,1,1.5,1.5V-38.5h8.854a1.5,1.5,0,0,1,1.5,1.5A1.5,1.5,0,0,1,321.149-35.5Z"/></g></svg>