<svg xmlns="http://www.w3.org/2000/svg" xmlns:xlink="http://www.w3.org/1999/xlink" width="704" height="550" viewBox="0 0 704 550"><defs><style>.a{fill:#fff;stroke:#707070;}.b{opacity:0.34;mix-blend-mode:difference;isolation:isolate;clip-path:url(#a);}.c{fill:#f17d14;}.d{fill:#151837;}</style><clipPath id="a"><rect class="a" width="704" height="550" transform="translate(444.583 816)"/></clipPath></defs><g class="b" transform="translate(-444.583 -816)"><g transform="translate(445.042 839.681)"><g transform="translate(0 321.963)"><path class="c" d="M-53.173,454.118a2.68,2.68,0,0,1-.561,1.631.625.625,0,0,1-.187.187l-3.636,3.636-.187.187a2.68,2.68,0,0,1-1.631.561,2.593,2.593,0,0,1-1.818-.749l-5.454-5.454,7.272-7.272,5.454,5.454A2.384,2.384,0,0,1-53.173,454.118Z" transform="translate(133.094 -374.285)"/><path class="c" d="M-91.287,415.968a2.526,2.526,0,0,1-.749,1.818l-3.636,3.636a2.571,2.571,0,0,1-1.818.749,2.593,2.593,0,0,1-1.818-.749l-5.454-5.454,7.272-7.271,5.454,5.453A2.641,2.641,0,0,1-91.287,415.968Z" transform="translate(142.093 -365.278)"/><path class="d" d="M-39.863,435.62l-14.571,14.571,4.064,4.064,3.208,3.208-1.765,1.791-5.481,5.481-7.272-7.272-25.48,25.479-25.505-25.506,10.908-10.908h0l7.271-7.272,10.935,10.935a5.148,5.148,0,0,0,7.272,0l14.571-14.571a5.18,5.18,0,0,0,0-7.3l-18.207-18.207-40.05,40.051-29.142-29.142a15.444,15.444,0,0,1-.187-21.655l14.758-14.758-4.064-4.064h0l-3.208-3.208,7.272-7.272,1.791,1.791,1.444,1.444,4.037,4.064,25.506-25.506,10.934,10.935L-130.9,402.815l18.207,18.207a5.18,5.18,0,0,0,7.3,0l14.57-14.571a5.123,5.123,0,0,0,0-7.271l-10.934-10.935,7.3-7.3,10.908-10.908,43.687,43.686a15.251,15.251,0,0,1,4.492,10.053A15.488,15.488,0,0,1-39.863,435.62Z" transform="translate(153.632 -351.857)"/></g><g transform="translate(74.115 247.849)"><path class="c" d="M45.653,305.055a2.68,2.68,0,0,1,1.631.561.624.624,0,0,1,.187.187l3.636,3.636.187.187a2.68,2.68,0,0,1,.561,1.631,2.593,2.593,0,0,1-.749,1.818l-5.454,5.454-7.272-7.272,5.454-5.454A2.384,2.384,0,0,1,45.653,305.055Z" transform="translate(34.18 -266.692)"/><path class="c" d="M7.5,343.171a2.526,2.526,0,0,1,1.818.749l3.636,3.636a2.582,2.582,0,0,1,0,3.636L7.5,356.646.231,349.374l5.454-5.454A2.641,2.641,0,0,1,7.5,343.171Z" transform="translate(43.188 -275.692)"/><path class="d" d="M27.155,259.351l14.57,14.571,4.064-4.064L49,266.65l1.791,1.765L56.27,273.9,49,281.167l25.48,25.48L48.971,332.153,38.064,321.244h0l-7.272-7.272,10.934-10.935a5.148,5.148,0,0,0,0-7.272l-14.57-14.571a5.18,5.18,0,0,0-7.3,0L1.649,299.4,41.7,339.452,12.558,368.593A15.445,15.445,0,0,1-9.1,368.78l-14.758-14.758-4.064,4.064h0l-3.208,3.208-7.271-7.272,1.791-1.791,1.444-1.444,4.063-4.036-25.505-25.506,10.935-10.935L-5.65,350.386l18.207-18.207a5.18,5.18,0,0,0,0-7.3L-2.014,310.309a5.124,5.124,0,0,0-7.272,0l-10.935,10.935-7.3-7.3-10.908-10.908L5.259,259.351a15.251,15.251,0,0,1,10.053-4.492A15.489,15.489,0,0,1,27.155,259.351Z" transform="translate(56.608 -254.834)"/></g><g transform="translate(160.982 160.982)"><path class="c" d="M157.567,243.379a2.68,2.68,0,0,1-.561,1.631.625.625,0,0,1-.187.187l-3.636,3.636-.187.187a2.68,2.68,0,0,1-1.631.561,2.593,2.593,0,0,1-1.818-.749l-5.454-5.454,7.272-7.272,5.454,5.454A2.384,2.384,0,0,1,157.567,243.379Z" transform="translate(-77.646 -163.546)"/><path class="c" d="M119.452,205.229a2.526,2.526,0,0,1-.749,1.818l-3.636,3.636a2.582,2.582,0,0,1-3.636,0l-5.454-5.454,7.272-7.272,5.454,5.454A2.641,2.641,0,0,1,119.452,205.229Z" transform="translate(-68.647 -154.538)"/><path class="d" d="M170.876,224.881l-14.571,14.57,4.064,4.064,3.208,3.208-1.765,1.791L156.332,254l-7.272-7.272L123.581,272.2,98.075,246.7l10.908-10.908h0l7.272-7.272,10.935,10.935a5.148,5.148,0,0,0,7.272,0l14.57-14.57a5.18,5.18,0,0,0,0-7.3l-18.207-18.207-40.051,40.05L61.634,210.284a15.445,15.445,0,0,1-.187-21.656L76.2,173.869l-4.063-4.064h0L68.933,166.6l7.271-7.272L78,161.116l1.444,1.444,4.037,4.064,25.506-25.505,10.935,10.935L79.841,192.076l18.207,18.207a5.18,5.18,0,0,0,7.3,0l14.571-14.571a5.123,5.123,0,0,0,0-7.272l-10.935-10.935,7.3-7.3L127.19,159.3l43.686,43.687a15.251,15.251,0,0,1,4.492,10.053A15.489,15.489,0,0,1,170.876,224.881Z" transform="translate(-57.109 -141.118)"/></g><g transform="translate(235.096 86.867)"><path class="c" d="M256.392,94.316a2.68,2.68,0,0,1,1.631.561.625.625,0,0,1,.187.187l3.636,3.636.187.187a2.68,2.68,0,0,1,.561,1.631,2.593,2.593,0,0,1-.749,1.818l-5.454,5.454-7.272-7.272,5.454-5.454A2.384,2.384,0,0,1,256.392,94.316Z" transform="translate(-176.559 -55.952)"/><path class="c" d="M218.243,132.431a2.527,2.527,0,0,1,1.818.749l3.636,3.636a2.582,2.582,0,0,1,0,3.636l-5.454,5.454-7.272-7.272,5.454-5.454A2.641,2.641,0,0,1,218.243,132.431Z" transform="translate(-167.552 -64.952)"/><path class="d" d="M237.894,48.611l14.571,14.571,4.064-4.064,3.208-3.208,1.791,1.765,5.481,5.481-7.272,7.272,25.479,25.48-25.505,25.505L248.8,110.5h0l-7.272-7.271L252.466,92.3a5.148,5.148,0,0,0,0-7.272L237.894,70.454a5.18,5.18,0,0,0-7.3,0L212.388,88.662l40.051,40.05L223.3,157.854a15.445,15.445,0,0,1-21.655.187l-14.758-14.758-4.064,4.064h0l-3.208,3.208-7.272-7.272,1.791-1.791,1.444-1.444,4.064-4.037L154.131,110.5,165.066,99.57l40.024,40.077L223.3,121.439a5.18,5.18,0,0,0,0-7.3l-14.57-14.57a5.123,5.123,0,0,0-7.272,0L190.519,110.5l-7.3-7.3L172.312,92.3,216,48.611a15.251,15.251,0,0,1,10.053-4.492A15.489,15.489,0,0,1,237.894,48.611Z" transform="translate(-154.131 -44.094)"/></g><g transform="translate(321.963 0)"><path class="c" d="M368.306,32.639a2.68,2.68,0,0,1-.561,1.631.625.625,0,0,1-.187.187l-3.636,3.636-.187.187a2.68,2.68,0,0,1-1.631.561,2.593,2.593,0,0,1-1.818-.749l-5.454-5.454,7.272-7.272,5.454,5.454A2.384,2.384,0,0,1,368.306,32.639Z" transform="translate(-288.385 47.194)"/><path class="c" d="M330.191-5.51a2.527,2.527,0,0,1-.749,1.818L325.807-.056a2.571,2.571,0,0,1-1.818.749,2.593,2.593,0,0,1-1.818-.749L316.717-5.51l7.272-7.272,5.454,5.454A2.643,2.643,0,0,1,330.191-5.51Z" transform="translate(-279.386 56.201)"/><path class="d" d="M381.616,14.141,367.045,28.713l4.064,4.064,3.208,3.208-1.765,1.791-5.481,5.481L359.8,35.985,334.32,61.464,308.814,35.958,319.722,25.05h0l7.272-7.272,10.935,10.935a5.148,5.148,0,0,0,7.272,0l14.571-14.571a5.18,5.18,0,0,0,0-7.3L341.565-11.365l-40.05,40.051L272.373-.456a15.445,15.445,0,0,1-.187-21.655L286.944-36.87l-4.064-4.064h0l-3.208-3.208,7.272-7.272,1.791,1.791,1.444,1.444,4.037,4.064,25.506-25.506,10.935,10.935L290.58-18.663,308.788-.456a5.18,5.18,0,0,0,7.3,0l14.57-14.571a5.123,5.123,0,0,0,0-7.271L319.722-33.234l7.3-7.3,10.908-10.908L381.616-7.755A15.251,15.251,0,0,1,386.108,2.3,15.489,15.489,0,0,1,381.616,14.141Z" transform="translate(-267.848 69.622)"/></g><g transform="translate(74.097 408.897)"><path class="c" d="M45.629,515.882a2.679,2.679,0,0,1,1.631.561.624.624,0,0,1,.187.187l3.636,3.636.187.187a2.68,2.68,0,0,1,.561,1.631,2.593,2.593,0,0,1-.749,1.818l-5.454,5.454-7.272-7.272,5.454-5.454A2.384,2.384,0,0,1,45.629,515.882Z" transform="translate(34.204 -477.519)"/><path class="c" d="M7.48,554a2.526,2.526,0,0,1,1.818.749l3.636,3.636a2.582,2.582,0,0,1,0,3.636L7.48,567.473.208,560.2l5.454-5.454A2.641,2.641,0,0,1,7.48,554Z" transform="translate(43.211 -486.518)"/><path class="d" d="M27.131,470.178,41.7,484.749l4.064-4.064,3.208-3.208,1.791,1.765,5.481,5.481-7.272,7.272,25.48,25.479L48.948,542.98,38.04,532.071h0L30.768,524.8,41.7,513.864a5.148,5.148,0,0,0,0-7.272l-14.571-14.57a5.18,5.18,0,0,0-7.3,0L1.626,510.228l40.05,40.051L12.534,579.42a15.444,15.444,0,0,1-21.655.187L-23.88,564.85l-4.064,4.064h0l-3.208,3.208-7.272-7.271,1.791-1.791,1.444-1.444,4.064-4.037-25.506-25.506L-45.7,521.136l40.024,40.077,18.207-18.207a5.18,5.18,0,0,0,0-7.3l-14.57-14.571a5.124,5.124,0,0,0-7.272,0l-10.935,10.935-7.3-7.3-10.908-10.908L5.235,470.178a15.249,15.249,0,0,1,10.052-4.492A15.489,15.489,0,0,1,27.131,470.178Z" transform="translate(56.632 -465.661)"/></g><g transform="translate(160.964 321.994)"><path class="c" d="M157.543,454.159a2.68,2.68,0,0,1-.561,1.631.624.624,0,0,1-.187.187l-3.636,3.636-.187.187a2.68,2.68,0,0,1-1.631.561,2.593,2.593,0,0,1-1.818-.749l-5.454-5.454,7.272-7.272,5.454,5.454A2.384,2.384,0,0,1,157.543,454.159Z" transform="translate(-77.622 -374.326)"/><path class="c" d="M119.429,416.009a2.526,2.526,0,0,1-.749,1.818l-3.636,3.636a2.582,2.582,0,0,1-3.636,0l-5.454-5.454,7.272-7.272,5.454,5.454A2.641,2.641,0,0,1,119.429,416.009Z" transform="translate(-68.623 -365.318)"/><path class="d" d="M170.853,435.661l-14.571,14.571,4.064,4.064,3.208,3.208L161.79,459.3l-5.481,5.481-7.272-7.272-25.48,25.479L98.051,457.478,108.96,446.57h0l7.272-7.272,10.934,10.935a5.148,5.148,0,0,0,7.272,0l14.571-14.571a5.18,5.18,0,0,0,0-7.3L130.8,410.155l-40.05,40.051L61.61,421.064a15.445,15.445,0,0,1-.187-21.656L76.181,384.65l-4.064-4.064h0l-3.208-3.208,7.272-7.272,1.791,1.791,1.444,1.444,4.037,4.064L108.96,351.9l10.934,10.935L79.817,402.856l18.207,18.207a5.18,5.18,0,0,0,7.3,0l14.57-14.571a5.124,5.124,0,0,0,0-7.272L108.96,388.286l7.3-7.3,10.908-10.908,43.687,43.686a15.251,15.251,0,0,1,4.492,10.053A15.489,15.489,0,0,1,170.853,435.661Z" transform="translate(-57.085 -351.898)"/></g><g transform="translate(235.079 247.916)"><path class="c" d="M256.369,305.143A2.68,2.68,0,0,1,258,305.7a.625.625,0,0,1,.187.187l3.636,3.636.187.187a2.68,2.68,0,0,1,.561,1.631,2.593,2.593,0,0,1-.749,1.818l-5.454,5.454-7.272-7.272,5.454-5.454A2.384,2.384,0,0,1,256.369,305.143Z" transform="translate(-176.536 -266.78)"/><path class="c" d="M218.219,343.259a2.527,2.527,0,0,1,1.818.749l3.636,3.636a2.581,2.581,0,0,1,0,3.635l-5.454,5.454-7.272-7.272,5.454-5.453A2.641,2.641,0,0,1,218.219,343.259Z" transform="translate(-167.528 -275.78)"/><path class="d" d="M237.871,259.438l14.571,14.571,4.063-4.064,3.208-3.208,1.791,1.765,5.481,5.481-7.272,7.272,25.48,25.48L259.687,332.24,248.78,321.332h0l-7.272-7.272,10.935-10.935a5.149,5.149,0,0,0,0-7.272l-14.571-14.571a5.18,5.18,0,0,0-7.3,0l-18.207,18.207,40.051,40.05-29.142,29.142a15.445,15.445,0,0,1-21.656.187L186.859,354.11l-4.064,4.064h0l-3.208,3.208-7.272-7.272,1.791-1.791,1.444-1.444,4.064-4.037-25.506-25.505L165.043,310.4l40.023,40.077,18.207-18.207a5.179,5.179,0,0,0,0-7.3L208.7,310.4a5.123,5.123,0,0,0-7.272,0L190.5,321.332l-7.3-7.3-10.908-10.908,43.686-43.687a15.254,15.254,0,0,1,10.053-4.491A15.488,15.488,0,0,1,237.871,259.438Z" transform="translate(-154.108 -254.922)"/></g><g transform="translate(321.946 161.013)"><path class="c" d="M368.283,243.419a2.68,2.68,0,0,1-.561,1.631.625.625,0,0,1-.187.187l-3.636,3.636-.187.187a2.68,2.68,0,0,1-1.631.561,2.593,2.593,0,0,1-1.818-.749l-5.454-5.453,7.272-7.272,5.454,5.454A2.382,2.382,0,0,1,368.283,243.419Z" transform="translate(-288.362 -163.587)"/><path class="c" d="M330.168,205.27a2.527,2.527,0,0,1-.749,1.818l-3.636,3.636a2.582,2.582,0,0,1-3.636,0l-5.454-5.454L323.965,198l5.454,5.454A2.641,2.641,0,0,1,330.168,205.27Z" transform="translate(-279.363 -154.579)"/><path class="d" d="M381.592,224.922l-14.571,14.571,4.064,4.064,3.208,3.208-1.765,1.791-5.481,5.481-7.271-7.272L334.3,272.245l-25.506-25.506L319.7,235.83h0l7.272-7.272,10.935,10.935a5.148,5.148,0,0,0,7.272,0l14.571-14.571a5.18,5.18,0,0,0,0-7.3l-18.207-18.207-40.051,40.05L272.35,210.325a15.445,15.445,0,0,1-.187-21.656l14.758-14.758-4.064-4.064h0l-3.208-3.208,7.272-7.272,1.791,1.791,1.443,1.444,4.037,4.064L319.7,141.159l10.935,10.934-40.077,40.024,18.207,18.207a5.18,5.18,0,0,0,7.3,0l14.571-14.571a5.123,5.123,0,0,0,0-7.272L319.7,177.546l7.3-7.3,10.908-10.908,43.686,43.687a15.251,15.251,0,0,1,4.492,10.053A15.487,15.487,0,0,1,381.592,224.922Z" transform="translate(-267.824 -141.159)"/></g><g transform="translate(396.06 86.934)"><path class="c" d="M467.108,94.4a2.684,2.684,0,0,1,1.631.561.624.624,0,0,1,.187.187l3.636,3.636.187.187a2.68,2.68,0,0,1,.561,1.631,2.593,2.593,0,0,1-.749,1.818l-5.454,5.454-7.272-7.272,5.454-5.454A2.386,2.386,0,0,1,467.108,94.4Z" transform="translate(-387.275 -56.04)"/><path class="c" d="M428.959,132.519a2.526,2.526,0,0,1,1.818.749l3.636,3.636a2.582,2.582,0,0,1,0,3.636l-5.454,5.454-7.272-7.272,5.454-5.454A2.641,2.641,0,0,1,428.959,132.519Z" transform="translate(-378.268 -65.04)"/><path class="d" d="M448.61,48.7,463.182,63.27l4.064-4.064L470.454,56l1.791,1.765,5.481,5.481-7.272,7.272,25.48,25.479L470.427,121.5l-10.908-10.908h0l-7.272-7.272,10.935-10.935a5.148,5.148,0,0,0,0-7.272L448.61,70.542a5.18,5.18,0,0,0-7.3,0L423.1,88.749l40.05,40.051-29.142,29.142a15.445,15.445,0,0,1-21.656.187L397.6,143.371l-4.064,4.064h0l-3.208,3.208-7.272-7.272,1.791-1.791,1.444-1.444,4.064-4.037-25.506-25.506,10.935-10.935,40.024,40.077,18.207-18.207a5.18,5.18,0,0,0,0-7.3l-14.57-14.571a5.124,5.124,0,0,0-7.272,0l-10.935,10.935-7.3-7.3L383.028,92.385,426.714,48.7a15.251,15.251,0,0,1,10.053-4.492A15.489,15.489,0,0,1,448.61,48.7Z" transform="translate(-364.847 -44.182)"/></g><g transform="translate(160.982 482.945)"><path class="c" d="M157.567,664.858a2.678,2.678,0,0,1-.561,1.63.625.625,0,0,1-.187.187l-3.636,3.636L153,670.5a2.68,2.68,0,0,1-1.631.561,2.593,2.593,0,0,1-1.818-.749l-5.454-5.453,7.272-7.272,5.454,5.454A2.384,2.384,0,0,1,157.567,664.858Z" transform="translate(-77.646 -585.025)"/><path class="c" d="M119.452,626.708a2.527,2.527,0,0,1-.749,1.818l-3.636,3.636a2.582,2.582,0,0,1-3.636,0l-5.454-5.454,7.272-7.272,5.454,5.454A2.641,2.641,0,0,1,119.452,626.708Z" transform="translate(-68.647 -576.017)"/><path class="d" d="M170.876,646.36l-14.571,14.571,4.064,4.064,3.208,3.208-1.765,1.791-5.481,5.481L149.06,668.2l-25.479,25.479L98.075,668.176l10.908-10.908h0L116.255,650l10.935,10.935a5.148,5.148,0,0,0,7.272,0l14.57-14.571a5.179,5.179,0,0,0,0-7.3l-18.207-18.207L90.776,660.9,61.634,631.763a15.445,15.445,0,0,1-.187-21.656L76.2,595.348l-4.063-4.064h0l-3.208-3.208L76.2,580.8,78,582.595l1.444,1.444,4.037,4.064L108.983,562.6l10.935,10.934L79.841,613.555l18.207,18.207a5.18,5.18,0,0,0,7.3,0l14.571-14.571a5.124,5.124,0,0,0,0-7.272l-10.935-10.935,7.3-7.3,10.908-10.908,43.686,43.687a15.25,15.25,0,0,1,4.492,10.053A15.486,15.486,0,0,1,170.876,646.36Z" transform="translate(-57.109 -562.597)"/></g><g transform="translate(235.11 408.879)"><path class="c" d="M256.41,515.859a2.68,2.68,0,0,1,1.631.561.626.626,0,0,1,.187.187l3.636,3.636.187.187a2.68,2.68,0,0,1,.561,1.631,2.593,2.593,0,0,1-.749,1.818l-5.454,5.454-7.272-7.272,5.454-5.454A2.384,2.384,0,0,1,256.41,515.859Z" transform="translate(-176.577 -477.496)"/><path class="c" d="M218.26,553.975a2.526,2.526,0,0,1,1.818.749l3.636,3.636a2.582,2.582,0,0,1,0,3.636l-5.454,5.453-7.272-7.271,5.454-5.454A2.641,2.641,0,0,1,218.26,553.975Z" transform="translate(-167.569 -486.496)"/><path class="d" d="M237.912,470.154l14.57,14.571,4.064-4.064,3.208-3.208,1.791,1.765,5.481,5.481-7.272,7.272,25.48,25.48-25.506,25.505L248.82,532.048h0l-7.271-7.272,10.934-10.935a5.148,5.148,0,0,0,0-7.272L237.912,492a5.18,5.18,0,0,0-7.3,0L212.406,510.2l40.05,40.05L223.315,579.4a15.445,15.445,0,0,1-21.656.187L186.9,564.826l-4.064,4.064h0l-3.208,3.208-7.271-7.272,1.791-1.791,1.443-1.444,4.064-4.037-25.505-25.505,10.935-10.935,40.023,40.077,18.207-18.207a5.179,5.179,0,0,0,0-7.3l-14.571-14.571a5.124,5.124,0,0,0-7.272,0l-10.935,10.935-7.3-7.3L172.33,513.841l43.686-43.686a15.251,15.251,0,0,1,10.053-4.492A15.491,15.491,0,0,1,237.912,470.154Z" transform="translate(-154.149 -465.638)"/></g><g transform="translate(321.963 321.963)"><path class="c" d="M368.306,454.118a2.68,2.68,0,0,1-.561,1.631.625.625,0,0,1-.187.187l-3.636,3.636-.187.187a2.68,2.68,0,0,1-1.631.561,2.593,2.593,0,0,1-1.818-.749l-5.454-5.454,7.272-7.272,5.454,5.454A2.384,2.384,0,0,1,368.306,454.118Z" transform="translate(-288.385 -374.285)"/><path class="c" d="M330.191,415.968a2.526,2.526,0,0,1-.749,1.818l-3.635,3.636a2.582,2.582,0,0,1-3.636,0l-5.454-5.454,7.272-7.271,5.454,5.453A2.643,2.643,0,0,1,330.191,415.968Z" transform="translate(-279.386 -365.278)"/><path class="d" d="M381.616,435.62l-14.571,14.571,4.064,4.064,3.208,3.208-1.765,1.791-5.481,5.481-7.272-7.272L334.32,482.943l-25.505-25.506,10.908-10.908h0l7.272-7.272,10.935,10.935a5.148,5.148,0,0,0,7.272,0l14.571-14.571a5.18,5.18,0,0,0,0-7.3l-18.207-18.207-40.05,40.051-29.142-29.142a15.444,15.444,0,0,1-.187-21.655l14.758-14.758-4.064-4.064h0l-3.208-3.208,7.272-7.272,1.791,1.791,1.444,1.444,4.037,4.064,25.506-25.506,10.935,10.935L290.58,402.815l18.207,18.207a5.18,5.18,0,0,0,7.3,0l14.57-14.571a5.123,5.123,0,0,0,0-7.271l-10.935-10.935,7.3-7.3,10.908-10.908,43.687,43.686a15.251,15.251,0,0,1,4.492,10.053A15.489,15.489,0,0,1,381.616,435.62Z" transform="translate(-267.848 -351.857)"/></g><g transform="translate(396.091 247.897)"><path class="c" d="M467.149,305.12a2.68,2.68,0,0,1,1.631.561.625.625,0,0,1,.187.187L472.6,309.5l.187.187a2.68,2.68,0,0,1,.561,1.631,2.593,2.593,0,0,1-.749,1.818l-5.454,5.454-7.272-7.272,5.454-5.453A2.384,2.384,0,0,1,467.149,305.12Z" transform="translate(-387.316 -266.756)"/><path class="c" d="M429,343.235a2.526,2.526,0,0,1,1.818.749l3.635,3.636a2.582,2.582,0,0,1,0,3.636L429,356.71l-7.272-7.272,5.454-5.454A2.641,2.641,0,0,1,429,343.235Z" transform="translate(-378.309 -275.756)"/><path class="d" d="M448.651,259.415l14.571,14.571,4.064-4.064,3.208-3.208,1.791,1.765,5.481,5.481-7.272,7.272,25.479,25.479-25.506,25.506L459.56,321.308h0l-7.272-7.272L463.223,303.1a5.147,5.147,0,0,0,0-7.271l-14.571-14.571a5.18,5.18,0,0,0-7.3,0l-18.207,18.207L463.2,339.516l-29.142,29.142a15.446,15.446,0,0,1-21.655.187L397.64,354.087l-4.064,4.064h0l-3.208,3.208-7.272-7.272,1.791-1.791,1.444-1.444,4.064-4.037-25.506-25.506,10.935-10.935,40.024,40.077,18.207-18.207a5.18,5.18,0,0,0,0-7.3l-14.571-14.571a5.123,5.123,0,0,0-7.271,0l-10.935,10.935-7.3-7.3L383.069,303.1l43.686-43.686a15.25,15.25,0,0,1,10.053-4.492A15.489,15.489,0,0,1,448.651,259.415Z" transform="translate(-364.888 -254.898)"/></g><g transform="translate(482.945 160.982)"><path class="c" d="M579.046,243.379a2.68,2.68,0,0,1-.561,1.631.624.624,0,0,1-.187.187l-3.636,3.636-.187.187a2.68,2.68,0,0,1-1.631.561,2.593,2.593,0,0,1-1.818-.749l-5.454-5.454,7.272-7.272,5.454,5.454A2.384,2.384,0,0,1,579.046,243.379Z" transform="translate(-499.125 -163.546)"/><path class="c" d="M540.931,205.229a2.527,2.527,0,0,1-.749,1.818l-3.636,3.636a2.582,2.582,0,0,1-3.636,0l-5.454-5.454,7.272-7.272,5.454,5.454A2.641,2.641,0,0,1,540.931,205.229Z" transform="translate(-490.126 -154.538)"/><path class="d" d="M592.355,224.881l-14.571,14.57,4.064,4.064,3.208,3.208-1.765,1.791L577.811,254l-7.272-7.272L545.06,272.2,519.554,246.7l10.908-10.908h0l7.272-7.272,10.935,10.935a5.148,5.148,0,0,0,7.272,0l14.57-14.57a5.18,5.18,0,0,0,0-7.3l-18.206-18.207-40.051,40.05-29.142-29.142a15.445,15.445,0,0,1-.187-21.656l14.758-14.758-4.064-4.064h0l-3.208-3.208,7.272-7.272,1.791,1.791,1.444,1.444,4.037,4.064,25.506-25.505L541.4,152.053,501.32,192.076l18.207,18.207a5.18,5.18,0,0,0,7.3,0L541.4,195.712a5.123,5.123,0,0,0,0-7.272l-10.935-10.935,7.3-7.3L548.669,159.3l43.686,43.687a15.251,15.251,0,0,1,4.492,10.053A15.489,15.489,0,0,1,592.355,224.881Z" transform="translate(-478.587 -141.118)"/></g><g transform="translate(235.079 569.878)"><path class="c" d="M256.369,726.622a2.68,2.68,0,0,1,1.631.561.625.625,0,0,1,.187.187l3.636,3.636.187.187a2.68,2.68,0,0,1,.561,1.631,2.593,2.593,0,0,1-.749,1.818l-5.454,5.454-7.272-7.272,5.454-5.454A2.384,2.384,0,0,1,256.369,726.622Z" transform="translate(-176.536 -688.258)"/><path class="c" d="M218.219,764.737a2.527,2.527,0,0,1,1.818.749l3.636,3.636a2.582,2.582,0,0,1,0,3.636l-5.454,5.454-7.272-7.272,5.454-5.454A2.641,2.641,0,0,1,218.219,764.737Z" transform="translate(-167.528 -697.257)"/><path class="d" d="M237.871,680.917l14.571,14.571,4.063-4.064,3.208-3.208,1.791,1.765,5.481,5.481-7.272,7.272,25.48,25.48-25.506,25.505L248.78,742.81h0l-7.272-7.271L252.443,724.6a5.149,5.149,0,0,0,0-7.272L237.871,702.76a5.18,5.18,0,0,0-7.3,0l-18.207,18.207,40.051,40.05L223.274,790.16a15.445,15.445,0,0,1-21.656.187l-14.758-14.758-4.064,4.064h0l-3.208,3.208-7.272-7.272,1.791-1.791,1.444-1.444,4.064-4.037L154.108,742.81l10.935-10.934,40.023,40.077,18.207-18.207a5.18,5.18,0,0,0,0-7.3L208.7,731.876a5.123,5.123,0,0,0-7.272,0L190.5,742.811l-7.3-7.3L172.289,724.6l43.686-43.687a15.25,15.25,0,0,1,10.053-4.492A15.488,15.488,0,0,1,237.871,680.917Z" transform="translate(-154.108 -676.4)"/></g><g transform="translate(321.946 482.976)"><path class="c" d="M368.283,664.9a2.68,2.68,0,0,1-.561,1.631.626.626,0,0,1-.187.187l-3.636,3.636-.187.187a2.679,2.679,0,0,1-1.631.562,2.593,2.593,0,0,1-1.818-.749l-5.454-5.454,7.272-7.272,5.454,5.453A2.384,2.384,0,0,1,368.283,664.9Z" transform="translate(-288.362 -585.066)"/><path class="c" d="M330.168,626.749a2.526,2.526,0,0,1-.749,1.818l-3.636,3.636a2.582,2.582,0,0,1-3.636,0l-5.454-5.454,7.272-7.272,5.454,5.454A2.641,2.641,0,0,1,330.168,626.749Z" transform="translate(-279.363 -576.058)"/><path class="d" d="M381.592,646.4l-14.571,14.571,4.064,4.064,3.208,3.208-1.765,1.791-5.481,5.481-7.271-7.272-25.48,25.48-25.506-25.506L319.7,657.309h0l7.272-7.272,10.935,10.935a5.148,5.148,0,0,0,7.272,0L359.75,646.4a5.181,5.181,0,0,0,0-7.3L341.542,620.9l-40.051,40.05L272.35,631.8a15.445,15.445,0,0,1-.187-21.656l14.758-14.758-4.064-4.064h0l-3.208-3.208,7.272-7.272,1.791,1.791,1.443,1.444,4.037,4.064L319.7,562.638l10.935,10.934L290.557,613.6,308.764,631.8a5.18,5.18,0,0,0,7.3,0l14.571-14.571a5.124,5.124,0,0,0,0-7.272L319.7,599.025l7.3-7.3,10.908-10.908L381.592,624.5a15.25,15.25,0,0,1,4.492,10.053A15.488,15.488,0,0,1,381.592,646.4Z" transform="translate(-267.824 -562.638)"/></g><g transform="translate(396.06 408.897)"><path class="c" d="M467.108,515.882a2.679,2.679,0,0,1,1.631.561.623.623,0,0,1,.187.187l3.636,3.636.187.187a2.68,2.68,0,0,1,.561,1.631,2.593,2.593,0,0,1-.749,1.818l-5.454,5.454-7.272-7.272,5.454-5.454A2.384,2.384,0,0,1,467.108,515.882Z" transform="translate(-387.275 -477.519)"/><path class="c" d="M428.959,554a2.526,2.526,0,0,1,1.818.749l3.636,3.636a2.582,2.582,0,0,1,0,3.636l-5.454,5.454-7.272-7.272,5.454-5.454A2.641,2.641,0,0,1,428.959,554Z" transform="translate(-378.268 -486.518)"/><path class="d" d="M448.61,470.178l14.571,14.571,4.064-4.064,3.208-3.208,1.791,1.765,5.481,5.481-7.272,7.272,25.48,25.479L470.427,542.98l-10.908-10.908h0l-7.272-7.272,10.935-10.935a5.148,5.148,0,0,0,0-7.272l-14.571-14.57a5.18,5.18,0,0,0-7.3,0L423.1,510.228l40.05,40.051L434.013,579.42a15.444,15.444,0,0,1-21.656.187L397.6,564.85l-4.064,4.064h0l-3.208,3.208-7.272-7.271,1.791-1.791,1.444-1.444,4.064-4.037-25.506-25.506,10.935-10.935,40.024,40.077,18.207-18.207a5.18,5.18,0,0,0,0-7.3l-14.57-14.571a5.124,5.124,0,0,0-7.272,0l-10.935,10.935-7.3-7.3-10.908-10.908,43.686-43.686a15.251,15.251,0,0,1,10.053-4.492A15.489,15.489,0,0,1,448.61,470.178Z" transform="translate(-364.847 -465.661)"/></g><g transform="translate(482.927 321.994)"><path class="c" d="M579.022,454.159a2.68,2.68,0,0,1-.561,1.631.626.626,0,0,1-.187.187l-3.636,3.636-.187.187a2.68,2.68,0,0,1-1.631.561,2.593,2.593,0,0,1-1.818-.749l-5.454-5.454,7.272-7.272,5.454,5.454A2.384,2.384,0,0,1,579.022,454.159Z" transform="translate(-499.101 -374.326)"/><path class="c" d="M540.908,416.009a2.527,2.527,0,0,1-.749,1.818l-3.636,3.636a2.582,2.582,0,0,1-3.636,0l-5.454-5.454,7.272-7.272,5.454,5.454A2.641,2.641,0,0,1,540.908,416.009Z" transform="translate(-490.102 -365.318)"/><path class="d" d="M592.332,435.661l-14.571,14.571,4.064,4.064,3.208,3.208-1.765,1.791-5.481,5.481-7.272-7.272-25.48,25.479-25.505-25.505,10.908-10.908h0l7.271-7.272,10.935,10.935a5.148,5.148,0,0,0,7.272,0l14.571-14.571a5.18,5.18,0,0,0,0-7.3l-18.207-18.207-40.05,40.051-29.142-29.142a15.445,15.445,0,0,1-.187-21.656L497.66,384.65l-4.064-4.064h0l-3.208-3.208,7.272-7.272,1.791,1.791,1.444,1.444,4.037,4.064L530.439,351.9l10.934,10.935L501.3,402.856,519.5,421.064a5.18,5.18,0,0,0,7.3,0l14.57-14.571a5.124,5.124,0,0,0,0-7.272l-10.934-10.934,7.3-7.3,10.908-10.908,43.687,43.686a15.251,15.251,0,0,1,4.492,10.053A15.489,15.489,0,0,1,592.332,435.661Z" transform="translate(-478.564 -351.898)"/></g><g transform="translate(557.042 247.916)"><path class="c" d="M677.848,305.143a2.68,2.68,0,0,1,1.631.561.624.624,0,0,1,.187.187l3.636,3.636.187.187a2.679,2.679,0,0,1,.561,1.631,2.593,2.593,0,0,1-.749,1.818l-5.454,5.454-7.272-7.272,5.454-5.454A2.384,2.384,0,0,1,677.848,305.143Z" transform="translate(-598.015 -266.78)"/><path class="c" d="M639.7,343.259a2.527,2.527,0,0,1,1.818.749l3.636,3.636a2.581,2.581,0,0,1,0,3.635l-5.454,5.454-7.272-7.272,5.454-5.453A2.641,2.641,0,0,1,639.7,343.259Z" transform="translate(-589.007 -275.78)"/><path class="d" d="M659.35,259.438l14.57,14.571,4.064-4.064,3.208-3.208,1.791,1.765,5.481,5.481-7.272,7.272,25.479,25.48L681.166,332.24l-10.908-10.908h0l-7.272-7.272,10.934-10.935a5.148,5.148,0,0,0,0-7.272l-14.57-14.571a5.18,5.18,0,0,0-7.3,0l-18.207,18.207,40.05,40.05-29.142,29.142a15.445,15.445,0,0,1-21.656.187L608.338,354.11l-4.064,4.064h0l-3.208,3.208-7.271-7.272,1.791-1.791,1.444-1.444,4.063-4.037-25.505-25.505L586.522,310.4l40.023,40.077,18.207-18.207a5.179,5.179,0,0,0,0-7.3L630.181,310.4a5.124,5.124,0,0,0-7.272,0l-10.935,10.935-7.3-7.3-10.908-10.908,43.686-43.687a15.254,15.254,0,0,1,10.053-4.491A15.488,15.488,0,0,1,659.35,259.438Z" transform="translate(-575.587 -254.922)"/></g><g transform="translate(321.963 643.926)"><path class="c" d="M368.306,875.6a2.68,2.68,0,0,1-.561,1.631.625.625,0,0,1-.187.187l-3.636,3.636-.187.187a2.68,2.68,0,0,1-1.631.561,2.593,2.593,0,0,1-1.818-.749l-5.454-5.454,7.272-7.272,5.454,5.454A2.384,2.384,0,0,1,368.306,875.6Z" transform="translate(-288.385 -795.764)"/><path class="c" d="M330.191,837.447a2.527,2.527,0,0,1-.749,1.818l-3.635,3.636a2.582,2.582,0,0,1-3.636,0l-5.454-5.454,7.272-7.272,5.454,5.454A2.643,2.643,0,0,1,330.191,837.447Z" transform="translate(-279.386 -786.756)"/><path class="d" d="M381.616,857.1l-14.571,14.571,4.064,4.064,3.208,3.208-1.765,1.791-5.481,5.481-7.272-7.272L334.32,904.422l-25.505-25.505,10.908-10.908h0l7.272-7.272,10.935,10.935a5.148,5.148,0,0,0,7.272,0L359.773,857.1a5.18,5.18,0,0,0,0-7.3l-18.207-18.207-40.05,40.051L272.373,842.5a15.445,15.445,0,0,1-.187-21.656l14.758-14.758-4.064-4.064h0l-3.208-3.208,7.272-7.272,1.791,1.791,1.444,1.444,4.037,4.064,25.506-25.506,10.935,10.935L290.58,824.294,308.788,842.5a5.18,5.18,0,0,0,7.3,0l14.57-14.571a5.124,5.124,0,0,0,0-7.272l-10.935-10.934,7.3-7.3,10.908-10.908L381.616,835.2a15.251,15.251,0,0,1,4.492,10.053A15.489,15.489,0,0,1,381.616,857.1Z" transform="translate(-267.848 -773.336)"/></g><g transform="translate(396.091 569.861)"><path class="c" d="M467.149,726.6a2.68,2.68,0,0,1,1.631.561.626.626,0,0,1,.187.187l3.636,3.636.187.187a2.68,2.68,0,0,1,.561,1.631,2.593,2.593,0,0,1-.749,1.818l-5.454,5.454-7.272-7.272,5.454-5.454A2.384,2.384,0,0,1,467.149,726.6Z" transform="translate(-387.316 -688.235)"/><path class="c" d="M429,764.714a2.526,2.526,0,0,1,1.818.749l3.635,3.636a2.582,2.582,0,0,1,0,3.636L429,778.189l-7.272-7.272,5.454-5.454A2.641,2.641,0,0,1,429,764.714Z" transform="translate(-378.309 -697.235)"/><path class="d" d="M448.651,680.894l14.571,14.571,4.064-4.064,3.208-3.208,1.791,1.765,5.481,5.481-7.272,7.272,25.479,25.479L470.468,753.7,459.56,742.787h0l-7.272-7.272,10.935-10.935a5.148,5.148,0,0,0,0-7.272l-14.571-14.57a5.18,5.18,0,0,0-7.3,0l-18.207,18.207L463.2,760.995l-29.142,29.142a15.445,15.445,0,0,1-21.655.187L397.64,775.566l-4.064,4.064h0l-3.208,3.208-7.272-7.272,1.791-1.791,1.444-1.444,4.064-4.037-25.506-25.506,10.935-10.935,40.024,40.078,18.207-18.207a5.18,5.18,0,0,0,0-7.3l-14.571-14.571a5.123,5.123,0,0,0-7.271,0l-10.935,10.935-7.3-7.3L383.069,724.58l43.686-43.686a15.251,15.251,0,0,1,10.053-4.492A15.489,15.489,0,0,1,448.651,680.894Z" transform="translate(-364.888 -676.377)"/></g><g transform="translate(482.945 482.945)"><path class="c" d="M579.046,664.858a2.677,2.677,0,0,1-.561,1.63.625.625,0,0,1-.187.187l-3.636,3.636-.187.187a2.68,2.68,0,0,1-1.631.561,2.593,2.593,0,0,1-1.818-.749l-5.454-5.453,7.272-7.272,5.454,5.454A2.384,2.384,0,0,1,579.046,664.858Z" transform="translate(-499.125 -585.025)"/><path class="c" d="M540.931,626.708a2.527,2.527,0,0,1-.749,1.818l-3.636,3.636a2.582,2.582,0,0,1-3.636,0l-5.454-5.454,7.272-7.272,5.454,5.454A2.641,2.641,0,0,1,540.931,626.708Z" transform="translate(-490.126 -576.017)"/><path class="d" d="M592.355,646.36l-14.571,14.571,4.064,4.064,3.208,3.208-1.765,1.791-5.481,5.481-7.272-7.272L545.06,693.683l-25.506-25.506,10.908-10.908h0L537.734,650l10.935,10.935a5.148,5.148,0,0,0,7.272,0l14.57-14.571a5.179,5.179,0,0,0,0-7.3l-18.206-18.207L512.255,660.9l-29.142-29.142a15.445,15.445,0,0,1-.187-21.656l14.758-14.758-4.064-4.064h0l-3.208-3.208,7.272-7.272,1.791,1.791,1.444,1.444,4.037,4.064L530.462,562.6,541.4,573.531,501.32,613.555l18.207,18.207a5.18,5.18,0,0,0,7.3,0L541.4,617.191a5.123,5.123,0,0,0,0-7.272l-10.935-10.935,7.3-7.3,10.908-10.908,43.686,43.687a15.251,15.251,0,0,1,4.492,10.053A15.486,15.486,0,0,1,592.355,646.36Z" transform="translate(-478.587 -562.597)"/></g><g transform="translate(557.073 408.879)"><path class="c" d="M677.889,515.859a2.68,2.68,0,0,1,1.631.561.627.627,0,0,1,.187.187l3.636,3.636.187.187a2.68,2.68,0,0,1,.562,1.631,2.593,2.593,0,0,1-.749,1.818l-5.454,5.454-7.272-7.272,5.454-5.454A2.384,2.384,0,0,1,677.889,515.859Z" transform="translate(-598.056 -477.496)"/><path class="c" d="M639.739,553.975a2.527,2.527,0,0,1,1.818.749l3.636,3.636a2.582,2.582,0,0,1,0,3.636l-5.454,5.453-7.272-7.271,5.454-5.454A2.641,2.641,0,0,1,639.739,553.975Z" transform="translate(-589.048 -486.496)"/><path class="d" d="M659.391,470.154l14.57,14.571,4.064-4.064,3.208-3.208,1.791,1.765,5.481,5.481-7.272,7.272,25.479,25.48-25.506,25.505L670.3,532.048h0l-7.272-7.272,10.935-10.935a5.148,5.148,0,0,0,0-7.272L659.391,492a5.18,5.18,0,0,0-7.3,0L633.885,510.2l40.05,40.05L644.794,579.4a15.445,15.445,0,0,1-21.656.187l-14.758-14.758-4.064,4.064h0l-3.208,3.208-7.272-7.272,1.791-1.791,1.444-1.444,4.064-4.037-25.505-25.505,10.935-10.935,40.023,40.077,18.207-18.207a5.179,5.179,0,0,0,0-7.3l-14.571-14.571a5.124,5.124,0,0,0-7.272,0l-10.935,10.935-7.3-7.3-10.908-10.908,43.687-43.686a15.251,15.251,0,0,1,10.053-4.492A15.491,15.491,0,0,1,659.391,470.154Z" transform="translate(-575.628 -465.638)"/></g><g transform="translate(643.926 321.963)"><path class="c" d="M789.785,454.118a2.68,2.68,0,0,1-.561,1.631.625.625,0,0,1-.187.187l-3.636,3.636-.187.187a2.68,2.68,0,0,1-1.631.561,2.593,2.593,0,0,1-1.818-.749l-5.454-5.454,7.272-7.272,5.454,5.454A2.384,2.384,0,0,1,789.785,454.118Z" transform="translate(-709.864 -374.285)"/><path class="c" d="M751.67,415.968a2.526,2.526,0,0,1-.749,1.818l-3.636,3.636a2.581,2.581,0,0,1-3.635,0l-5.454-5.454,7.272-7.271,5.453,5.453A2.641,2.641,0,0,1,751.67,415.968Z" transform="translate(-700.865 -365.278)"/><path class="d" d="M803.1,435.62l-14.571,14.571,4.064,4.064,3.208,3.208-1.765,1.791-5.481,5.481-7.272-7.272L755.8,482.943l-25.505-25.506L741.2,446.529h0l7.272-7.272,10.935,10.935a5.148,5.148,0,0,0,7.272,0l14.571-14.571a5.18,5.18,0,0,0,0-7.3l-18.207-18.207-40.05,40.051-29.142-29.142a15.445,15.445,0,0,1-.187-21.655l14.758-14.758-4.064-4.064h0l-3.208-3.208,7.272-7.272,1.791,1.791,1.444,1.444,4.037,4.064L741.2,351.857l10.935,10.935-40.077,40.023,18.207,18.207a5.179,5.179,0,0,0,7.3,0l14.571-14.571a5.123,5.123,0,0,0,0-7.271L741.2,388.245l7.3-7.3,10.908-10.908L803.1,413.724a15.253,15.253,0,0,1,4.491,10.053A15.488,15.488,0,0,1,803.1,435.62Z" transform="translate(-689.326 -351.857)"/></g><g transform="translate(396.06 730.86)"><path class="c" d="M467.108,937.361a2.68,2.68,0,0,1,1.631.562.622.622,0,0,1,.187.187l3.636,3.636.187.187a2.681,2.681,0,0,1,.561,1.631,2.593,2.593,0,0,1-.749,1.818l-5.454,5.454-7.272-7.272,5.454-5.454A2.384,2.384,0,0,1,467.108,937.361Z" transform="translate(-387.275 -898.997)"/><path class="c" d="M428.959,975.477a2.527,2.527,0,0,1,1.818.749l3.636,3.636a2.582,2.582,0,0,1,0,3.636l-5.454,5.454-7.272-7.272,5.454-5.454A2.641,2.641,0,0,1,428.959,975.477Z" transform="translate(-378.268 -907.997)"/><path class="d" d="M448.61,891.657l14.571,14.571,4.064-4.064,3.208-3.208,1.791,1.765,5.481,5.481-7.272,7.272,25.48,25.479-25.506,25.506L459.519,953.55h0l-7.272-7.272,10.935-10.935a5.148,5.148,0,0,0,0-7.272L448.61,913.5a5.18,5.18,0,0,0-7.3,0L423.1,931.707l40.05,40.051L434.013,1000.9a15.445,15.445,0,0,1-21.656.187L397.6,986.329l-4.064,4.063h0l-3.208,3.208-7.272-7.271,1.791-1.791,1.444-1.444,4.064-4.037L364.847,953.55l10.935-10.935,40.024,40.077,18.207-18.207a5.18,5.18,0,0,0,0-7.3l-14.57-14.571a5.124,5.124,0,0,0-7.272,0L401.235,953.55l-7.3-7.3-10.908-10.908,43.686-43.686a15.251,15.251,0,0,1,10.053-4.492A15.489,15.489,0,0,1,448.61,891.657Z" transform="translate(-364.847 -887.14)"/></g><g transform="translate(482.927 643.958)"><path class="c" d="M579.022,875.638a2.68,2.68,0,0,1-.561,1.631.627.627,0,0,1-.187.187l-3.636,3.636-.187.187a2.68,2.68,0,0,1-1.631.561,2.593,2.593,0,0,1-1.818-.749l-5.454-5.454,7.272-7.272,5.454,5.454A2.384,2.384,0,0,1,579.022,875.638Z" transform="translate(-499.101 -795.805)"/><path class="c" d="M540.908,837.488a2.527,2.527,0,0,1-.749,1.818l-3.636,3.636a2.582,2.582,0,0,1-3.636,0l-5.454-5.454,7.272-7.272,5.454,5.454A2.641,2.641,0,0,1,540.908,837.488Z" transform="translate(-490.102 -786.797)"/><path class="d" d="M592.332,857.14l-14.571,14.571,4.064,4.064,3.208,3.208-1.765,1.791-5.481,5.481-7.272-7.271-25.48,25.479-25.505-25.505,10.908-10.908h0l7.271-7.272,10.935,10.935a5.148,5.148,0,0,0,7.272,0l14.571-14.571a5.18,5.18,0,0,0,0-7.3l-18.207-18.207-40.05,40.051-29.142-29.142a15.445,15.445,0,0,1-.187-21.656l14.758-14.758-4.064-4.064h0l-3.208-3.208,7.272-7.272,1.791,1.791,1.444,1.444,4.037,4.064,25.506-25.506,10.934,10.935L501.3,824.335,519.5,842.543a5.18,5.18,0,0,0,7.3,0l14.57-14.571a5.124,5.124,0,0,0,0-7.272l-10.934-10.935,7.3-7.3,10.908-10.908,43.687,43.686a15.251,15.251,0,0,1,4.492,10.053A15.489,15.489,0,0,1,592.332,857.14Z" transform="translate(-478.564 -773.377)"/></g><g transform="translate(557.042 569.878)"><path class="c" d="M677.848,726.622a2.68,2.68,0,0,1,1.631.561.625.625,0,0,1,.187.187l3.636,3.636.187.187a2.679,2.679,0,0,1,.561,1.631,2.593,2.593,0,0,1-.749,1.818l-5.454,5.454-7.272-7.272,5.454-5.454A2.384,2.384,0,0,1,677.848,726.622Z" transform="translate(-598.015 -688.258)"/><path class="c" d="M639.7,764.737a2.527,2.527,0,0,1,1.818.749l3.636,3.636a2.582,2.582,0,0,1,0,3.636l-5.454,5.454-7.272-7.272,5.454-5.454A2.64,2.64,0,0,1,639.7,764.737Z" transform="translate(-589.007 -697.257)"/><path class="d" d="M659.35,680.917l14.57,14.571,4.064-4.064,3.208-3.208,1.791,1.765,5.481,5.481-7.272,7.272,25.479,25.48-25.506,25.505L670.259,742.81h0l-7.272-7.271L673.921,724.6a5.148,5.148,0,0,0,0-7.272L659.35,702.76a5.18,5.18,0,0,0-7.3,0l-18.207,18.207,40.05,40.05L644.753,790.16a15.445,15.445,0,0,1-21.656.187l-14.758-14.758-4.064,4.064h0l-3.208,3.208-7.271-7.272,1.791-1.791,1.444-1.444,4.063-4.037L575.587,742.81l10.935-10.934,40.023,40.077,18.207-18.207a5.18,5.18,0,0,0,0-7.3l-14.571-14.57a5.124,5.124,0,0,0-7.272,0l-10.935,10.935-7.3-7.3L593.768,724.6l43.686-43.687a15.25,15.25,0,0,1,10.053-4.492A15.488,15.488,0,0,1,659.35,680.917Z" transform="translate(-575.587 -676.4)"/></g><g transform="translate(643.909 482.976)"><path class="c" d="M789.762,664.9a2.68,2.68,0,0,1-.561,1.631.626.626,0,0,1-.187.187l-3.636,3.636-.187.187a2.68,2.68,0,0,1-1.631.562,2.593,2.593,0,0,1-1.818-.749l-5.454-5.454,7.272-7.272,5.454,5.453A2.384,2.384,0,0,1,789.762,664.9Z" transform="translate(-709.841 -585.066)"/><path class="c" d="M751.647,626.749a2.526,2.526,0,0,1-.749,1.818l-3.636,3.636a2.582,2.582,0,0,1-3.636,0l-5.454-5.454,7.272-7.272,5.454,5.454A2.641,2.641,0,0,1,751.647,626.749Z" transform="translate(-700.842 -576.058)"/><path class="d" d="M803.071,646.4,788.5,660.972l4.064,4.064,3.208,3.208-1.765,1.791-5.481,5.481-7.272-7.272-25.479,25.48L730.27,668.217l10.908-10.908h0l7.272-7.272,10.935,10.935a5.147,5.147,0,0,0,7.272,0l14.57-14.571a5.18,5.18,0,0,0,0-7.3L763.021,620.9l-40.051,40.05L693.829,631.8a15.445,15.445,0,0,1-.187-21.656L708.4,595.389l-4.064-4.064h0l-3.208-3.208,7.271-7.272,1.791,1.791,1.444,1.444,4.037,4.064,25.506-25.505,10.935,10.934L712.036,613.6,730.243,631.8a5.18,5.18,0,0,0,7.3,0l14.571-14.571a5.124,5.124,0,0,0,0-7.272l-10.935-10.935,7.3-7.3,10.908-10.908L803.071,624.5a15.25,15.25,0,0,1,4.492,10.053A15.488,15.488,0,0,1,803.071,646.4Z" transform="translate(-689.303 -562.638)"/></g><g transform="translate(718.023 408.897)"><path class="c" d="M888.587,515.882a2.679,2.679,0,0,1,1.631.561.623.623,0,0,1,.187.187l3.636,3.636.187.187a2.679,2.679,0,0,1,.561,1.631,2.593,2.593,0,0,1-.749,1.818l-5.454,5.454-7.272-7.272,5.454-5.454A2.384,2.384,0,0,1,888.587,515.882Z" transform="translate(-808.754 -477.519)"/><path class="c" d="M850.438,554a2.526,2.526,0,0,1,1.818.749l3.635,3.636a2.582,2.582,0,0,1,0,3.636l-5.453,5.454-7.272-7.272,5.454-5.454A2.641,2.641,0,0,1,850.438,554Z" transform="translate(-799.747 -486.518)"/><path class="d" d="M870.089,470.178l14.571,14.571,4.064-4.064,3.208-3.208,1.791,1.765,5.481,5.481-7.272,7.272,25.479,25.479L891.906,542.98,881,532.071h0l-7.272-7.272,10.935-10.935a5.148,5.148,0,0,0,0-7.272l-14.571-14.57a5.18,5.18,0,0,0-7.3,0l-18.207,18.207,40.051,40.051L855.492,579.42a15.444,15.444,0,0,1-21.656.187L819.078,564.85l-4.064,4.064h0l-3.208,3.208-7.272-7.271,1.791-1.791,1.444-1.444,4.064-4.037-25.506-25.506,10.935-10.935,40.024,40.077,18.207-18.207a5.18,5.18,0,0,0,0-7.3l-14.57-14.571a5.124,5.124,0,0,0-7.272,0l-10.935,10.935-7.3-7.3-10.908-10.908,43.686-43.686a15.251,15.251,0,0,1,10.053-4.492A15.489,15.489,0,0,1,870.089,470.178Z" transform="translate(-786.326 -465.661)"/></g></g></g></svg>