<svg xmlns="http://www.w3.org/2000/svg" width="50" height="50" viewBox="0 0 50 50"><defs><style>.a{fill:#534a99;}</style></defs><path class="a" d="M44.643,2.25H5.357A5.359,5.359,0,0,0,0,7.607V46.893A5.359,5.359,0,0,0,5.357,52.25H44.643A5.359,5.359,0,0,0,50,46.893V7.607A5.359,5.359,0,0,0,44.643,2.25ZM39.185,19.973c.022.312.022.636.022.949,0,9.676-7.366,20.826-20.826,20.826A20.73,20.73,0,0,1,7.143,38.467a15.421,15.421,0,0,0,1.763.089,14.676,14.676,0,0,0,9.085-3.125,7.329,7.329,0,0,1-6.842-5.078,7.889,7.889,0,0,0,3.3-.134,7.32,7.32,0,0,1-5.859-7.187v-.089a7.315,7.315,0,0,0,3.3.926,7.3,7.3,0,0,1-3.259-6.094,7.228,7.228,0,0,1,.993-3.694,20.784,20.784,0,0,0,15.089,7.656A7.335,7.335,0,0,1,37.21,15.051a14.343,14.343,0,0,0,4.643-1.763,7.3,7.3,0,0,1-3.214,4.029,14.567,14.567,0,0,0,4.219-1.138A15.407,15.407,0,0,1,39.185,19.973Z" transform="translate(0 -2.25)"/></svg>