<svg xmlns="http://www.w3.org/2000/svg" width="266.285" height="60.7" viewBox="0 0 266.285 60.7"><defs><style>.a{fill:#fff;}.b{fill:#f29323;}</style></defs><g transform="translate(-126.103 -43)"><g transform="translate(190.84 43.062)"><path class="a" d="M109.569,536.754a9.2,9.2,0,0,1-5.032-1.121,4.134,4.134,0,0,1-1.7-3.729c0-.121.1-.182.3-.182a6.8,6.8,0,0,1,1.515.3,18.671,18.671,0,0,0,4.185.3,37.279,37.279,0,0,0,9.64-1.182,27.4,27.4,0,0,0,7.67-3.244,17.287,17.287,0,0,0,5.032-4.638,9.2,9.2,0,0,0,1.788-5.305,5.687,5.687,0,0,0-1.394-4,8.786,8.786,0,0,0-3.667-2.3,21.88,21.88,0,0,0-4.941-1.062,51.739,51.739,0,0,0-5.276-.273q-1.153,0-2.335.03t-2.214.029q-1.4,4.91-2.729,9.884t-2.729,9.64a3.873,3.873,0,0,1-2.547-.85,2.582,2.582,0,0,1-1.032-2.062,5.8,5.8,0,0,1,.3-1.7q.3-.968.547-1.759.362-1.212,1.273-4.061t2.214-6.67q1.3-3.82,2.879-8t3.244-8.187q1.666-4,3.244-7.093a17.263,17.263,0,0,0-4.276,1.212,20.61,20.61,0,0,0-2.7,1.426,3.2,3.2,0,0,1-1.394.635,1.573,1.573,0,0,1-.759-.273,3.668,3.668,0,0,1-.818-.667,1.122,1.122,0,0,1-.365-.7q3.033-1.275,6.337-2.3a27.228,27.228,0,0,1,8.034-1.032,32.794,32.794,0,0,1,4.426.332,16.318,16.318,0,0,1,4.608,1.335,9.006,9.006,0,0,1,3.579,2.911,8.409,8.409,0,0,1,1.394,5.064,9.561,9.561,0,0,1-1.273,5.064,10.869,10.869,0,0,1-3.335,3.456,18.4,18.4,0,0,1-4.488,2.153,30.8,30.8,0,0,1-4.79,1.153,25.06,25.06,0,0,1,7.246,1.273,11.641,11.641,0,0,1,4.185,2.456,7.338,7.338,0,0,1,1.909,3,10.326,10.326,0,0,1,.485,3.032,11.571,11.571,0,0,1-1.82,6.367,18.015,18.015,0,0,1-4.79,4.973,31.529,31.529,0,0,1-6.487,3.547,39.458,39.458,0,0,1-6.973,2.123A31.644,31.644,0,0,1,109.569,536.754Zm3.941-27.77a43.282,43.282,0,0,0,6.64-.759,22.523,22.523,0,0,0,6.034-2.032,12.4,12.4,0,0,0,4.4-3.638,9.1,9.1,0,0,0,1.667-5.579,7.151,7.151,0,0,0-1.485-4.852,7.805,7.805,0,0,0-3.82-2.364,17.962,17.962,0,0,0-4.941-.667h-.576a2.832,2.832,0,0,0-.576.062,74.088,74.088,0,0,0-3.973,9.337Q115.085,503.587,113.51,508.984Z" transform="translate(-102.84 -487.82)"/><path class="a" d="M250.16,601.713a4.151,4.151,0,0,1-3.7-1.606,6.8,6.8,0,0,1-1.091-3.911,13.384,13.384,0,0,1,.606-3.882,18.375,18.375,0,0,1,1.606-3.758,10.915,10.915,0,0,1,2.244-2.85,3.822,3.822,0,0,1,2.517-1.091,2.372,2.372,0,0,1,.635.091,6.6,6.6,0,0,1,.635.212,7.673,7.673,0,0,0-1.3,1.788,22.934,22.934,0,0,0-1.426,2.97,31.7,31.7,0,0,0-1.121,3.305,10.735,10.735,0,0,0-.456,2.791,4.5,4.5,0,0,0,.606,2.638,1.871,1.871,0,0,0,1.576.818,5.308,5.308,0,0,0,3.032-1.365,20.786,20.786,0,0,0,3.456-3.487,9.155,9.155,0,0,1-2.638-3.667,12.017,12.017,0,0,1-.941-4.638,10.083,10.083,0,0,1,.7-3.758,6.645,6.645,0,0,1,2.032-2.82,5.006,5.006,0,0,1,3.214-1.062q2.486,0,3.335,1.335a6.1,6.1,0,0,1,.85,3.335,14.25,14.25,0,0,1-1.153,5.244,30.943,30.943,0,0,1-2.911,5.549,4.672,4.672,0,0,0,2.3.606,7.121,7.121,0,0,0,2.182-.394,7.411,7.411,0,0,0,2.394-1.364,6.916,6.916,0,0,0,1.909-2.608l.727.606a7.806,7.806,0,0,1-3.426,4.032,8.961,8.961,0,0,1-4.214,1.182,7.217,7.217,0,0,1-1.515-.153,6.47,6.47,0,0,1-1.394-.456,22.337,22.337,0,0,1-4.517,4.547A8.041,8.041,0,0,1,250.16,601.713Zm8.914-8.913a25.731,25.731,0,0,0,2.517-4.7,12.3,12.3,0,0,0,1-4.638,4.982,4.982,0,0,0-.515-2.576,1.511,1.511,0,0,0-1.3-.818q-1.215,0-2.485,1.759a7.347,7.347,0,0,0-1.273,4.426,12.8,12.8,0,0,0,.515,3.547A7.944,7.944,0,0,0,259.074,592.8Z" transform="translate(-210.265 -556.113)"/><path class="a" d="M350.228,612.133a4.245,4.245,0,0,1-3.182-1.091,3.836,3.836,0,0,1-1.062-2.788,8.607,8.607,0,0,1,.456-2.667q.454-1.393.879-2.879a10.453,10.453,0,0,0,.424-2.879,3.11,3.11,0,0,0-.7-2.335,2.473,2.473,0,0,0-1.729-.635,6.155,6.155,0,0,0-3.82,1.547,22.1,22.1,0,0,0-3.759,3.941q-1.818,2.4-3.4,4.941t-2.788,4.547a5.182,5.182,0,0,1-1.85-.333,2.923,2.923,0,0,1-1.364-1,8.908,8.908,0,0,1,.635-1.879q.635-1.577,1.485-3.881t1.515-4.729a16.876,16.876,0,0,0,.668-4.426,4,4,0,0,1,1.153-.85,3.4,3.4,0,0,1,1.638-.424q1.637,0,1.638,1.576a16.065,16.065,0,0,1-.547,3.244q-.547,2.276-1.394,4.761a56.161,56.161,0,0,1,3.667-4.941,22.747,22.747,0,0,1,4.335-4.094,7.925,7.925,0,0,1,4.608-1.638,3.736,3.736,0,0,1,3.426,1.7,6.962,6.962,0,0,1,1.062,3.758,9.807,9.807,0,0,1-.606,3.488q-.606,1.607-1.244,3.094a7.578,7.578,0,0,0-.635,3,2.489,2.489,0,0,0,.515,1.788,1.76,1.76,0,0,0,1.3.515,4.479,4.479,0,0,0,3.032-1.426,19.717,19.717,0,0,0,2.941-3.608,41.171,41.171,0,0,0,2.517-4.426l.667.788a30.891,30.891,0,0,1-2.85,5.276,14.278,14.278,0,0,1-3.456,3.638A7.1,7.1,0,0,1,350.228,612.133Z" transform="translate(-272.8 -567.26)"/><path class="a" d="M431.149,612.855a1.288,1.288,0,0,1-.941-.515,4.033,4.033,0,0,1-.7-1.091,3.079,3.079,0,0,1-.241-.7q.85-2.97,1.667-5.305t1.638-4.791q.82-2.457,1.606-5.761t1.638-8.217q.85-4.91,1.7-12.187a1.642,1.642,0,0,1,.241-.788c.121-.16.424-.244.909-.244a2.642,2.642,0,0,1,2.244.879,3.106,3.106,0,0,1,.667,1.909,21.733,21.733,0,0,1-.365,3.032q-.362,2.184-1.032,5.155a28.963,28.963,0,0,1,2.576-4.064,15.6,15.6,0,0,1,3.547-3.456,7.486,7.486,0,0,1,4.367-1.394,5.669,5.669,0,0,1,4.4,1.909,7.168,7.168,0,0,1,1.729,5,13.428,13.428,0,0,1-1.062,5,19.063,19.063,0,0,1-2.97,4.973A15.66,15.66,0,0,1,448.247,596a11.621,11.621,0,0,1-5.761,1.456,7.354,7.354,0,0,1-2.547-.364c-.648-.241-.97-.485-.97-.727,0-.162.153-.254.456-.273s.658-.03,1.062-.03a9.713,9.713,0,0,0,4.638-1.182,14.673,14.673,0,0,0,3.973-3.123,15.187,15.187,0,0,0,2.758-4.305,11.909,11.909,0,0,0,1-4.67,6.332,6.332,0,0,0-.818-3.305,2.846,2.846,0,0,0-2.638-1.365,5.7,5.7,0,0,0-3.123,1,14.152,14.152,0,0,0-2.911,2.547,25.758,25.758,0,0,0-2.426,3.214,19.4,19.4,0,0,0-1.606,3q-1.09,4.548-2.182,8.761t-2.091,7.64q-1,3.425-1.82,5.608a7.906,7.906,0,0,1-1.365,2.667A.988.988,0,0,1,431.149,612.855Z" transform="translate(-348.871 -552.216)"/><path class="a" d="M552.619,600.957a6.7,6.7,0,0,1-7.4-7.034,14.067,14.067,0,0,1,1.365-5.761,23.861,23.861,0,0,1,3.638-5.7,20.856,20.856,0,0,1,5-4.335,10.312,10.312,0,0,1,5.4-1.667,4.824,4.824,0,0,1,2.576.727q1.182.728,1.182,2.97a7.634,7.634,0,0,1-1.365,4.335,14.092,14.092,0,0,1-3.579,3.608,21.4,21.4,0,0,1-4.852,2.576,20,20,0,0,1-5.244,1.244q-.122.606-.182,1.153a9.021,9.021,0,0,0-.062,1.03,7.931,7.931,0,0,0,.212,1.82,4.6,4.6,0,0,0,.759,1.667,3.635,3.635,0,0,0,1.485,1.182,5.662,5.662,0,0,0,2.335.424,10.145,10.145,0,0,0,5.155-1.485,19.785,19.785,0,0,0,4.729-3.911,25.682,25.682,0,0,0,3.7-5.337l.727.547a22.666,22.666,0,0,1-4.152,6.305,19.76,19.76,0,0,1-5.458,4.152A13.072,13.072,0,0,1,552.619,600.957Zm-2.973-10.187a28.168,28.168,0,0,0,7.672-4.123,14.772,14.772,0,0,0,3.153-3.214,6.313,6.313,0,0,0,1.244-3.7,1.853,1.853,0,0,0-.244-1.032,1.174,1.174,0,0,0-1.03-.365,5.557,5.557,0,0,0-3.094,1.121A15.77,15.77,0,0,0,554.2,582.4a25.765,25.765,0,0,0-2.729,4A20.012,20.012,0,0,0,549.646,590.77Z" transform="translate(-436.263 -554.628)"/><path class="a" d="M631.257,533.321a4.772,4.772,0,0,1-2.091-.515,4.218,4.218,0,0,1-1.759-1.667,5.533,5.533,0,0,1-.7-2.911,12.533,12.533,0,0,1,.97-4.488,25.637,25.637,0,0,1,2.608-4.941,29.028,29.028,0,0,1,3.758-4.547,19.6,19.6,0,0,1,4.426-3.335,9.541,9.541,0,0,1,4.547-1.244,3.6,3.6,0,0,1,1.97.456,1.583,1.583,0,0,1,.7,1.426,2.646,2.646,0,0,1-.03.424c-.02.121-.052.263-.091.424a1.7,1.7,0,0,0-.879-.7,4.185,4.185,0,0,0-1.426-.212,6.961,6.961,0,0,0-3.791,1.182,14.3,14.3,0,0,0-3.4,3.094,26.131,26.131,0,0,0-4.488,8.308,11.876,11.876,0,0,0-.635,3.426,3.4,3.4,0,0,0,.606,2.123,1.9,1.9,0,0,0,1.576.788q1.637,0,3.973-2.061a28.1,28.1,0,0,0,4.761-5.82,48.269,48.269,0,0,0,4.367-8.793q1.334-3.517,2.759-7.155t2.879-7q1.456-3.366,2.82-6A25.326,25.326,0,0,1,657.3,489.4q1.241-1.548,2.214-1.547a1.133,1.133,0,0,1,.85.394,1.424,1.424,0,0,1,.365,1,10.094,10.094,0,0,1-1,3.305q-1,2.335-2.608,5.579t-3.364,7.064q-1.759,3.82-3.365,7.761a66.8,66.8,0,0,0-2.608,7.611,25.634,25.634,0,0,0-1,6.7,13.18,13.18,0,0,0,.182,2.547,1.07,1.07,0,0,0,1.212.85,5.731,5.731,0,0,0,2.97-1.091,15.711,15.711,0,0,0,3.4-3.094,20.538,20.538,0,0,0,2.97-4.79l.727.547a19.534,19.534,0,0,1-3.153,5.549,17.692,17.692,0,0,1-4.276,3.882,8.236,8.236,0,0,1-4.335,1.426,3.325,3.325,0,0,1-3.123-1.485,5.931,5.931,0,0,1-.879-3.061,16.336,16.336,0,0,1,.3-2.729q.3-1.7.85-3.759a44.4,44.4,0,0,1-4.123,5.791,22.814,22.814,0,0,1-4.276,4.032A7.088,7.088,0,0,1,631.257,533.321Z" transform="translate(-497.682 -487.842)"/><path class="a" d="M750.53,570.717a4.174,4.174,0,0,1-3.517-1.485,5.707,5.707,0,0,1-1.153-3.608,15.572,15.572,0,0,1,.515-3.517,42.019,42.019,0,0,1,1.365-4.456,32.154,32.154,0,0,1,1.97-4.4,15.166,15.166,0,0,1,2.394-3.365,3.592,3.592,0,0,1,2.485-1.3,1.413,1.413,0,0,1,.941.333,1.234,1.234,0,0,1,.394,1,5.748,5.748,0,0,1-.941,2.364q-.942,1.637-2.214,3.759a31.81,31.81,0,0,0-2.214,4.456,11.905,11.905,0,0,0-.941,4.455,4.214,4.214,0,0,0,.729,2.911,3.054,3.054,0,0,0,2.244.727,6.869,6.869,0,0,0,4.4-2.062,24.653,24.653,0,0,0,4.941-7.217l.547.606a17.472,17.472,0,0,1-5.064,8A10.528,10.528,0,0,1,750.53,570.717Zm7.276-27.77a3.122,3.122,0,0,1-1.729-.485,1.671,1.671,0,0,1-.759-1.517,2.66,2.66,0,0,1,1.485-2.214,5.485,5.485,0,0,1,2.941-.941,2.324,2.324,0,0,1,1.456.424,1.737,1.737,0,0,1,.547,1.456,2.973,2.973,0,0,1-1.244,2.214A4.051,4.051,0,0,1,757.805,542.947Z" transform="translate(-587.486 -525.483)"/><path class="a" d="M804.515,604.28a4.43,4.43,0,0,1-3.182-1.244,5.009,5.009,0,0,1-1.3-3.791,13.146,13.146,0,0,1,.97-4.7,23.857,23.857,0,0,1,2.668-4.973,28.187,28.187,0,0,1,3.85-4.487,19.358,19.358,0,0,1,4.547-3.244,10.468,10.468,0,0,1,4.761-1.212,6.162,6.162,0,0,1,3.941,1.244,4,4,0,0,1,1.576,3.305,2.308,2.308,0,0,1-.818,2.061,3.81,3.81,0,0,1-2.153.544c.081-.323.153-.677.212-1.062a6.709,6.709,0,0,0,.091-1.062,4.2,4.2,0,0,0-.667-2.394,2.56,2.56,0,0,0-2.3-1,6.182,6.182,0,0,0-3.456,1.182,16.384,16.384,0,0,0-3.4,3.153,27.45,27.45,0,0,0-2.911,4.276,26,26,0,0,0-2,4.547,13.146,13.146,0,0,0-.727,4q0,2.365,1.638,2.365a5.021,5.021,0,0,0,3.032-1.3,24.651,24.651,0,0,0,3.364-3.335q1.729-2.032,3.305-4.214t2.788-4c.16-.241.264-.365.3-.365a7.666,7.666,0,0,1,.941.241,3.526,3.526,0,0,1,1,.485.927.927,0,0,1,.424.788,3.262,3.262,0,0,1-.547,1.485q-.547.942-1.212,2.153t-1.212,2.456a5.819,5.819,0,0,0-.547,2.335,3.638,3.638,0,0,0,.485,1.788,1.664,1.664,0,0,0,1.576.879q1.637,0,4.305-2.394a28.868,28.868,0,0,0,5.4-7.185l.606.606a21.67,21.67,0,0,1-3.273,5.761,16.916,16.916,0,0,1-4.276,3.882,8.519,8.519,0,0,1-4.456,1.394,3.97,3.97,0,0,1-3.305-1.335A4.58,4.58,0,0,1,813.49,599a6,6,0,0,1,.062-.818c.039-.3.081-.616.121-.941a29.754,29.754,0,0,1-4.761,5.276A6.906,6.906,0,0,1,804.515,604.28Z" transform="translate(-628.314 -557.771)"/></g><g transform="translate(126.103 43)"><path class="b" d="M545.507,317.809a1.2,1.2,0,0,1-.265.758c-.026.032-.052.057-.083.089l-1.682,1.682c-.028.028-.059.059-.088.083a1.234,1.234,0,0,1-.758.265,1.188,1.188,0,0,1-.844-.352l-2.528-2.528,3.367-3.367,2.528,2.529A1.16,1.16,0,0,1,545.507,317.809Z" transform="translate(-508.501 -280.84)"/><path class="b" d="M436.567,208.852a1.2,1.2,0,0,1-.35.843l-1.682,1.682a1.191,1.191,0,0,1-1.687,0l-2.528-2.528,3.369-3.369,2.528,2.528A1.176,1.176,0,0,1,436.567,208.852Z" transform="translate(-413.046 -185.367)"/><path class="a" d="M343.443,81.788l-6.74,6.74,1.877,1.879,1.49,1.49-.822.826L336.7,95.267,333.335,91.9l-11.8,11.8L309.726,91.891l5.052-5.055,0,0,3.369-3.369,5.059,5.059a2.386,2.386,0,0,0,3.369,0l6.747-6.747a2.387,2.387,0,0,0,0-3.373L324.9,69.98l-18.543,18.54L292.867,75.033A7.156,7.156,0,0,1,292.779,65l6.828-6.828L297.732,56.3h0l-1.49-1.49,3.369-3.369.829.826.665.665,1.875,1.879L314.78,43l5.059,5.063L301.3,66.6l8.432,8.432a2.384,2.384,0,0,0,3.373,0l6.74-6.744a2.386,2.386,0,0,0,0-3.369l-5.059-5.059,3.373-3.377,5.052-5.055,20.231,20.231a7.163,7.163,0,0,1,0,10.124Z" transform="translate(-290.77 -43)"/></g></g></svg>