<?xml version="1.0" encoding="utf-8"?>
<!-- Generator: Adobe Illustrator 24.1.1, SVG Export Plug-In . SVG Version: 6.00 Build 0)  -->
<svg version="1.1" id="Ebene_1" xmlns="http://www.w3.org/2000/svg" xmlns:xlink="http://www.w3.org/1999/xlink" x="0px" y="0px"
	 viewBox="0 0 841.9 595.3" style="enable-background:new 0 0 841.9 595.3;" xml:space="preserve">
<style type="text/css">
	.st0{fill:#F29325;}
	.st1{fill:#FFFFFF;}
</style>
<g>
	<path class="st0" d="M118.6,315.3c0,0.7-0.2,1.4-0.7,2c-0.1,0.1-0.1,0.2-0.2,0.2l-4.6,4.6c-0.1,0.1-0.2,0.2-0.2,0.2
		c-0.6,0.5-1.3,0.7-2,0.7c-0.8,0-1.7-0.3-2.3-0.9l-6.8-6.8l9.1-9.1l6.8,6.8C118.3,313.7,118.6,314.5,118.6,315.3z"/>
	<path class="st0" d="M82.1,278.9c0,0.8-0.3,1.6-0.9,2.3l-4.6,4.6c-0.6,0.6-1.5,0.9-2.3,0.9c-0.8,0-1.7-0.3-2.3-0.9l-6.8-6.8
		l9.1-9.1l6.8,6.8C81.8,277.2,82.1,278,82.1,278.9z"/>
	<path class="st1" d="M161,320.3l-18.2,18.2l5.1,5.1l4,4l-2.2,2.2l-6.9,6.9l-9.1-9.1l-31.9,31.9l-31.9-31.9l13.7-13.7l0,0l9.1-9.1
		l13.7,13.7c2.5,2.5,6.6,2.5,9.1,0l18.2-18.2c2.5-2.5,2.5-6.6,0-9.1l-22.8-22.8l-50.1,50.1L24.2,302c-7.5-7.5-7.6-19.5-0.2-27.1
		l18.5-18.5l-5.1-5l0,0l-4-4l9.1-9.1l2.2,2.2l1.8,1.8l5.1,5.1l31.9-32l13.7,13.7L47,279.2L69.8,302c2.5,2.5,6.6,2.5,9.1,0l18.2-18.2
		c2.5-2.5,2.5-6.6,0-9.1L83.5,261l9.1-9.1l13.7-13.7l54.7,54.7c3.5,3.5,5.4,8,5.6,12.6C166.9,310.8,165,316.2,161,320.3z"/>
	<g>
		<path class="st0" d="M268.2,319.5c0,10.5-3,19.2-9,26.2c-6.4,7.5-14.7,11.2-24.9,11.2c-7.5,0-13.5-2.1-18.1-6.4
			c-0.4-0.3-0.6-0.4-0.9-0.4c-0.5,0-1,0.9-1.4,2.8c-0.4,1.8-0.9,2.9-1.5,3.1c-0.8,0.2-7.9,0.4-21.3,0.4c-3.1,0-4.7-0.6-4.7-1.7
			c0-0.1,0-0.5,0.1-1.1c1-7.9,1.5-23,1.5-45.2c0-21.3-0.7-39.7-2.2-55.5l-0.1-0.8c0-0.8,0.8-1.2,2.3-1.3c1.1,0,5.4-0.4,13-1.1
			c5.3-0.5,9.7-0.7,13-0.7c0.9,0,1.4,0.8,1.4,2.5c0,1.9-0.1,4.5-0.4,7.7c-0.3,3.9-0.5,6.5-0.5,7.8c-0.3,4.9-0.4,11.6-0.4,20.2
			c0,1.5,0.4,2.3,1.2,2.3c0.4,0,0.8-0.2,1.1-0.6c4.5-4.8,10.4-7.2,17.6-7.2c10.9,0,19.4,3.7,25.5,11.1
			C265.3,299.3,268.2,308.3,268.2,319.5z M241.1,318.7c0-4.1-1.3-7.6-3.8-10.5c-2.5-2.9-5.8-4.3-9.9-4.3c-4.2,0-7.5,1.4-9.9,4.3
			c-2.4,2.9-3.6,6.4-3.6,10.6c0,4.4,1.2,7.9,3.5,10.6c2.5,2.8,5.9,4.3,10.2,4.3c4.2,0,7.6-1.5,10.1-4.4
			C240,326.5,241.1,323,241.1,318.7z"/>
		<path class="st1" d="M349.1,319.3c0,11.3-3.5,20.6-10.4,27.6c-6.9,7.1-16.1,10.6-27.4,10.6c-10.9,0-20-3.5-27-10.5
			c-7.1-7-10.6-15.9-10.6-26.9c0-11.5,3.4-20.9,10.2-28.1c6.8-7.2,15.9-10.8,27.5-10.8c11.2,0,20.4,3.5,27.3,10.6
			C345.6,298.9,349.1,308,349.1,319.3z M324.6,319.3c0-3.9-1.2-7.4-3.7-10.4c-2.4-3-5.6-4.5-9.5-4.5c-3.9,0-7.2,1.5-9.7,4.6
			c-2.4,2.9-3.6,6.3-3.6,10.3c0,4,1.2,7.5,3.6,10.4c2.5,3.1,5.8,4.6,9.7,4.6c3.9,0,7.1-1.5,9.6-4.6
			C323.4,326.8,324.6,323.3,324.6,319.3z"/>
		<path class="st1" d="M432.3,353.8c0,1.3-0.7,2.1-2.1,2.3c-1.4,0.2-5,0.3-10.9,0.3c-6.3,0-10.2-0.1-11.6-0.4
			c-1.5-0.3-2.2-1.3-2.2-3.1c0-2.3,0.1-5.9,0.2-10.6c0.1-4.7,0.2-8.3,0.2-10.7c0-1.8-0.1-4.6-0.1-8.3c-0.1-3.7-0.1-6.4-0.1-8.2
			c0-6.8-3-10.2-8.9-10.2c-1.9,0-4.2,0.8-6.8,2.5c-2.8,1.9-4.2,3.8-4.2,5.6v40.3c0,1.6-0.8,2.6-2.3,2.8c-1.7,0.2-5.3,0.3-10.7,0.3
			c-5.8,0-9.6-0.1-11.3-0.4c-1.5-0.2-2.3-1.1-2.3-2.5c0-3.9,0-9.7,0.1-17.5c0-7.8,0.1-13.7,0.1-17.6c0-12.4-1-22.1-2.9-29.2
			c-0.1-0.4-0.1-0.8-0.1-1.1c0-0.8,0.4-1.3,1.1-1.6c3.1-0.3,7.3-0.9,12.5-1.6c7.9-1.5,12.4-2.3,13.4-2.3c0.5,0,1,1.7,1.3,5
			c0.3,3.4,0.7,5,1.3,5c-0.5,0,2.1-1.7,8-5.2c5.9-3.5,11.1-5.2,15.5-5.2c6.3,0,11.6,1.5,15.8,4.5c4.7,3.4,7.1,8.2,7.1,14.3v23.8
			c0,3.2,0,8.1,0.1,14.5C432.3,345.8,432.3,350.6,432.3,353.8z"/>
		<path class="st0" d="M527.2,320.1c0,10.7-3.1,19.5-9.4,26.5c-6.5,7.3-15,10.9-25.5,10.9c-3.8,0-7.9-0.9-12.3-2.8
			c-4.4-1.9-6.4-2.8-6-2.8c-0.6,0-1,0.7-1,2.2c0,2.5,0.1,6.4,0.4,11.5c0.2,5.1,0.4,8.9,0.4,11.5c0,1.6-0.8,2.4-2.5,2.4l-15.2,0.1
			c-3.4,0-5.6-0.1-6.6-0.4c-1.5-0.3-2.2-1.3-2.2-2.8l0.1-57.5c0-11.6-0.9-21.4-2.6-29.3c-0.1-0.5-0.1-0.9-0.1-1.3
			c0-0.7,0.3-1.2,0.9-1.5c1.9-0.7,5.6-1.5,11.1-2.4c5.3-0.8,9.2-1.3,11.6-1.3c1.9,0,3,1.3,3.3,3.8c0.3,2.6,0.6,3.8,1,3.8
			c-0.5,0,1.6-1.4,6.4-4.1c4.8-2.7,9.1-4.1,13-4.1c10.8,0,19.4,3.6,25.9,10.7C524,300.2,527.2,309.1,527.2,320.1z M499.5,320
			c0-4-1.2-7.5-3.7-10.5c-2.6-3.1-5.9-4.7-9.8-4.7c-4,0-7.2,1.6-9.6,4.7c-2.1,2.8-3.1,6.3-3.1,10.5c0,4.2,1.1,7.7,3.3,10.5
			c2.3,3,5.6,4.6,9.7,4.6C495.1,335,499.5,330,499.5,320z"/>
		<path class="st1" d="M605.3,315.5c0,5-1.6,7.9-4.9,8.6c-0.5,0.1-5.7,0.6-15.5,1.6c-5.9,0.6-14.6,1.4-26.3,2.3
			c0.7,3.2,2.8,5.7,6.3,7.4c2.9,1.4,6.2,2.1,9.9,2.1c4.4,0,8.9-1.2,13.4-3.6c1.9-1.2,3.8-2.4,5.7-3.6c1,0.5,2.8,3,5.3,7.6
			c2.5,4.6,3.7,7.5,3.7,8.7c0,0.4-0.4,0.9-1.1,1.7c-6.1,6.5-15.5,9.8-28.3,9.8c-11.8,0-21.4-3.5-28.7-10.4
			c-7.5-7-11.2-16.4-11.2-28.1c0-11.4,3.3-20.8,10-28.1c6.9-7.6,16-11.3,27.3-11.3c9.6,0,17.7,3.5,24.3,10.5
			C601.9,297.6,605.3,305.9,605.3,315.5z M579.1,310.9c0-3.1-1.1-5.8-3.3-8.1c-2.2-2.3-4.8-3.5-7.8-3.5c-3.1,0-5.7,1.3-7.8,4
			c-1.9,2.4-2.8,5.3-2.8,8.6c0,1.3,0.7,2,2.1,2c3.7,0,9.4-0.6,17.2-1.7C578.3,311.9,579.1,311.5,579.1,310.9z"/>
		<path class="st1" d="M692.6,250.1c0-1.1-0.2,0.5-0.6,4.9c-0.5,5.5-1,12.6-1.3,21.2c-0.4,9.8-0.6,20.9-0.6,33.3
			c0,20.6,0.6,35.2,1.7,43.9c0.1,0.9,0.1,1.5,0.1,1.8c0,0.5-0.4,0.9-1.1,1c-1.8,0.2-8.4,0.4-19.8,0.4c-2.7,0-4.2-0.5-4.6-1.6
			c-0.1-1.9-0.2-3.8-0.3-5.7c-0.1-0.4-0.3-0.8-0.6-1.2c-0.3,0.1-0.7,0.4-1.1,0.9c-5.4,5.3-12.1,7.9-20.2,7.9
			c-10.5,0-18.9-3.7-25.2-11c-6-7-9-15.9-9-26.6c0-10.9,3-19.8,8.9-26.8c6.3-7.5,14.7-11.2,25.4-11.2c7.5,0,13.4,2.4,17.5,7.2
			c0.7,0.8,1.2,1.2,1.5,1.2c0.4,0,0.7-0.6,0.7-1.9c0-3.8-0.1-9.6-0.3-17.2c-0.2-7.6-0.3-13.3-0.3-17.1c0-1.4,0.4-2.3,1.2-2.5
			c3.2-0.1,7.6-0.4,13.1-0.9c10-1.2,14.4-1.9,13.2-1.9C692.1,248.2,692.6,248.8,692.6,250.1z M664.5,318.7c0-3.9-1.4-7.4-4.1-10.3
			c-2.7-3-6-4.4-9.9-4.4c-4.1,0-7.3,1.5-9.7,4.4c-2.4,3-3.6,6.5-3.6,10.6c0,4,1.2,7.4,3.7,10.2c2.5,3,5.7,4.5,9.7,4.5
			c4,0,7.3-1.5,10-4.5C663.1,326.2,664.5,322.7,664.5,318.7z"/>
		<path class="st1" d="M731.3,321.7c0,3.6,0.1,9,0.2,16.2c0.1,7.2,0.2,12.6,0.2,16.2c0,1-0.6,1.7-1.9,1.9c-1.7,0.3-5.5,0.4-11.4,0.4
			c-6,0-9.8-0.1-11.5-0.4c-1.1-0.2-1.8-0.5-2-1c-0.1-0.2-0.1-0.9-0.1-2.2c0-3.4,0.1-8.6,0.2-15.5c0.1-6.9,0.2-12.1,0.2-15.6
			c0-14.1-0.5-25.4-1.6-33.7c-0.1-0.8-0.1-1.3-0.1-1.6c0-1,0.7-1.5,2-1.5c1.4,0,3.5,0.1,6.4,0.4c2.9,0.3,5,0.4,6.5,0.4
			c1.4,0,3.6-0.1,6.5-0.4c2.9-0.2,5.1-0.4,6.5-0.4c1.2,0,1.8,0.5,1.8,1.5c0,0.2-0.1,0.7-0.1,1.4C731.8,297.7,731.3,309,731.3,321.7z
			 M733.2,266.3c0,8.7-4.9,13-14.6,13c-4.2,0-7.6-1.1-10.4-3.3c-3-2.4-4.5-5.6-4.5-9.7c0-3.9,1.5-7.1,4.6-9.6
			c2.8-2.3,6.2-3.4,10.2-3.4c3.9,0,7.2,1.2,10.1,3.5C731.7,259.3,733.2,262.4,733.2,266.3z"/>
		<path class="st1" d="M820.7,318.7c0,3.8,0.2,9.5,0.7,17.1c0.4,7.6,0.7,13.2,0.7,17c0,2-0.9,3.1-2.6,3.2
			c-6.2,0.4-13.2,0.7-21.2,0.7c-0.9,0-1.6-1.4-1.9-4.3c-0.3-2.9-0.7-4.3-1.2-4.4c-0.4,0.2-0.9,0.6-1.6,1.3
			c-5.6,5.6-11.5,8.4-17.9,8.4c-9.7,0-17.7-3.8-24.1-11.5c-6-7.2-9-15.7-9-25.7c0-11.5,3.1-20.8,9.3-27.8
			c6.5-7.3,15.3-10.9,26.6-10.9c7.8,0,14,2.7,18.5,8.2c0.2,0.2,0.4,0.4,0.5,0.4c0.4,0,1-1.2,1.5-3.6c0.6-2.4,1.3-3.6,2.1-3.6
			c1.8,0,5.3,0.5,10.5,1.6c4.9,1,8.5,1.8,10.6,2.5c0.7,0.3,1.1,0.7,1.1,1.2c0,0.2-0.1,0.7-0.2,1.6
			C821.5,299.1,820.7,308.6,820.7,318.7z M796.7,319.1c0-4.2-1.3-7.7-4-10.5s-6.1-4.1-10.4-4.1c-4.3,0-7.7,1.4-10.4,4.1
			c-2.6,2.7-4,6.2-4,10.5c0,4,1.4,7.5,4.2,10.4c2.8,2.9,6.2,4.3,10.2,4.3c4.2,0,7.7-1.4,10.4-4.1
			C795.3,326.9,796.7,323.4,796.7,319.1z"/>
	</g>
</g>
</svg>
