<?xml version="1.0" encoding="utf-8"?>
<!-- Generator: Adobe Illustrator 24.1.1, SVG Export Plug-In . SVG Version: 6.00 Build 0)  -->
<svg version="1.1" id="Ebene_1" xmlns="http://www.w3.org/2000/svg" xmlns:xlink="http://www.w3.org/1999/xlink" x="0px" y="0px"
	 viewBox="0 0 1024 768" style="enable-background:new 0 0 1024 768;" xml:space="preserve">
<style type="text/css">
	.st0{fill:#FFFFFF;}
	.st1{fill:#F29323;}
</style>
<g>
	<g>
		<g>
			<path class="st0" d="M130.16,686.5c-9.03,0-15.84-1.52-20.43-4.55c-4.6-3.04-6.89-8.09-6.89-15.14c0-0.49,0.41-0.74,1.23-0.74
				c1.15,0,3.2,0.41,6.15,1.23c2.95,0.82,8.62,1.23,16.99,1.23c14.11,0,27.16-1.6,39.14-4.8s22.36-7.59,31.14-13.17
				c8.78-5.58,15.59-11.86,20.43-18.83c4.84-6.97,7.26-14.16,7.26-21.54c0-6.73-1.89-12.14-5.66-16.25
				c-3.78-4.1-8.74-7.22-14.89-9.35s-12.84-3.57-20.06-4.31s-14.36-1.11-21.42-1.11c-3.12,0-6.28,0.04-9.48,0.12
				s-6.2,0.12-8.99,0.12c-3.78,13.29-7.47,26.67-11.08,40.13s-7.31,26.51-11.08,39.14c-4.1,0-7.55-1.15-10.34-3.45
				s-4.19-5.08-4.19-8.37c0-1.97,0.41-4.27,1.23-6.89c0.82-2.62,1.56-5,2.22-7.14c0.98-3.28,2.71-8.78,5.17-16.49
				c2.46-7.71,5.45-16.74,8.99-27.08c3.53-10.34,7.42-21.17,11.69-32.5s8.66-22.4,13.17-33.24c4.51-10.83,8.9-20.43,13.17-28.8
				c-6.89,1.15-12.68,2.79-17.36,4.92c-4.68,2.13-8.33,4.06-10.96,5.79c-2.63,1.72-4.52,2.58-5.66,2.58c-0.82,0-1.85-0.37-3.08-1.11
				s-2.34-1.64-3.32-2.71c-0.98-1.07-1.48-2.01-1.48-2.83c8.21-3.45,16.78-6.56,25.73-9.35c8.94-2.79,19.82-4.19,32.62-4.19
				c5.42,0,11.41,0.45,17.97,1.35s12.8,2.71,18.71,5.42c5.91,2.71,10.75,6.65,14.53,11.82c3.77,5.17,5.66,12.03,5.66,20.56
				c0,8.04-1.72,14.89-5.17,20.56s-7.96,10.34-13.54,14.03c-5.58,3.69-11.66,6.61-18.22,8.74c-6.57,2.13-13.05,3.69-19.45,4.68
				c12.14,0.66,21.95,2.38,29.42,5.17s13.13,6.12,16.99,9.97c3.85,3.86,6.44,7.92,7.75,12.19s1.97,8.37,1.97,12.31
				c0,9.52-2.46,18.14-7.39,25.85c-4.92,7.72-11.41,14.44-19.45,20.19c-8.04,5.74-16.83,10.54-26.34,14.4
				c-9.52,3.85-18.96,6.73-28.31,8.62C145.92,685.56,137.55,686.5,130.16,686.5z M146.16,573.75c9.02-0.33,18.01-1.35,26.96-3.08
				c8.94-1.72,17.11-4.47,24.5-8.25c7.39-3.77,13.33-8.7,17.85-14.77c4.51-6.07,6.77-13.62,6.77-22.65c0-8.53-2.01-15.1-6.03-19.7
				c-4.02-4.59-9.19-7.79-15.51-9.6c-6.32-1.8-13.01-2.71-20.06-2.71c-0.82,0-1.6,0-2.34,0c-0.74,0-1.52,0.08-2.34,0.25
				c-5.91,11.49-11.29,24.13-16.13,37.91C154.98,544.94,150.43,559.14,146.16,573.75z"/>
			<path class="st0" d="M264.82,672.96c-7.06,0-12.06-2.18-15.02-6.52c-2.95-4.35-4.43-9.64-4.43-15.88
				c0-5.08,0.82-10.34,2.46-15.76s3.82-10.5,6.52-15.26c2.71-4.76,5.74-8.62,9.11-11.57c3.36-2.95,6.77-4.43,10.22-4.43
				c0.82,0,1.68,0.12,2.58,0.37s1.76,0.54,2.58,0.86c-1.48,1.32-3.24,3.73-5.29,7.26c-2.05,3.53-3.98,7.55-5.79,12.06
				c-1.81,4.52-3.32,8.99-4.55,13.42c-1.23,4.43-1.85,8.21-1.85,11.33c0,4.92,0.82,8.49,2.46,10.71c1.64,2.22,3.77,3.32,6.4,3.32
				c3.45,0,7.55-1.85,12.31-5.54s9.44-8.41,14.03-14.16c-4.6-3.77-8.17-8.74-10.71-14.89c-2.55-6.16-3.82-12.43-3.82-18.83
				c0-5.42,0.94-10.5,2.83-15.26c1.88-4.76,4.64-8.57,8.25-11.45c3.61-2.87,7.96-4.31,13.05-4.31c6.73,0,11.24,1.81,13.54,5.42
				c2.3,3.61,3.45,8.13,3.45,13.54c0,6.4-1.56,13.5-4.68,21.29c-3.12,7.8-7.06,15.31-11.82,22.53c2.95,1.64,6.07,2.46,9.35,2.46
				c2.62,0,5.58-0.53,8.86-1.6c3.28-1.07,6.52-2.91,9.72-5.54c3.2-2.62,5.79-6.16,7.75-10.59l2.95,2.46
				c-3.29,7.72-7.92,13.17-13.91,16.37s-11.69,4.8-17.11,4.8c-2.14,0-4.19-0.2-6.15-0.62c-1.97-0.41-3.86-1.02-5.66-1.85
				c-5.58,7.39-11.69,13.54-18.34,18.46S271.06,672.96,264.82,672.96z M301.01,636.77c4.1-6.07,7.51-12.43,10.22-19.08
				s4.06-12.92,4.06-18.83c0-4.76-0.7-8.25-2.09-10.46c-1.4-2.22-3.16-3.32-5.29-3.32c-3.29,0-6.65,2.38-10.09,7.14
				c-3.45,4.76-5.17,10.75-5.17,17.97c0,4.76,0.7,9.56,2.09,14.4C296.13,629.43,298.22,633.49,301.01,636.77z"/>
			<path class="st0" d="M417.21,670.01c-5.75,0-10.06-1.48-12.92-4.43c-2.87-2.95-4.31-6.73-4.31-11.32c0-3.45,0.62-7.05,1.85-10.83
				c1.23-3.77,2.42-7.67,3.57-11.69s1.72-7.92,1.72-11.69c0-4.59-0.95-7.75-2.83-9.48c-1.89-1.72-4.23-2.58-7.02-2.58
				c-5.09,0-10.26,2.09-15.51,6.28s-10.34,9.52-15.26,16c-4.92,6.49-9.52,13.17-13.79,20.06c-4.27,6.89-8.04,13.05-11.32,18.46
				c-2.63,0-5.13-0.45-7.51-1.35c-2.38-0.9-4.22-2.26-5.54-4.06c0-0.82,0.86-3.36,2.58-7.63s3.73-9.52,6.03-15.76
				s4.35-12.64,6.15-19.2s2.71-12.56,2.71-17.97c0.98-1.15,2.54-2.3,4.68-3.45c2.13-1.15,4.35-1.72,6.65-1.72
				c4.43,0,6.65,2.13,6.65,6.4c0,2.63-0.74,7.02-2.22,13.17c-1.48,6.16-3.37,12.6-5.66,19.33c4.43-6.73,9.39-13.42,14.89-20.06
				c5.5-6.65,11.36-12.19,17.6-16.62c6.24-4.43,12.47-6.65,18.71-6.65c6.4,0,11.04,2.3,13.91,6.89c2.87,4.6,4.31,9.69,4.31,15.26
				c0,5.09-0.82,9.81-2.46,14.16c-1.64,4.35-3.32,8.54-5.05,12.56c-1.72,4.02-2.58,8.09-2.58,12.19c0,3.45,0.7,5.87,2.09,7.26
				c1.39,1.4,3.16,2.09,5.29,2.09c4.1,0,8.21-1.93,12.31-5.79c4.1-3.85,8.08-8.74,11.94-14.65c3.85-5.91,7.26-11.9,10.22-17.97
				l2.71,3.2c-3.45,8.04-7.3,15.18-11.57,21.42c-4.27,6.24-8.95,11.16-14.03,14.77C429.11,668.2,423.45,670.01,417.21,670.01z"/>
			<path class="st0" d="M436.9,734.02c-1.31,0-2.58-0.7-3.82-2.09c-1.23-1.4-2.17-2.87-2.83-4.43c-0.65-1.56-0.98-2.5-0.98-2.83
				c2.3-8.04,4.55-15.22,6.77-21.54s4.43-12.8,6.65-19.45s4.39-14.44,6.52-23.39c2.13-8.94,4.35-20.06,6.65-33.36
				c2.3-13.29,4.59-29.79,6.89-49.48c0.16-1.48,0.49-2.54,0.98-3.2c0.49-0.65,1.72-0.99,3.69-0.99c4.27,0,7.3,1.19,9.11,3.57
				c1.8,2.38,2.71,4.97,2.71,7.75c0,2.3-0.49,6.4-1.48,12.31c-0.98,5.91-2.38,12.89-4.19,20.93c2.79-5.42,6.28-10.91,10.46-16.5
				c4.19-5.58,8.99-10.25,14.4-14.03c5.42-3.77,11.32-5.66,17.73-5.66c7.22,0,13.17,2.58,17.85,7.75s7.02,11.94,7.02,20.31
				c0,6.4-1.44,13.17-4.31,20.31s-6.89,13.87-12.06,20.19s-11.29,11.45-18.34,15.39c-7.06,3.94-14.86,5.91-23.39,5.91
				c-4.27,0-7.72-0.49-10.34-1.48c-2.63-0.98-3.94-1.97-3.94-2.95c0-0.66,0.62-1.03,1.85-1.11c1.23-0.08,2.67-0.12,4.31-0.12
				c6.56,0,12.84-1.6,18.83-4.8s11.36-7.42,16.13-12.68c4.76-5.25,8.49-11.08,11.2-17.48c2.71-6.4,4.06-12.72,4.06-18.96
				c0-5.25-1.11-9.72-3.32-13.42c-2.22-3.69-5.79-5.54-10.71-5.54c-4.27,0-8.49,1.35-12.68,4.06s-8.12,6.15-11.82,10.34
				c-3.69,4.18-6.98,8.54-9.85,13.05c-2.87,4.52-5.05,8.58-6.52,12.19c-2.95,12.31-5.91,24.17-8.86,35.57s-5.79,21.75-8.49,31.02
				c-2.71,9.27-5.17,16.86-7.39,22.77c-2.22,5.91-4.06,9.52-5.54,10.83C439.04,733.6,438.05,734.02,436.9,734.02z"/>
			<path class="st0" d="M575.26,675.92c-10.01,0-17.52-2.75-22.53-8.25c-5-5.5-7.51-12.27-7.51-20.31c0-7.39,1.85-15.18,5.54-23.39
				s8.62-15.92,14.77-23.14c6.15-7.22,12.92-13.09,20.31-17.6c7.39-4.51,14.69-6.77,21.91-6.77c3.77,0,7.26,0.98,10.46,2.95
				c3.2,1.97,4.8,5.99,4.8,12.06c0,6.24-1.85,12.11-5.54,17.6c-3.69,5.5-8.54,10.38-14.53,14.65c-5.99,4.27-12.56,7.75-19.7,10.46
				s-14.24,4.39-21.29,5.05c-0.33,1.64-0.58,3.2-0.74,4.68c-0.17,1.48-0.25,2.87-0.25,4.18c0,2.46,0.28,4.92,0.86,7.39
				c0.57,2.46,1.6,4.72,3.08,6.77c1.48,2.05,3.49,3.65,6.03,4.8c2.54,1.15,5.7,1.72,9.48,1.72c7.05,0,14.03-2.01,20.93-6.03
				c6.89-4.02,13.29-9.31,19.2-15.88c5.91-6.56,10.91-13.79,15.02-21.67l2.95,2.22c-4.43,9.85-10.06,18.38-16.86,25.6
				c-6.81,7.22-14.2,12.84-22.16,16.86C591.54,673.9,583.46,675.92,575.26,675.92z M563.19,634.56c4.43-1.48,9.44-3.65,15.02-6.52
				s10.96-6.28,16.13-10.22c5.17-3.94,9.44-8.29,12.8-13.05s5.05-9.76,5.05-15.02c0-1.8-0.33-3.2-0.99-4.19
				c-0.66-0.98-2.05-1.48-4.18-1.48c-3.94,0-8.12,1.52-12.56,4.55c-4.43,3.04-8.7,7.02-12.8,11.94s-7.8,10.34-11.08,16.25
				C567.29,622.74,564.83,628.65,563.19,634.56z"/>
			<path class="st0" d="M645.17,672.47c-2.79,0-5.62-0.7-8.49-2.09c-2.87-1.4-5.25-3.65-7.14-6.77s-2.83-7.05-2.83-11.82
				c0-5.42,1.32-11.49,3.94-18.22s6.15-13.42,10.59-20.06s9.52-12.8,15.26-18.46c5.74-5.66,11.73-10.17,17.97-13.54
				c6.24-3.36,12.39-5.05,18.46-5.05c3.45,0,6.11,0.62,8,1.85c1.88,1.23,2.83,3.16,2.83,5.79c0,0.66-0.04,1.23-0.12,1.72
				s-0.21,1.07-0.37,1.72c-0.82-1.31-2.01-2.25-3.57-2.83c-1.56-0.57-3.49-0.86-5.79-0.86c-5.25,0-10.38,1.6-15.39,4.8
				s-9.6,7.39-13.79,12.56c-4.18,5.17-7.84,10.71-10.96,16.62s-5.54,11.61-7.26,17.11c-1.72,5.5-2.58,10.14-2.58,13.91
				c0,3.61,0.82,6.49,2.46,8.62s3.77,3.2,6.4,3.2c4.43,0,9.8-2.79,16.13-8.37c6.32-5.58,12.76-13.46,19.33-23.63
				c6.56-10.17,12.47-22.07,17.73-35.7c3.61-9.52,7.34-19.2,11.2-29.05c3.85-9.85,7.75-19.33,11.69-28.43
				c3.94-9.11,7.75-17.23,11.45-24.37c3.69-7.14,7.22-12.8,10.59-16.99c3.36-4.19,6.36-6.28,8.99-6.28c1.31,0,2.46,0.54,3.45,1.6
				c0.98,1.07,1.48,2.42,1.48,4.06c0,2.63-1.35,7.1-4.06,13.42c-2.71,6.32-6.24,13.87-10.59,22.65c-4.35,8.78-8.9,18.34-13.66,28.68
				c-4.76,10.34-9.32,20.85-13.66,31.51c-4.35,10.67-7.88,20.97-10.59,30.9c-2.71,9.93-4.06,19-4.06,27.2
				c0,4.6,0.25,8.04,0.74,10.34c0.49,2.3,2.13,3.45,4.92,3.45c3.45,0,7.47-1.48,12.06-4.43s9.19-7.14,13.79-12.56
				c4.59-5.42,8.62-11.9,12.06-19.45l2.95,2.22c-3.12,8.37-7.39,15.88-12.8,22.53c-5.42,6.65-11.2,11.9-17.36,15.76
				c-6.16,3.85-12.03,5.79-17.6,5.79c-6.07,0-10.3-2.01-12.68-6.03s-3.57-8.16-3.57-12.43c0-2.79,0.41-6.48,1.23-11.08
				c0.82-4.59,1.97-9.68,3.45-15.26c-5.25,8.7-10.83,16.54-16.74,23.51c-5.91,6.98-11.69,12.43-17.36,16.37
				C655.64,670.5,650.26,672.47,645.17,672.47z"/>
			<path class="st0" d="M764.82,671.48c-6.4,0-11.16-2.01-14.28-6.03c-3.12-4.02-4.68-8.9-4.68-14.65c0-3.77,0.7-8.53,2.09-14.28
				c1.39-5.74,3.24-11.77,5.54-18.09s4.96-12.27,8-17.85c3.03-5.58,6.28-10.13,9.72-13.66c3.45-3.53,6.81-5.29,10.09-5.29
				c1.48,0,2.75,0.45,3.82,1.35c1.07,0.9,1.6,2.26,1.6,4.06c0,1.97-1.27,5.17-3.82,9.6s-5.54,9.52-8.99,15.26
				c-3.45,5.75-6.44,11.78-8.99,18.09c-2.55,6.32-3.82,12.35-3.82,18.09c0,5.91,0.99,9.85,2.96,11.82c1.97,1.97,5,2.95,9.11,2.95
				c5.58,0,11.53-2.79,17.85-8.37c6.32-5.58,13.01-15.34,20.06-29.3l2.22,2.46c-4.76,14.12-11.61,24.95-20.56,32.5
				C783.81,667.71,774.5,671.48,764.82,671.48z M794.36,558.73c-2.63,0-4.97-0.65-7.02-1.97c-2.05-1.31-3.08-3.36-3.08-6.16
				c0-3.45,2.01-6.44,6.03-8.99c4.02-2.54,8-3.82,11.94-3.82c2.46,0,4.43,0.58,5.91,1.72c1.48,1.15,2.22,3.12,2.22,5.91
				c0,3.12-1.69,6.12-5.05,8.99C801.95,557.3,798.3,558.73,794.36,558.73z"/>
			<path class="st0" d="M818.24,676.65c-5.09,0-9.4-1.68-12.92-5.05c-3.53-3.37-5.29-8.49-5.29-15.39c0-5.91,1.32-12.27,3.94-19.08
				s6.24-13.54,10.83-20.19s9.81-12.72,15.63-18.22s11.98-9.89,18.46-13.17c6.48-3.28,12.92-4.92,19.33-4.92
				c6.4,0,11.73,1.68,16,5.05s6.4,7.84,6.4,13.42c0,4.1-1.11,6.89-3.32,8.37s-5.13,2.21-8.74,2.21c0.33-1.31,0.62-2.75,0.86-4.31
				c0.25-1.56,0.37-2.99,0.37-4.31c0-3.77-0.9-7.02-2.71-9.72c-1.81-2.71-4.92-4.06-9.35-4.06c-4.6,0-9.27,1.6-14.03,4.8
				s-9.35,7.47-13.79,12.8c-4.43,5.33-8.37,11.12-11.82,17.36s-6.15,12.39-8.12,18.46s-2.95,11.49-2.95,16.25
				c0,6.4,2.22,9.6,6.65,9.6c3.77,0,7.88-1.76,12.31-5.29c4.43-3.53,8.99-8.04,13.66-13.54c4.68-5.5,9.15-11.2,13.42-17.11
				c4.27-5.91,8.04-11.33,11.32-16.25c0.65-0.98,1.07-1.48,1.23-1.48c0.98,0.17,2.25,0.49,3.82,0.98c1.56,0.49,2.91,1.15,4.06,1.97
				c1.15,0.82,1.72,1.89,1.72,3.2c0,1.48-0.74,3.49-2.22,6.03c-1.48,2.55-3.12,5.46-4.92,8.74c-1.81,3.29-3.45,6.61-4.92,9.97
				c-1.48,3.37-2.22,6.52-2.22,9.48c0,2.46,0.65,4.89,1.97,7.26c1.31,2.38,3.45,3.57,6.4,3.57c4.43,0,10.26-3.24,17.48-9.72
				s14.53-16.21,21.91-29.17l2.46,2.46c-3.45,8.86-7.88,16.66-13.29,23.39c-5.42,6.73-11.2,11.98-17.36,15.76
				c-6.16,3.77-12.19,5.66-18.09,5.66c-6.07,0-10.55-1.81-13.42-5.42s-4.31-7.55-4.31-11.82c0-0.98,0.08-2.09,0.25-3.32
				c0.16-1.23,0.33-2.5,0.49-3.82c-7.06,9.52-13.5,16.66-19.33,21.42C830.26,674.27,824.31,676.65,818.24,676.65z"/>
		</g>
	</g>
</g>
<g>
	<path class="st1" d="M589.73,341.66c0,2.14-0.69,4.34-2.14,6.12c-0.21,0.26-0.42,0.46-0.67,0.72l-13.59,13.59
		c-0.23,0.23-0.48,0.48-0.71,0.67c-1.76,1.42-3.96,2.11-6.12,2.14c-2.46,0.02-4.95-0.97-6.82-2.84l-20.42-20.42l27.2-27.2
		l20.42,20.43C588.75,336.73,589.78,339.18,589.73,341.66z"/>
	<path class="st1" d="M480.79,232.72c-0.02,2.45-0.94,4.93-2.83,6.81l-13.59,13.59c-1.86,1.87-4.38,2.83-6.81,2.83
		c-2.48,0-4.95-0.96-6.82-2.83l-20.42-20.42l27.22-27.22l20.42,20.42C479.83,227.76,480.81,230.22,480.79,232.72z"/>
	<path class="st0" d="M716.29,356.35l-54.45,54.45L677,425.98l12.04,12.04l-6.64,6.67l-20.55,20.55l-27.22-27.22l-95.35,95.35
		l-95.38-95.4l40.81-40.84l0.03,0.03l27.22-27.22l40.87,40.87c7.5,7.5,19.72,7.5,27.22,0l54.51-54.51
		c7.53-7.53,7.53-19.75,0.03-27.25l-68.12-68.09L416.67,410.74L307.71,301.78c-22.33-22.33-22.6-58.45-0.71-81.05l55.16-55.16
		l-15.15-15.15h-0.03l-12.04-12.04l27.22-27.22l6.7,6.67l5.37,5.37l15.15,15.18L484.73,43l40.87,40.9L375.8,233.69l68.12,68.12
		c7.53,7.53,19.72,7.53,27.25,0l54.45-54.48c7.47-7.47,7.56-19.69,0.03-27.22l-40.87-40.87l27.25-27.28l40.81-40.84l163.44,163.44
		c10.5,10.5,16.07,23.93,16.84,37.63C734.02,328.09,728.42,344.22,716.29,356.35z"/>
</g>
</svg>
