<?xml version="1.0" encoding="utf-8"?>
<!-- Generator: Adobe Illustrator 24.1.1, SVG Export Plug-In . SVG Version: 6.00 Build 0)  -->
<svg version="1.1" id="Ebene_1" xmlns="http://www.w3.org/2000/svg" xmlns:xlink="http://www.w3.org/1999/xlink" x="0px" y="0px"
	 viewBox="0 0 1024 768" style="enable-background:new 0 0 1024 768;" xml:space="preserve">
<style type="text/css">
	.st0{fill:#F29323;}
	.st1{fill:#221C47;}
</style>
<g>
	<path class="st0" d="M589.7,437.5c0,2.1-0.7,4.3-2.1,6.1c-0.2,0.3-0.4,0.5-0.7,0.7l-13.6,13.6c-0.2,0.2-0.5,0.5-0.7,0.7
		c-1.8,1.4-4,2.1-6.1,2.1c-2.5,0-5-1-6.8-2.8l-20.4-20.4l27.2-27.2l20.4,20.4C588.8,432.5,589.8,435,589.7,437.5z"/>
	<path class="st0" d="M480.8,328.5c0,2.5-0.9,4.9-2.8,6.8l-13.6,13.6c-1.9,1.9-4.4,2.8-6.8,2.8c-2.5,0-5-1-6.8-2.8l-20.4-20.4
		l27.2-27.2l20.4,20.4C479.8,323.6,480.8,326,480.8,328.5z"/>
	<path class="st1" d="M716.3,452.2l-54.5,54.5l15.2,15.2l12,12l-6.6,6.7l-20.5,20.5l-27.2-27.2l-95.3,95.3l-95.4-95.4l40.8-40.8l0,0
		l27.2-27.2l40.9,40.9c7.5,7.5,19.7,7.5,27.2,0l54.5-54.5c7.5-7.5,7.5-19.8,0-27.3l-68.1-68.1L416.7,506.6l-109-109
		c-22.3-22.3-22.6-58.4-0.7-81l55.2-55.2L347,246.2h0l-12-12l27.2-27.2l6.7,6.7l5.4,5.4l15.1,15.2l95.4-95.4l40.9,40.9L375.8,329.5
		l68.1,68.1c7.5,7.5,19.7,7.5,27.3,0l54.5-54.5c7.5-7.5,7.6-19.7,0-27.2l-40.9-40.9l27.3-27.3l40.8-40.8l163.4,163.4
		c10.5,10.5,16.1,23.9,16.8,37.6C734,423.9,728.4,440,716.3,452.2z"/>
</g>
</svg>
