<?xml version="1.0" encoding="utf-8"?>
<!-- Generator: Adobe Illustrator 24.1.1, SVG Export Plug-In . SVG Version: 6.00 Build 0)  -->
<svg version="1.1" id="Ebene_1" xmlns="http://www.w3.org/2000/svg" xmlns:xlink="http://www.w3.org/1999/xlink" x="0px" y="0px"
	 viewBox="0 0 1024 768" style="enable-background:new 0 0 1024 768;" xml:space="preserve">
<style type="text/css">
	.st0{fill:#221C47;}
	.st1{fill:#F29323;}
</style>
<g>
	<g>
		<g>
			<path class="st0" d="M130.2,686.5c-9,0-15.8-1.5-20.4-4.5c-4.6-3-6.9-8.1-6.9-15.1c0-0.5,0.4-0.7,1.2-0.7c1.2,0,3.2,0.4,6.2,1.2
				c2.9,0.8,8.6,1.2,17,1.2c14.1,0,27.2-1.6,39.1-4.8s22.4-7.6,31.1-13.2c8.8-5.6,15.6-11.9,20.4-18.8c4.8-7,7.3-14.2,7.3-21.5
				c0-6.7-1.9-12.1-5.7-16.3c-3.8-4.1-8.7-7.2-14.9-9.3s-12.8-3.6-20.1-4.3s-14.4-1.1-21.4-1.1c-3.1,0-6.3,0-9.5,0.1s-6.2,0.1-9,0.1
				c-3.8,13.3-7.5,26.7-11.1,40.1s-7.3,26.5-11.1,39.1c-4.1,0-7.6-1.2-10.3-3.5s-4.2-5.1-4.2-8.4c0-2,0.4-4.3,1.2-6.9s1.6-5,2.2-7.1
				c1-3.3,2.7-8.8,5.2-16.5c2.5-7.7,5.4-16.7,9-27.1c3.5-10.3,7.4-21.2,11.7-32.5s8.7-22.4,13.2-33.2c4.5-10.8,8.9-20.4,13.2-28.8
				c-6.9,1.1-12.7,2.8-17.4,4.9c-4.7,2.1-8.3,4.1-11,5.8c-2.6,1.7-4.5,2.6-5.7,2.6c-0.8,0-1.8-0.4-3.1-1.1s-2.3-1.6-3.3-2.7
				c-1-1.1-1.5-2-1.5-2.8c8.2-3.5,16.8-6.6,25.7-9.4c8.9-2.8,19.8-4.2,32.6-4.2c5.4,0,11.4,0.5,18,1.4s12.8,2.7,18.7,5.4
				c5.9,2.7,10.8,6.6,14.5,11.8c3.8,5.2,5.7,12,5.7,20.6c0,8-1.7,14.9-5.2,20.6s-8,10.3-13.5,14c-5.6,3.7-11.7,6.6-18.2,8.7
				c-6.6,2.1-13.1,3.7-19.4,4.7c12.1,0.7,21.9,2.4,29.4,5.2s13.1,6.1,17,10c3.9,3.9,6.4,7.9,7.8,12.2s2,8.4,2,12.3
				c0,9.5-2.5,18.1-7.4,25.8c-4.9,7.7-11.4,14.4-19.4,20.2c-8,5.7-16.8,10.5-26.3,14.4c-9.5,3.8-19,6.7-28.3,8.6
				C145.9,685.6,137.6,686.5,130.2,686.5z M146.2,573.8c9-0.3,18-1.3,27-3.1c8.9-1.7,17.1-4.5,24.5-8.3c7.4-3.8,13.3-8.7,17.9-14.8
				c4.5-6.1,6.8-13.6,6.8-22.7c0-8.5-2-15.1-6-19.7c-4-4.6-9.2-7.8-15.5-9.6c-6.3-1.8-13-2.7-20.1-2.7c-0.8,0-1.6,0-2.3,0
				c-0.7,0-1.5,0.1-2.3,0.3c-5.9,11.5-11.3,24.1-16.1,37.9C155,544.9,150.4,559.1,146.2,573.8z"/>
			<path class="st0" d="M264.8,673c-7.1,0-12.1-2.2-15-6.5c-2.9-4.3-4.4-9.6-4.4-15.9c0-5.1,0.8-10.3,2.5-15.8s3.8-10.5,6.5-15.3
				c2.7-4.8,5.7-8.6,9.1-11.6c3.4-3,6.8-4.4,10.2-4.4c0.8,0,1.7,0.1,2.6,0.4s1.8,0.5,2.6,0.9c-1.5,1.3-3.2,3.7-5.3,7.3
				c-2,3.5-4,7.5-5.8,12.1c-1.8,4.5-3.3,9-4.5,13.4c-1.2,4.4-1.9,8.2-1.9,11.3c0,4.9,0.8,8.5,2.5,10.7c1.6,2.2,3.8,3.3,6.4,3.3
				c3.5,0,7.5-1.8,12.3-5.5s9.4-8.4,14-14.2c-4.6-3.8-8.2-8.7-10.7-14.9c-2.5-6.2-3.8-12.4-3.8-18.8c0-5.4,0.9-10.5,2.8-15.3
				c1.9-4.8,4.6-8.6,8.3-11.5c3.6-2.9,8-4.3,13-4.3c6.7,0,11.2,1.8,13.5,5.4c2.3,3.6,3.5,8.1,3.5,13.5c0,6.4-1.6,13.5-4.7,21.3
				c-3.1,7.8-7.1,15.3-11.8,22.5c3,1.6,6.1,2.5,9.4,2.5c2.6,0,5.6-0.5,8.9-1.6c3.3-1.1,6.5-2.9,9.7-5.5c3.2-2.6,5.8-6.2,7.8-10.6
				l3,2.5c-3.3,7.7-7.9,13.2-13.9,16.4s-11.7,4.8-17.1,4.8c-2.1,0-4.2-0.2-6.1-0.6c-2-0.4-3.9-1-5.7-1.8
				c-5.6,7.4-11.7,13.5-18.3,18.5S271.1,673,264.8,673z M301,636.8c4.1-6.1,7.5-12.4,10.2-19.1s4.1-12.9,4.1-18.8
				c0-4.8-0.7-8.3-2.1-10.5c-1.4-2.2-3.2-3.3-5.3-3.3c-3.3,0-6.6,2.4-10.1,7.1c-3.5,4.8-5.2,10.8-5.2,18c0,4.8,0.7,9.6,2.1,14.4
				C296.1,629.4,298.2,633.5,301,636.8z"/>
			<path class="st0" d="M417.2,670c-5.8,0-10.1-1.5-12.9-4.4c-2.9-3-4.3-6.7-4.3-11.3c0-3.5,0.6-7,1.9-10.8
				c1.2-3.8,2.4-7.7,3.6-11.7s1.7-7.9,1.7-11.7c0-4.6-1-7.8-2.8-9.5c-1.9-1.7-4.2-2.6-7-2.6c-5.1,0-10.3,2.1-15.5,6.3
				s-10.3,9.5-15.3,16c-4.9,6.5-9.5,13.2-13.8,20.1c-4.3,6.9-8,13-11.3,18.5c-2.6,0-5.1-0.5-7.5-1.3c-2.4-0.9-4.2-2.3-5.5-4.1
				c0-0.8,0.9-3.4,2.6-7.6s3.7-9.5,6-15.8s4.4-12.6,6.1-19.2s2.7-12.6,2.7-18c1-1.2,2.5-2.3,4.7-3.5c2.1-1.2,4.4-1.7,6.6-1.7
				c4.4,0,6.6,2.1,6.6,6.4c0,2.6-0.7,7-2.2,13.2c-1.5,6.2-3.4,12.6-5.7,19.3c4.4-6.7,9.4-13.4,14.9-20.1
				c5.5-6.7,11.4-12.2,17.6-16.6c6.2-4.4,12.5-6.7,18.7-6.7c6.4,0,11,2.3,13.9,6.9c2.9,4.6,4.3,9.7,4.3,15.3c0,5.1-0.8,9.8-2.5,14.2
				c-1.6,4.3-3.3,8.5-5,12.6c-1.7,4-2.6,8.1-2.6,12.2c0,3.5,0.7,5.9,2.1,7.3c1.4,1.4,3.2,2.1,5.3,2.1c4.1,0,8.2-1.9,12.3-5.8
				c4.1-3.8,8.1-8.7,11.9-14.7c3.9-5.9,7.3-11.9,10.2-18l2.7,3.2c-3.5,8-7.3,15.2-11.6,21.4c-4.3,6.2-9,11.2-14,14.8
				C429.1,668.2,423.5,670,417.2,670z"/>
			<path class="st0" d="M436.9,734c-1.3,0-2.6-0.7-3.8-2.1c-1.2-1.4-2.2-2.9-2.8-4.4c-0.6-1.6-1-2.5-1-2.8c2.3-8,4.5-15.2,6.8-21.5
				s4.4-12.8,6.6-19.5s4.4-14.4,6.5-23.4c2.1-8.9,4.4-20.1,6.6-33.4c2.3-13.3,4.6-29.8,6.9-49.5c0.2-1.5,0.5-2.5,1-3.2
				c0.5-0.7,1.7-1,3.7-1c4.3,0,7.3,1.2,9.1,3.6c1.8,2.4,2.7,5,2.7,7.8c0,2.3-0.5,6.4-1.5,12.3c-1,5.9-2.4,12.9-4.2,20.9
				c2.8-5.4,6.3-10.9,10.5-16.5c4.2-5.6,9-10.3,14.4-14c5.4-3.8,11.3-5.7,17.7-5.7c7.2,0,13.2,2.6,17.8,7.8s7,11.9,7,20.3
				c0,6.4-1.4,13.2-4.3,20.3s-6.9,13.9-12.1,20.2s-11.3,11.5-18.3,15.4c-7.1,3.9-14.9,5.9-23.4,5.9c-4.3,0-7.7-0.5-10.3-1.5
				c-2.6-1-3.9-2-3.9-3c0-0.7,0.6-1,1.9-1.1c1.2-0.1,2.7-0.1,4.3-0.1c6.6,0,12.8-1.6,18.8-4.8s11.4-7.4,16.1-12.7
				c4.8-5.3,8.5-11.1,11.2-17.5c2.7-6.4,4.1-12.7,4.1-19c0-5.3-1.1-9.7-3.3-13.4c-2.2-3.7-5.8-5.5-10.7-5.5c-4.3,0-8.5,1.3-12.7,4.1
				s-8.1,6.2-11.8,10.3c-3.7,4.2-7,8.5-9.9,13c-2.9,4.5-5,8.6-6.5,12.2c-3,12.3-5.9,24.2-8.9,35.6s-5.8,21.8-8.5,31
				c-2.7,9.3-5.2,16.9-7.4,22.8c-2.2,5.9-4.1,9.5-5.5,10.8C439,733.6,438,734,436.9,734z"/>
			<path class="st0" d="M575.3,675.9c-10,0-17.5-2.8-22.5-8.3c-5-5.5-7.5-12.3-7.5-20.3c0-7.4,1.8-15.2,5.5-23.4s8.6-15.9,14.8-23.1
				c6.2-7.2,12.9-13.1,20.3-17.6c7.4-4.5,14.7-6.8,21.9-6.8c3.8,0,7.3,1,10.5,3c3.2,2,4.8,6,4.8,12.1c0,6.2-1.8,12.1-5.5,17.6
				c-3.7,5.5-8.5,10.4-14.5,14.7c-6,4.3-12.6,7.8-19.7,10.5s-14.2,4.4-21.3,5c-0.3,1.6-0.6,3.2-0.7,4.7c-0.2,1.5-0.3,2.9-0.3,4.2
				c0,2.5,0.3,4.9,0.9,7.4c0.6,2.5,1.6,4.7,3.1,6.8c1.5,2,3.5,3.7,6,4.8c2.5,1.2,5.7,1.7,9.5,1.7c7,0,14-2,20.9-6
				c6.9-4,13.3-9.3,19.2-15.9c5.9-6.6,10.9-13.8,15-21.7l3,2.2c-4.4,9.8-10.1,18.4-16.9,25.6c-6.8,7.2-14.2,12.8-22.2,16.9
				C591.5,673.9,583.5,675.9,575.3,675.9z M563.2,634.6c4.4-1.5,9.4-3.7,15-6.5s11-6.3,16.1-10.2c5.2-3.9,9.4-8.3,12.8-13
				s5-9.8,5-15c0-1.8-0.3-3.2-1-4.2c-0.7-1-2-1.5-4.2-1.5c-3.9,0-8.1,1.5-12.6,4.5c-4.4,3-8.7,7-12.8,11.9s-7.8,10.3-11.1,16.3
				C567.3,622.7,564.8,628.7,563.2,634.6z"/>
			<path class="st0" d="M645.2,672.5c-2.8,0-5.6-0.7-8.5-2.1c-2.9-1.4-5.3-3.7-7.1-6.8s-2.8-7-2.8-11.8c0-5.4,1.3-11.5,3.9-18.2
				s6.2-13.4,10.6-20.1s9.5-12.8,15.3-18.5c5.7-5.7,11.7-10.2,18-13.5c6.2-3.4,12.4-5,18.5-5c3.5,0,6.1,0.6,8,1.8
				c1.9,1.2,2.8,3.2,2.8,5.8c0,0.7,0,1.2-0.1,1.7s-0.2,1.1-0.4,1.7c-0.8-1.3-2-2.3-3.6-2.8c-1.6-0.6-3.5-0.9-5.8-0.9
				c-5.3,0-10.4,1.6-15.4,4.8s-9.6,7.4-13.8,12.6c-4.2,5.2-7.8,10.7-11,16.6s-5.5,11.6-7.3,17.1c-1.7,5.5-2.6,10.1-2.6,13.9
				c0,3.6,0.8,6.5,2.5,8.6s3.8,3.2,6.4,3.2c4.4,0,9.8-2.8,16.1-8.4c6.3-5.6,12.8-13.5,19.3-23.6c6.6-10.2,12.5-22.1,17.7-35.7
				c3.6-9.5,7.3-19.2,11.2-29c3.8-9.8,7.8-19.3,11.7-28.4c3.9-9.1,7.8-17.2,11.5-24.4c3.7-7.1,7.2-12.8,10.6-17
				c3.4-4.2,6.4-6.3,9-6.3c1.3,0,2.5,0.5,3.5,1.6c1,1.1,1.5,2.4,1.5,4.1c0,2.6-1.3,7.1-4.1,13.4c-2.7,6.3-6.2,13.9-10.6,22.6
				c-4.3,8.8-8.9,18.3-13.7,28.7c-4.8,10.3-9.3,20.8-13.7,31.5c-4.3,10.7-7.9,21-10.6,30.9c-2.7,9.9-4.1,19-4.1,27.2
				c0,4.6,0.3,8,0.7,10.3c0.5,2.3,2.1,3.5,4.9,3.5c3.5,0,7.5-1.5,12.1-4.4s9.2-7.1,13.8-12.6c4.6-5.4,8.6-11.9,12.1-19.5l3,2.2
				c-3.1,8.4-7.4,15.9-12.8,22.5c-5.4,6.7-11.2,11.9-17.4,15.8c-6.2,3.8-12,5.8-17.6,5.8c-6.1,0-10.3-2-12.7-6s-3.6-8.2-3.6-12.4
				c0-2.8,0.4-6.5,1.2-11.1c0.8-4.6,2-9.7,3.5-15.3c-5.3,8.7-10.8,16.5-16.7,23.5c-5.9,7-11.7,12.4-17.4,16.4
				C655.6,670.5,650.3,672.5,645.2,672.5z"/>
			<path class="st0" d="M764.8,671.5c-6.4,0-11.2-2-14.3-6c-3.1-4-4.7-8.9-4.7-14.7c0-3.8,0.7-8.5,2.1-14.3
				c1.4-5.7,3.2-11.8,5.5-18.1s5-12.3,8-17.8c3-5.6,6.3-10.1,9.7-13.7c3.5-3.5,6.8-5.3,10.1-5.3c1.5,0,2.8,0.5,3.8,1.3
				c1.1,0.9,1.6,2.3,1.6,4.1c0,2-1.3,5.2-3.8,9.6s-5.5,9.5-9,15.3c-3.5,5.8-6.4,11.8-9,18.1c-2.5,6.3-3.8,12.3-3.8,18.1
				c0,5.9,1,9.8,3,11.8c2,2,5,3,9.1,3c5.6,0,11.5-2.8,17.8-8.4c6.3-5.6,13-15.3,20.1-29.3l2.2,2.5c-4.8,14.1-11.6,25-20.6,32.5
				C783.8,667.7,774.5,671.5,764.8,671.5z M794.4,558.7c-2.6,0-5-0.7-7-2c-2-1.3-3.1-3.4-3.1-6.2c0-3.5,2-6.4,6-9
				c4-2.5,8-3.8,11.9-3.8c2.5,0,4.4,0.6,5.9,1.7c1.5,1.2,2.2,3.1,2.2,5.9c0,3.1-1.7,6.1-5,9C802,557.3,798.3,558.7,794.4,558.7z"/>
			<path class="st0" d="M818.2,676.7c-5.1,0-9.4-1.7-12.9-5c-3.5-3.4-5.3-8.5-5.3-15.4c0-5.9,1.3-12.3,3.9-19.1s6.2-13.5,10.8-20.2
				s9.8-12.7,15.6-18.2s12-9.9,18.5-13.2c6.5-3.3,12.9-4.9,19.3-4.9c6.4,0,11.7,1.7,16,5s6.4,7.8,6.4,13.4c0,4.1-1.1,6.9-3.3,8.4
				s-5.1,2.2-8.7,2.2c0.3-1.3,0.6-2.8,0.9-4.3c0.3-1.6,0.4-3,0.4-4.3c0-3.8-0.9-7-2.7-9.7c-1.8-2.7-4.9-4.1-9.3-4.1
				c-4.6,0-9.3,1.6-14,4.8s-9.3,7.5-13.8,12.8c-4.4,5.3-8.4,11.1-11.8,17.4s-6.2,12.4-8.1,18.5s-3,11.5-3,16.3
				c0,6.4,2.2,9.6,6.7,9.6c3.8,0,7.9-1.8,12.3-5.3c4.4-3.5,9-8,13.7-13.5c4.7-5.5,9.2-11.2,13.4-17.1c4.3-5.9,8-11.3,11.3-16.3
				c0.7-1,1.1-1.5,1.2-1.5c1,0.2,2.3,0.5,3.8,1c1.6,0.5,2.9,1.2,4.1,2c1.2,0.8,1.7,1.9,1.7,3.2c0,1.5-0.7,3.5-2.2,6
				c-1.5,2.5-3.1,5.5-4.9,8.7c-1.8,3.3-3.5,6.6-4.9,10c-1.5,3.4-2.2,6.5-2.2,9.5c0,2.5,0.7,4.9,2,7.3c1.3,2.4,3.5,3.6,6.4,3.6
				c4.4,0,10.3-3.2,17.5-9.7s14.5-16.2,21.9-29.2l2.5,2.5c-3.5,8.9-7.9,16.7-13.3,23.4c-5.4,6.7-11.2,12-17.4,15.8
				c-6.2,3.8-12.2,5.7-18.1,5.7c-6.1,0-10.5-1.8-13.4-5.4s-4.3-7.5-4.3-11.8c0-1,0.1-2.1,0.3-3.3c0.2-1.2,0.3-2.5,0.5-3.8
				c-7.1,9.5-13.5,16.7-19.3,21.4C830.3,674.3,824.3,676.7,818.2,676.7z"/>
		</g>
	</g>
</g>
<path class="st1" d="M589.7,341.7c0,2.1-0.7,4.3-2.1,6.1c-0.2,0.3-0.4,0.5-0.7,0.7l-13.6,13.6c-0.2,0.2-0.5,0.5-0.7,0.7
	c-1.8,1.4-4,2.1-6.1,2.1c-2.5,0-5-1-6.8-2.8l-20.4-20.4l27.2-27.2l20.4,20.4C588.8,336.7,589.8,339.2,589.7,341.7z"/>
<path class="st1" d="M480.8,232.7c0,2.4-0.9,4.9-2.8,6.8l-13.6,13.6c-1.9,1.9-4.4,2.8-6.8,2.8c-2.5,0-5-1-6.8-2.8l-20.4-20.4
	l27.2-27.2l20.4,20.4C479.8,227.8,480.8,230.2,480.8,232.7z"/>
<path class="st0" d="M716.3,356.4l-54.5,54.5L677,426l12,12l-6.6,6.7l-20.5,20.5L634.6,438l-95.3,95.3L443.9,438l40.8-40.8l0,0
	l27.2-27.2l40.9,40.9c7.5,7.5,19.7,7.5,27.2,0l54.5-54.5c7.5-7.5,7.5-19.8,0-27.3L566.5,261L416.7,410.7l-109-109
	c-22.3-22.3-22.6-58.4-0.7-81.1l55.2-55.2L347,150.4h0l-12-12l27.2-27.2l6.7,6.7l5.4,5.4l15.1,15.2L484.7,43l40.9,40.9L375.8,233.7
	l68.1,68.1c7.5,7.5,19.7,7.5,27.3,0l54.5-54.5c7.5-7.5,7.6-19.7,0-27.2l-40.9-40.9L512,152l40.8-40.8l163.4,163.4
	c10.5,10.5,16.1,23.9,16.8,37.6C734,328.1,728.4,344.2,716.3,356.4z"/>
</svg>
