<?xml version="1.0" encoding="utf-8"?>
<!-- Generator: Adobe Illustrator 24.1.1, SVG Export Plug-In . SVG Version: 6.00 Build 0)  -->
<svg version="1.1" id="Ebene_1" xmlns="http://www.w3.org/2000/svg" xmlns:xlink="http://www.w3.org/1999/xlink" x="0px" y="0px"
	 viewBox="0 0 841.9 595.3" style="enable-background:new 0 0 841.9 595.3;" xml:space="preserve">
<style type="text/css">
	.st0{fill:#877FBB;}
	.st1{fill:#FFFFFF;}
</style>
<g>
	<path class="st0" d="M90.9,542.2c-41.4,0-75-33.6-75-75v-435h735c41.4,0,75,33.6,75,75v435H90.9z"/>
	<path class="st1" d="M750.9,37.2c38.7,0,70,31.3,70,70v430h-730c-38.7,0-70-31.3-70-70v-430H750.9 M750.9,27.2h-730h-10v10v430
		c0,44.1,35.9,80,80,80h730h10v-10v-430C830.9,63.1,795.1,27.2,750.9,27.2L750.9,27.2z"/>
</g>
</svg>
